<mxfile host="Electron" agent="Mozilla/5.0 (X11; Linux x86_64) AppleWebKit/537.36 (KHTML, like Gecko) draw.io/24.0.4 Chrome/120.0.6099.109 Electron/28.1.0 Safari/537.36" modified="2024-11-21T12:11:27.599Z" version="24.0.4" etag="CkyknzMhPrJv1cCtIZU0" type="device" pages="3">
  <diagram name="tick" id="vWE9RARLXgyheJQVr3Fv">
    <mxGraphModel dx="989" dy="600" grid="1" gridSize="10" guides="1" tooltips="1" connect="1" arrows="1" fold="1" page="1" pageScale="1" pageWidth="827" pageHeight="1169" math="0" shadow="0">
      <root>
        <mxCell id="0" />
        <mxCell id="1" parent="0" />
        <mxCell id="5TFYHzZ8lf6iQjPTKfgh-4" value="" style="sketch=0;html=1;aspect=fixed;strokeColor=none;shadow=0;align=center;fillColor=#2D9C5E;verticalAlign=top;labelPosition=center;verticalLabelPosition=bottom;shape=mxgraph.gcp2.check" parent="1" vertex="1">
          <mxGeometry x="130" y="150" width="100" height="80" as="geometry" />
        </mxCell>
        <mxCell id="5TFYHzZ8lf6iQjPTKfgh-6" value="" style="shape=image;verticalLabelPosition=bottom;labelBackgroundColor=default;verticalAlign=top;aspect=fixed;imageAspect=0;image=data:image/png,iVBORw0KGgoAAAANSUhEUgAAA6oAAAMRCAYAAADlcUuoAAAAAXNSR0IArs4c6QAAAARnQU1BAACxjwv8YQUAAAAJcEhZcwAADsMAAA7DAcdvqGQAAHTGSURBVHhe7d1JjGTb9t/1FX0fcSKy77Nu3b7vu3f7W/dW3VbCCCSQACEmICFZFgMzY4g8QfIAhJBggBhaMGFgIUbIkkGyjW0sZCQswd/G/3erKvu+Dc4+sbIqqyqrKjPPOhGn+X7ey4zzi4iMzLqVFRHr7L3XzvV9AgAAAABATOT1EgAAAACAWKBQBQAAAADECoUqAAAAACBWKFQBAAAAALFCoQoAAAAAiBUKVQAAAABArFCoAgAAAABihUIVAAAAABArFKoAAAAAgFihUAUAAAAAxAqFKgAAAAAgVihUAQAAAACxQqEKAAAAAIgVClUAAAAAQKxQqAIAAAAAYiXX9+kxAMRMXwZPUWdPU/6ly3rd47edz/3+qeTO33b66G1nx8Ft/ted3feR2/zrH3/Ms2N3/ydvCw7cp0du87/54DLIF3xdcKjXXfSYetsjX3fq/nzB0eDzuZ/t0a8b5ODP5/5/wW2PHg/+bE6Qg0P3vS/6uuDI//9jt/k/28CTX3f+vo8+hv//R247+zvRx3zstuD64HJw29l/i4f/jc4fO5r9D3ffweM9dpvm87cFf8/P+d05f9vZfzs/PHHbgP/9c/rT6l0fZP10ljXoDQPutgdR7/vwZvdnO/dYvqd9L3cPd93DrFx++ICD7Ph3fvBYwWf/pqd8L3dfd90jjz24YnB8xuXgiweP4O5/Lj7M6uH3e3j/B3c4/9juugf54X3P/hs4F30v58Fj6/dy3DXnv9eD/OgVg2PfRd/LGfw+PMxO8KUXfq9HHkAPfIM7DI6V+/qzn9sJvr870KsefH93HHyvh/cNHutcfPx7DR7r4R0e/h0MPHhsvWKQB8Fdd3a7464N8tkXO2c3630fvUkfO/h89lh+Gvz/0cf2rzifA3r3Mw8e/+y+Lvf976LHuZwbu9HH8I+D7+8ug/u5u/i3P+N+g9vOP+bZbe6+g48H1z9yP3evwdcH/4LddcHl4Drx7xfcJ7hev/Z593PX+bcFHvwcZ1/rbjn7efMP/9ud3X7+5w+yu31wfPZYwWP4x/6n4LEG2X2/s++hjxFcnt0++Jkevx14FgpVZEvw6+5edv03jf4bR/fmMXgDGbyJ9G975nUnD47PX/+s69yHe0q++LqTR653l/6nZ1/n/9zu+KLHFPfz+dc/et35r/dvc8k/Hrw0uOvddYOP82+qH2T/w903+PrHb9N8/rbg5zJ9Uw8AANImqFMfFLYPjx8vkN0dzwrrgeffzz3e+cLY3XdwpX5tcP2TBfQT9wvu627X6/z/uesefK1+v8HP8fAxBtnddHb7kycEHinw3XX+/y5f4Ov3eM793eMOrhzc3//k58FlcL8gn7/97P7nbz93f/9xA2f3f/BzuLsMbh9cBlf4SR/DfV2Q3aXerl/74PanoFBNDPdG3hUbDwuQB0XA4wVPcN2jxYq7dL9Kl7nOFVBn159/nAfXabH0yHWaz479T+euHxR4j143yM/+urP7PPvPd9Gfwf+kx4OvfeQ+AAAAAEam0pyTmXf+qhQrnl7zpIgL1UsUFM+8jxYo5+7jLl0+Oz677+OPfVZMPfi6x77P2eM8/TGe/N5P3se/DKa4Pf7znbtdP578+R79M7j88P4PC7vzjwEAAAAASTf56r8t7dkvNF0s8hHVu//nfy2bf/7fNAEAAAAAsqo5+b5Mv/nva3q6s4nCkWnPfyeFUkMTAAAAACCL8sWqeAu3ND1b5IVqtX1DOvPfawIAAAAAZJE3/51UOy9qerbIC1XHW/je/4Fe0AQAAAAAyJJKa+lKA5hDKVTzxVpQrAIAAAAAssfVg4VyS9PzDaVQdZqTH0lr+lNNAAAAAIAsaE1/cuVacGiFqnPVKhoAAAAAkFyusa53jZ5FQy1U3bzk6/yQAAAAAIDkcetSK+1lTZc31ELVcaOqNe9ynZ4AAAAAAMnkGup2rtmraOiFaq5Q8avq7zQBAAAAANLI7ZlaKNY0Xc3QC1WnOfmhtGc+1wQAAAAASBNX77m677pGUqg6Hb+6LlY6mgAAAAAAaVAst6+0Z+pFRlaoVprzoX94AAAAAEC8uHWpldaCpusZWaHquLWqte7LmgAAAAAASVb36zu3NjWskRaq+UKZxkoAAAAAkBJu1mwuX9J0fbm+T49H5u4//W9l81/+HU0AMEw590zo/u9f+scyeErMueOzp0d3F/8iuEtwhU+ve8DlR+4wkAuu8G/wL9zDBd/CXe/ue3aqUL8uuG9wJ73avzx/NlHvFhg8Ts6/u/+zn/vGevWDHz24wj9+8DiDuw3ocfDlwYFe+oKv9/PZVQ/+e+gVZ4/vrg5+Fs36ZYNPfgiyu4871uuCh3L38Q0e1v0ZHl4Z3M3/FFxqdoJvr3c7u81x17kwuPAfy/9fcJt/RXCdfp3z4I/gf3rwZ9BPGv3DwZ3dY50ZXKPc1eeueOS2a3r4ndRj3+PBz/bgv9PDn87d7cGfRb/miT/z+WN36f/v4Z9zwF0GD392H/26s7+fB4/j/+Wcfffga9zBua9znwePPzB4m+EnvY9zdpujV517MP2a4Js/vO/Z78/AI0GP3P0fXjfw8Gc9d/fBofv04MH10nfuMHDuRwk+ucsHX3buzuevP/U/Hvl35b7u7NL/uOjxguvdpfvk6B36Z/8YgjsPbgxuOnN2dfBNg2sAYGTas1/K5Kv/lqZwYlGoHu78S/mX//BvyvHBml4DJNTZ+4nB4cPs/pX5lcLgOv/tof6zc28uggIiuOHs9gfx4e0qeJOozu577uLB7WeX7tvk/WP33YKr/E/Bbf4VjzyWu49epzc/uN/ga9wd/HdB/qW7Ooj+pRM8voaz2x4+iP+hF8FXPnjn9lBwfxUcXpTPfg6XVfB1+kMP7ud/DrIL5+77eHb8cK62A4D08J/bgsI1eGIePMm5o+BYn6wHnweC47Mr/MuLv1a52/XQeXA3d3nBbYPnab+GPruPc+5O7jCI/p1z/qvdqUuP3X6WLzz2v0FwIsU/dHW6u859z1N3qXdxgp/Fv3z8eif4M5xduhvdJ/+O7r/D4LbBDQ9OuOg1Z48Z3MVdnh34zo6Di7Njdzn48gtvB9KgWO3K7Dt/VcqNWb0mnFgUqs76X/xPcv///luaEBv+k6o+rwZP/ueP3afBueq+//Jydsu5+2lh5n7BXDHjBF+nzo7PrhrkwVl+d3z2dcFlcMvgPudHdoLj4BZ3X33BCq4Pbh58jbvR/3RWUAVfooKfy33oHR/c5I71+rP7B98rGBZ67Dr9ngAAAFcWvLUYvBFxnwdZnR3r5cN3Xuduc4d6oG+PBoW74+4TvE/JBYX62de49y0Psv8RZL1/cKGXzlmR/uAq/+Cs6B9cusd+eMLAvVUKLh/crg/r38fd69HH1svBRXC7+6KHWW/zP53/OsTT+Ev/mngLP2gKLzaFar9/In/5j/6m7K7+U70mftw/YvePbfDJXQz+4bvrB85l/79qcP+z+/r/at1t7r+2u+78KJrjCqYgPqjIBvdz1wWPGTygu21w49lt7lNwqUWh88Rt7lAPBte7pwH9OYP7uIPgqUHzuUsAAAAgJtw7YffpkUv/XWtQ3vbde20t5d1xcJt/qAfBxWDagB7rdX5lrXcJiutHbjt36d4cnz2Wu58zyIMb3OGj3yt46OA9tbv+7Lrz93l47N/Lf9DgcQc/4iO3x12991owmiq5oMoxEZtC1dm59w/lL/+P/0JTeNNjD/6eg6LMjfq5XyF3XTC65n+444dF3KCYdFcG1w+ufHA7AAAAAAzbg4I2KLTd5bli231o4fLE9e7YRc0bOyL7B3qloZm3/0NpjL+tyUasClXn3v/138nG//e/aAqnXvX/o/nFKgAAAABk2ca2yP0NDYY689/IxMv/piY7dmOzRtyeO6WqTXW5uy+ytasBAAAAADLo5FRkdVODoXJ90mTP1IvErlAt1af9P+z3msJb3fI/xWrMGAAAAACGZ3VT178a68x/J6XapCZbsStUHbdJbGPsdU3hHB+LrERw9gAAAAAA4m7vQGRzx77pTmPsraBQjUosC1XXvag9Z/eHXt8WOTjSAAAAAAAZ4UZTo9BZiK5IdeJZqPpc16jO/LeawluNYOEwAAAAAMRV0OX30H40tbv4g9R7b2iKRmwLVcetVS3VJjSFs+uGvHdZrAoAAAAg/QYNlOzrn3JjJtIpv2diXai6hbmWjZXWNnORLCIGAAAAgDhZ2xQ5PbUfTfXmv5ei0S4tzxLrQtVx1Xp9zGZY+fhk8BcGAAAAAGm1fziY9mutMfGutOe+0hSt2BeqjqvarfaYcY2V3F8cAAAAAKRRFHum5vPFyPZMvUgiCtX62Jum/1FWNpj/CwAAACB9NncGW9JY6/j1WM17WVP0ElGoOm6tark+pSkc1/lqa1cDAAAAAKTAadBASYOhSnNeOsEs1+FJTKFarI6bdpda2Rj8RQIAAABAGqz4Rarr9muts/C9FCsdTcORmELVcfuqNsbe0hSO+wt0f5EAAAAAkHSuD4+b9mutNfWhtGf+pGl4ElWoOq6az+Vs2iwH87dprAQAAAAg4aIYhMsXK0Of8nsmcYVqvfd6sJDXCtvVAAAAAEgyNwC3H0EDJW/+llQ7NzUNV+IKVacz952UGzOawnEdsaLYYwgAAAAAoub67kQxmlppLwWzWUclkYVqqTZm3lgpikXHAAAAABCl1a1omsR2F25JodTUNHyJLFSdztzX0hh/R1M4/T5TgAEAAAAki5vuu7GtwVBr+hNpTn2iaTQSW6g6bm/VXL6oKRw3/TeKjXEBAAAAIApuNNVaodQQb0QNlM5LdKFa674aFKtWoviLBgAAAABrW7vRDLS5damV9rKm0Ul0oeq4xkqV5pymcKIaOgcAAAAAK6f9QZ8dazXvxWBtahwkvlAtVrumjZVWN0VOTjQAAAAAQMwENUsEDZRcXZUrVDWNVuILVac9+6U0J97TFI47O+H+4gEAAAAgbvaPopkF2p75kzQnP9Q0eqkoVB03lzpfKGsKZzOi+d4AAAAAEMZqBFN+i5WOX0/ZzVK1kJpCtea9bLoh7X1GVQEAAADEyFZEO5V4C7ek0lzQFA+pKVQd10a50rL5D3x4KLJOYyUAAAAAMRA0UIpgl5J69xXTnj9WUlWoFspt88ZKxzRWAgAAADBiaxE1fe3Mfy+5fElTfKSqUHUGi4A/0BROn8ZKAAAAAEZsP6LZnp25r6Qx8a6meEldoep4rrFS0aatsttId3dfAwAAAAAMmRtNtVas9oK1qXGVykK12nkxWK9qhVFVAAAAAKPgdiTZjaiBUqk+rSl+UlmoOq69cqW1qCmcgyMaKwEAAAAYLrcUMYrR1HrvddOBvSiktlAtlFrBFGArK/4vyNGxBgAAAACIWFTNXYNtPXM5TfGU2kLVaU1/Jq2pjzSFRGMlAAAAAEMS1azOzvy30hh7S1N8pbpQddyoaqFU1xTO9h6NlQAAAABEb3VDDwyV65OxbqB0XuoL1Ur7BenM2e2tuhLBLwwAAAAAnAl2HomggZLbM7VUm9AUb6kvVB03B7vaXtYUzuGxyNqWBgAAAAAw5BooRbHksDH+VjDtNykyUagWSo3BgmEjwaJmGisBAAAAMLay2Y+mgVLMu/w+LhOFqtOa+kRa059oCu8+jZUAAAAAGHINlDa27bvxdhd/CLakSZLMFKpOZ/47KZSamsLZ2RPZprESAAAAACORNFBqzCRuNNXJVKFabd8IilUrUfwiAQAAAMieqBoouV1QitWepuTIVKHqeIu3pNp5QVM4R66xElOAAQAAAIQQWQOliXelPfuVpmTJXKGaL1TFMxz6Xt0SOTzSAAAAAABXtOKatRo3UMrlC9JNyJ6pF8lcoeo0pz6S9sxnmsKL4uwHAAAAgPQ7OHQNlDQY8hZ+lKr3sqbkyWSh6ri1qsVyW1M4O/si27t9TQAAAABwOW6GprVKa0E6C3a9eUYhs4VqpbVk21hpy76NNAAAAID02trty24EO4m4Lr/FckdTMmW2UHW8hVtS817UFI5rrMQUYAAAAACXETRQ2rIvx1rBMsfPNSVXpgvVXKFsuqfQGo2VAAAAAFyCG+Q6PrZdPpgvVk3rm1HKdKHqNCc/kPbsnzSF5zp2AQAAAMDTHByJrEfSQMluK85Ry3yh6gSNlSqepnDcHPPtXQ0AAAAA8JiVDT0wVG0vp2Y01aFQ9VWaC0GxasWNqro55wAAAABwnhvU2jvQYMiNphZKDU3JR6GqgsZKXZt9htxmvVG0mQYAAACQbCsR1Amt6U+lOfWxpnSgUFW5fFE8w6Hydf8X0M09BwAAAADHzbw8PtZgxI2iegvpmfJ7hkL1nMbEe9KZ+1JTeKsRzD0HAAAAkDxudxA3mGWts3BLKq0lTelBofqYYHPcSldTOLsHIps7GgAAAABkVhQNlGrei9L1C9U0olB9TLkxazp07taq0lgJAAAAyK6tvcEgljU3yJYrVDSlC4XqBbzFH6TefVVTOCcng7noAAAAALIpiiWB7dk/SXPyA03pQ6F6oZx0DEdVN7ZF9g81AAAAAMiMoIHSiQYjxUonVXumXoRC9Ska4+9Ie+4rTeExqgoAAABky+FxNA2U3Naalea8pnSiUH0G9wtQrI5pCmf/QGRrVwMAAACA1Itiym+9+0rqR1MdCtVnKNenTRsruU5fp6caAAAAAKTW9m5fdvY1GHJLFHP5oqb0olB9DjeqWu+9rimcE79IXWUKMAAAAJB6q5s5PbLTmftKGuPvako3CtVL6Mx/p0fhbeyIHETQmhoAAABAPKxs9OXIuIFSqdoLBtGygkL1Ehrjb/vF6jeawrsfwYJqAAAAAKN35BoobduPproitVSf1pR+FKqX5M37vxi1CU3huMZK6zsaAAAAAKRGFLt91HtvmG6fmQQUqpdUqk+aNlZa23BrVu3PtAAAAAAYjZ29wYe1zoJbipit2oFC9QrcWtXG2JuawjntuwXW/icAAAAAqRDFaKobLGuMvaUpOyhUr8gVqzmjkxmbOyJ7NFYCAAAAEs9tRenWp1pySw8tG7smCYXqFdXH3jT9ZYnirAsAAACA4Tk8cg2UNBjyFn8w65OTNBSq1+At/CDl+pSmcA4ORTYi+KUGAAAAMBxR7Jka7DwyZ7fzSNJQqF5DsTpm2nXLjaqeGO+zBAAAACB6266B0r5t7xm31DBLe6ZehEL1mtzZDXeWw0Lf/72+v6EBAAAAQGKsRtJA6UepdV/VlE0UqiEEjZXyNv8J3ZkYGisBAAAAyeGKVOsGSpXGbOb2TL0IhWoI9d7r0pkzbKzEqCoAAACQCIfHfVnb0mDIFanFSldTdlGohuQ6cZUbM5rCOYioWxgAAAAAW6sb9g2UmpPvS3v2S03ZRqEakjvb4TbhtRI0VjrVAAAAACB2tvf6srOvwUguXxBvnim/ZyhUDbRnv5LmxLuaQqKxEgAAABBrKxGMpnqLP0rVe0kTKFSNDBorFTSFs70rsmt8hgYAAABAeK6B0rHx1pKV1gKjqY+hUDXi2kdb/nIxqgoAAADEy/GxRNJAye2ZWii3NcGhUDXUWfhBKs05TeG4NtdR7MkEAAAA4HruRTCY1Jr6SFrTn2nCGQpVQ8VKx3TPI3e25sh4WgEAAACAq3NL86yX5xWKVfZMfQoKVWPtmS+CttJWVtf1AAAAAMDIRLE0r7NwS6rtFzThPArVCLi1qrl8SVM42/siO3t9TQAAAACGzW0h6ZbmWap2bgRrU3ExCtUIuLbStnur2re/BgAAAPB8bineehQNlOa/l3yxrgmPo1CNiLf4Q9Bm2gKNlQAAAIDRWIlgKV57+jNpTn2sCRehUI1IodQyHVUNGisZTzcAAAAA8HQ7bhmedQOlUkM6C99pwtNQqEaoNf25NCc/0BQee6sCAAAAwxPFaKq3+KNUWkua8DQUqhFzC6TzhYqmcFw7bNdcCQAAAEC0ViPYKrLmvSjePKOpl0GhGrFq56ZpNy+2qwEAAACidXTcl7UIesS47WhyRoNYaUehOgSD/ZFshvfdWR3XHhsAAABANKLYdaM9+4U0J97XhOehUB0Ct2C6PWc3xO/aYx8eaQAAAABgZmev739oMFIot9kz9YooVIekPeNaUH+kKTxGVQEAAAB7UYymdhd/lHJjVhMug0J1iILGSsWapnCCxkrGZ3oAAACALFvdtN8SstZ9RTqG21ZmBYXqEFXbN0yH/FfYrgYAAAAwcewXqGtbGgy59/+5XEETLotCdcjcL2q1c0NTOMeusRLFKgAAABDa/Si6/M59LY3xdzThKihUh8xN/e1YNlbaprESAAAAEIZbVmfdQKlU7dFAKQQK1RFoTX8SfFi5z6gqAAAAcG1RvJ/2Fn6QUn1KE66KQnVE3C+u27bGwt6ByOaOBgAAAACXthZBA6XG2Bs0UAqJQnVEKq1F06kAbq1qv68BAAAAwHO5ni+rETRQas9TpIZFoTpC3uIPUuvc1BTOqV+kMgUYAAAAuLxopvx+L42xNzXhuihURyiXL0tn3q6xkpv+e0BjJQAAAOC5ImmgVJtgyq8RCtURa059JO2ZzzSFt7KuBwAAAACeKortaNyMyVJ1XBPCoFCNgc7CD1IstzSFs3cosrGtAQAAAMATVjf7cmQ8E9Htl9qZ+0YTwqJQjYFKc94vVu0aK7kF4X3JaQIAAABw5vi4L2tbtu+Vc/7DubWpsEOhGhNuu5qa95KmcE5PRe6t0QIYAAAAeNz9TfsBHW/httS6r2qCBQrVmMjli6aNlbZ2RfYPNQAAAACIpIFSpTkrnQW79/EYoFCNkebkB9Ke/ZOm8NzeqgAAAAAGotiOpjN/S4qVriZYoVCNGS/4Rfc0heNGVDci2MAYAAAASJq1TZGjYw1GmhPvS3v2C02wRKEaM+XmnOlC7BW/UD1luSoAAAAy7Ph00HDUklu65y3aNUTFoyhUY8htV1PzXtYUTt8vUqOY4gAAAAAkxf01PTDkLf4o1c6LmmCNQjWGcrm86dmZrR2RAxorAQAAIIP2DkR29jUYqbQWxJtnO5ooUajGVGP8XenMfakpvHsb7KsKAACA7Lm3rgeG3NaShXJLE6JAoRpj7h9AqdrTFM7BYV/WtylWAQAAkB2rETRQak1/7H98qglRoVCNsVJ9WtqGe6uubPbl5FQDAAAAkGLHJyJrxg2U8oWKdJjyOxQUqjHXXfxRat1XNYXUZ29VAAAAZMNKFFN+XQOl9g1NiBKFagJ4C4aNlXZF9misBAAAgBTb3RfZNm6gVG0vm74vx7NRqCZAY/xt6cx9rSm8+xGcXQIAAADiIortGV3/mHyxpglRo1BNCG/xBynVxjWFc3hkP18fAAAAiINV/32udQOl9sxn0pz6SBOGgUI1IUq1SekYNlZyHdBOTjQAAAAAKeDe367573MtFUoNGiiNAIVqgrg58fXe65rCi2JKBAAAADAq9zfst2N0DZQqrUVNGBYK1YSxXMC9vSeyd6ABAAAASDD3vnZ7r6/JRs170X//zWjqKFCoJkx97E3x5r/VFN5dGisBAAAgBe5FMFuws3BLcvmyJgwThWoCdRZ+kHJ9UlM4x8eD9aoAAABAUgUNlI40GGnPfiHNifc1YdgoVBPIdf+1bKzkOgAf01gJAAAACXRyat9AqVhus2fqiFGoJpQrVBtjb2oK7x5TgAEAAJBA99ejaaBUbsxqwihQqCaYt2h3lmd3333Y/yMHAAAAohJFA6V69xXp0EBp5ChUE6zWfd20C9m9ddt/5AAAAECUopgVGDRQyhU0YVQoVBNuMC1hWlM4bp3qCo2VAAAAkACuz8rRsQYjbneNxvg7mjBKFKoJV6x0TRsrrdNYCQAAADHnGihZ71xRqvb899VM+Y0LCtUU6Mx9I43xtzWFd5cpwAAAAIixqBoolYy2gER4FKop4dpn53I2f517+znZ3KFYBQAAQPxE0kCp94bpLEWER6GaErXuq6aNlVa36AAMAACA+LkfQQOl7uIPeoS4oFBNkc6Ca6w0oymck5NongQAAACA63INlA6tGygt3JJa73VNiAsK1RQpVjqmC8A3duw7qQEAAADXEUkDpfoEe6bGFIVqynTmvpLmxLuawotibyoAAADgqiJpoLTwo5SqY5oQJxSqKeQ2Kc7ni5rCcYvVN3c0AAAAACMQRQMlt19qZ+5rTYgbCtUUqnkvS9uwa9mK8RQLAAAA4Crse6f0g7WpiC8K1ZTqLt6WcnNOUzinpzRWAgAAwGhE0UCpu3RHat1XNCGOKFRTqlBuSdfwLJFrrGT9BAEAAAA8SxQNlNwuGZYNSBENCtUUa838SZqT72sK794ae6sCAABgeKJooNRd/FGKFU8T4opCNeW8hR8kXyhrCmf/sC8bOxSrAAAAiF4UDZTcII4bzEH8UaimXLVzUzqGjZVWN2yfLAAAAICLWG+TmMsXaaCUIBSqGdBdui2V5oKmcE79OpW9VQEAABAl10DpyLg/irf4o1Q7L2pC3FGoZkC+2PD/YdotGHf7qh4eM7IKAAAAe27HCesGSpXWgmmjUUSPQjUjWtOfS2vqQ03h3aWxEgAAACJwL4IGSkHfllJTE5KAQjVDOv4/0EKxqimcg0ORjW0NAAAAgIF9/z2mdQOl1vTH/senmpAUFKoZUm3fkLZhY6UVNyWDGcAAAAAwcndND4zkCxX2TE0oCtWM6S7elkprSVM4fb9IvUtjJQAAABhYjaCBUnfpTjBYg+ShUM2YfLEm3oLdWaWtXZHDIw0AAADANbgGSmvGDZSq7WXTbRoxXBSqGeTm6Lu5+lasp2gAAAAgWyJpoLT4YzBIg2SiUM0o1/msUKprCufgaLDXFQAAAHBVrkmndQOl9sxn0py02/ECw0ehmlFunarlVAi31xV9lQAAAHBVfxjPziuUGsGgDJKNQjXDvMXbpovL/1jVAwAAAOASImmg5L/HLTfnNSGpKFQzzLXr9hZvaQpvZ28wdQMAAAB4ntN+BA2UOjelY9g4FKNDoZpxzcmPpD1jtwEy29UAAADgMu5FMBvPNVDK5UuakGQUqhBv4cdgLr8Ft1WNW68KAAAAPM2+/55xe1+DkfbsF9KceE8Tko5CFcEcfsu9VV0HYDeVAwAAALjIXePR1GK5TQOllKFQRcBbvCO1zk1N4bG3KgAAAC7iZt9ZN1Dylm5LuTGjCWlAoYpALl+UzoJtY6X9Aw0AAACAL2igZLz/fr37inTmaaCUNhSqeKA5+YG0pj/TFN7d9ZweAQAAAPZTfp3Owg+Sy1HWpA1/o3hEd+lHKZRbmsI5Ou7TWAkAAACB/UORHeMGSt78t9IYf1sT0oRCFY8oN+bsGyvRWQkAACDzrHuYFKtd9kxNMQpVPCForOS9pCm8P9aYAgwAAJBlaxE0UOou3pZSbVIT0oZCFU9wc/w9w8ZKu/siWzsaAAAAkCn9vsiqdQOl3hvSmf9OE9KIQhUXaky8J+2ZP2kKz/rJCQAAAMnwRwTbFnYX2TM17XJ9nx4Djzjc+Uv5l//wP5Pjgw29JpxOU2S8owEAEuDu6p6sbWRjr61Xbnh6BAB2Dg9F/vk9DUbczL/xl/51TUgrClU809r/+7dl5Z/995rCW54RKTCODyAh/u7//od89+/8j5rSbe8f/3t6BAB2/uKuyNGRBgPl+qTMvvvXpFgd02uQVpQMeKbu0p1gE2Urf0SwdxYARKVRL+pRur3/+rgeAYCd1c2+aZHqdBZ+pEjNCApVPJdnuAZg70Bka1cDAMRcs17So3QrFnk7AMCWm7O5tmW780Nz4h3pzH2lCWnHKxOeqz72trRnv9QU3n2bJa8AELmsjKjm82wjBsBWFA2UOgs0UMoSClVcSnfpdrCpsoXTU4pVAMnQqGVjRLVQoFAFYOfgSGRnT4MRt2dqzXtZE7KAQhWX4jZTttxbdWNb5NgvWAEgzrIy9Zc6FYAl654k5caMdAzfhyIZKFRxad7CD1LvvaYpvLs0VgKQAI1a+qf/lksFPQKAcNY2RY6ONRhxo6nFCnscZg2FKq7EFatWXGMlN7IKAHGWhem/xSJDqgDCcw2UVrc0GGlOvi+tmc81IUsoVHEl9bE3pTP3tabwrJ/MAMBas5GBQpUNrgEYsG6glM8XTQdJkCy8MuHKvKXbUqrZ7F/lGivdjaArHABYycI61SKLVAGEdHBo30DJveesdm5qQtZQqOLKStVx6czbLWh3+6par2UAACv1DKxRZR9VAGFZj6ZWmvPiGb7fRPLwyoRr8Ra+l8bYG5rCu7vG2XwA8eS1mPoLAM+yGkEDJTeami81NCGLeGXCtVluurx/2JeNbYpVAPHTysIaVUZUAVyTa6C0Zt1AaeojaU19oglZxSsTrq3ee106899qCm9l03+mA4CYaWRhjSpdfwFck3kDpUKFBkoIUKgiFLevVak+oSkcd0aOxkoA4qaVgUK1xIgqgGvYj6qBUntZE7KMVyaEUqz2TBe6u8ZKhzRWAhAjWej6W2KNKoBruLuqB0Zcgeot0EAJA7wyITQ3/dftr2rl7ooeAEAMNDKwRrVU4u0AgKsJGiidaDDiLf4o+UJVE7KOVyaY6PpPLFYOju0X5QPAdTH1FwAedRpBA6X2zGfSnPxQE0ChCiO17qvBljVW3Fk6obcSgBjIxNRfClUAV2A95bdQqtNACU/glQlmukt3pFyf0hTeH+t0oQQwes0MTP0tUKgCuKSDw5zs7Gsw0l36ScrNeU3AAK9MMFMod8RbtDsbtr3b958MNQDAiGRhH1XWqAK4rD/WbKe8VTs3pTP/nSbgIV6ZYKo9+5U0xt/WFN7ddT0AgBFh6i8ADKy4BkrGuzO4Pie5fPqfZ3F1vDLBnOvYlsvZ/GodHoms0lgJwAhlYkSVQhXAc7j97tetGyjNfimNifc0AY/ilQnmat7L0jFsrLS2OeguBwCjkIVCtUyhCuA5/mzcQKlYaZsuGUP68MqESHQX70ilMaspvD+MnxwB4LKyMPW3XCroEQA8af9QZNe4gZLnv1cs16c1AU+iUEUkCuWWdBZuaQrPPTm6J0kAGLZ2s6xH6cXUXwDPYj1gUO++Ip15u9l3SCdemRCZ9uwX0ph4V1N4d9fYrgbA8OX8p560j6rS9RfA07i97Y9PNBjxFm/7z628r8Oz8cqESA06uRU1hXN03A+eLAFg2NK+TrVcZuovgCe5HiFrxg2UOnPfSH3sTU3A01GoIlLVzoviGU7tcE+WJ6caAGBIUl+oMqIK4AJ3rRsoVbs0UMKl8cqEyHlLd6TSnNcU3t01PQCAIWk10r1OlUIVwOP2DnOyY9xAyTXbLNUmNAHPxisTIlcoNcwbK23taACAIWg1bJYwxBVdfwE87t6a7d6A9bE3pDP/rSbg+ShUMRTtmc+lOfm+pvBWjddLAMCzpH7qb5GmJgAecj1Bjo41GHF9S4CroFDF0HQXb0u+YDN9znWfW9nQAAARa6V8ixqaKQE443qBWDdQ8hZuSa37mibgcihUMTSV9o3gicrK+rZfsB7bTksBgIu0aaYEICPuGW8H6NakWr7/Q3bwyoSh8pZuS7W1qCm8u+tMVwMQvbQ3U6owogrAt7fflx3/w1J36Y4Uqz1NwOVRqGKo8oWaaWOlvQORTRorAYhYs8mIKoD0u7dhOwDQGH9b2rNfagKuhlcmDF1r+lNpTn6oKbxV1qoCiFibEVUAKed6f1g3UPJooIQQKFQxEt2l25IvVjWFc9IXub+uAQAikPY1qhW2pwEy7eRk0PvDknuvV/Ne1gRcHYUqRqLSWjJdWL+xY38WEADO0PUXQJrdM56dVm7M+O/zftAEXA+FKkbGW7wdFKxW7jKqCiAi7ZSvUa2UeTsAZJXr97Gzp8GIG00tlNuagOvhlQkjky9U/GLV7mzbvv9E60ZWAcBaK8VTfwuFnBQLvB0Asuremh4YaU6+L63pzzUB18crE0aqNfVx8GFldZN9VQHYS/OIKutTgexa2ejL0YkGA7lcgSm/MEOhipFzU4ALpbqmcE5Pc3KPKcAAjLVTvEaVjr9ANh2fugZKttvRdJfvSLVzUxMQDoUqRq7SWpDOvF1jJbev6sGRBgAwkObtaShUgWyynvJbac6bNsoEKFQRC27RfbV9Q1N4jKoCsFStFKRcSudLJoUqkD2ugdLuvgYj3tIdyRcbmoDwKFQRC7l8yS9W7TaFPji03w8MQLa1W+kcVXVFOIBssd4poTX1kWnPEcChUEVsNCY+kNb0p5rCW90U6dNbCYCRtE7/ZUQVyJYV//3RseHe8/mi28XhtibADoUqYqW7dEcK5aamcFyRem/dtkkAgOzqpLShUoURVSAzjk9E1rc0GOkG++IvagLsUKgiVsqNWdO25lu7fdk/1AAAIbQaRT1KlyojqkBmWDdQqraXpcN2NIgIhSpix52Zs2xtTmMlABY6aV2jWuatAJAFW7siuwcajLgpv/lCRRNgi1cnxE8u7xerdo2VDo9E1oynuQDIHpopAUiyVeP3Qq6vSHPyA02APQpVxFJj4j1pz3yuKTzXWOmUxkoAQmjXKVQBJJN1A6VCqR5sLQhEiUIVseX5T4DFSltTeNbrMgBkS2qn/lbSufYWwEAUDZS8xTtSbsxpAqJBoYrYKtdnpDN/S1N423uDDa4B4DpaTP0FkEB3jU/U17yb4i3YvT8DnoZCFbHmtqupeS9pCu8+jZUAXFNat6eh6y+QXq6BkvVJem/htuTyzMRA9ChUEXueZWOlY7delcWqAK6undJCtcbUXyC1Vrds95PvzH4pjYl3NQHRolBF7DXG35H27Beawlvzn7Tdeg0AuIpOq6RH6VJm6i+QSisbroGS3cn5Qrkl3iJ7pmJ4KFSRCG5v1VLV0xQeU4ABXFWnmc5CtVZlRBVIm6NjkfVtDUa6Sz9JqT6tCYgehSoSoVSfMm2stLMvsut/AMBlpXbqb5URVSBt7hmfkK91X/Hfh32vCRgOClUkhlur6p4orTCqCuAqvHZFj9KlVmZEFUiTrR37Bkpuz9Rczna9K/A8FKpIFDcF2MrRiWusxJMugMtJ64hqlRFVIFVWjfdM7cx9I/Xem5qA4aFQRaLUx970nzC/1hTe2lZfjgwbDQBIr0atKKVi+l426foLpMd910DJsGFkqdqjgRJGhkIVieOmnxQrXU3h3V9nVBXA5bRb6RtVZY0qkA6ugdKGcQMlzzWzrE1oAoaLQhWJU6yO+8Wq3d6quwcim7saAOAZvBRO/62zPQ2QCta9Nxpjb0hn/ltNwPBRqCKRXOe5eu81TeGtbuoBADxDJ4UjqlW2pwESb3NncOLdkhtNBUaJQhWJZfkEenIiskIXYADPkcZClX1UgeRbM26g5C3eklr3VU3AaFCoIrHqvddNp6Ss74gcHmkAgAt0miU9So86hSqQaCubxg2UahPizdNACaNHoYpEc9vVlKpjmsK7t6EHAHCBTgr3Uq3XWKMKJJVroLRuPpp6W4pVu6aVwHVRqCLRikHbdLvGSvs0VgLwDF4a16iWGVEFksq8gdL429KZ+0oTMFoUqkg8N/23PvaGpvBWNkTYWRXARdK4PU29RqEKJNHWLg2UkG4UqkgFy1HV01MaKwG4WNqaKZVLeSkVeSsAJJH1jgVun/qa95ImYPR4dUIq1LuviTf/nabwNnZEDmisBOAxXjNda1QZTQWSyc3+smygVGnMmJ70ByxQqCI1vKU7Qac6K9brPgAkX6edrhHVWoVCFUiaQ9dAaVuDEW/pthRKLU1APFCoIjWKFc+2sdKhyIbxCwGAZPNStj0NW9MAyWO9PKkx8Z60pj/XBMQHhSpSpTP3tTTG39IUntub7JTOSgCU12HqL4DR2dqxbaCUyxeCrf6AOKJQReq4J9xcLqcpnL5fpDIFGMAZr5W2QjVdI8RA2lk3UHJdfqudFzQB8UKhitSpei+Lt3BLU3iu/bubBgwAaev6W68W9AhA3N13DZRONRioNOelSwMlxBiFKlLJNVYq16c0hedeHACg1ShJsZCel84GU3+BRHANlKz7Zrj3SvliXRMQPxSqSCXXuc5y0+qDQ5G1LQ0AMi1NnX8pVIFksF6G1Jr6yP/4WBMQTxSqSK327BfSGH9HU3irfqF6YrhnGYBk8prpKVTrddaoAnG3uSOyZ9hAKV8oB9vRAHFHoYpU6/pPxK6jnQnXWMm4iQGA5OmmqPNvg+1pgNhzJ8otdZd+kkpzURMQXxSqSLVq50XTxkrbuyK7+xoAZJKXooZKTP0F4s31yLCczVVpL0nH8H0RECUKVaSet3hHyo0ZTeHd32BjVSDLvBStUa0x9ReIraMj+wZKvaWfJF9I1zZbSC8KVaReodQwbax0dJyjsRKQYV47RVN/GVEFYuue8Y4DrenPpDHxviYg/ihUkQntmc/9J+f3NIXnNtw+prESkEmpmvrLGlUgltwe7pYNlAqletC3A0gSClVkRnfxtuQLdtPc7hm3igeQDJ00jagy9ReIn77IinHzxsEyqFlNQDJQqCIzqp0XpDNv10DANVXaobESkDldClUAEbJuoFTzboq38IMmIDkoVJEp3aU7UmnOaQpvxXj9CID4S1MzpWadqb9AnBy4Bko7Goy40VSzrfqAIaJQRabkizXjxkquWKULMJAlaRpRrbNGFYgV6xPgndkvpTH+jiYgWShUkTmt6U+lNfWBpvDWt3NyRGMlIDMYUQUQBTeSatpAqdwSb/FHTUDyUKgik9w0mHzB7s3mfRorAZmRphHVZoM1qkAc9Psiq8ajqV3/vU6pPqUJSB4KVWRSpbVkepYxaKy0pwFAqqVpRLVRo1AF4sA1UDo1XElU677iv8+hgRKSjUIVmeW2q6m0FjSF515kAKSfG1HN5TQkXJOuv8DIuQZKm8YNlNx7HCDpKFSRWblCxfSJ/PiELsBAVqRh+m+lXJByibcBwKiZN1Ca/0bqY29qApKLVyhkWnPqY2lNfaQpvPXtwZlRAOnmpaBQZQ9VYPQ2d3KmDZRK1Z54CzRQQjpQqCLzvKU7ki9WNYXHqCqQfr1O8gvVZo2Ov8Ao9SUnq5u2W9y5LfhKtXFNQLJRqCLzKs0F07OP7syo9VoTAPHitZLfUKlFx19gpFbW+3JyqsFAvfe6dOa/1QQkH4Uq4Osu3ZZqe0lTeO4MqWs1DyCdeh5TfwFc38HhYN9US92lO3oEpAOFKuDL5UvBdBkrJ6c5pgADKZaGNaqtOlN/gVFZ2TCe8rvwvdS6r2oC0oFCFVDNyQ+lNf2JpvDcmdL9Qw0AUqWXhkKVqb/ASLj3B3uHdntclWoTwcwwIG0oVIFzuot3pFCqawqPUVUgnbwUNFNqUKgCQ3d66pYHaTDiitRC2dMEpAeFKnBOuTln2ljJjahubGsAkBpp2Ee1xRpVYOhWNvtBsWqlMf62tGe/0gSkC4Uq8BjPNVbq3NAUnjtzenpqN8UHwOh1UzCi2mokv3MxkCT7R4N9Uy15izRQQnpRqAKPyeUK4i3YrfU47YvcN26aAGC0eu3kF3nNJiOqwDBZLwdyU35r3ouagPShUAUu0Jx8X9ozn2sKb2tXZP9AA4DE66ZgexqaKQHD4/ZXt3wfUK5Pi7dot1QJiCMKVeAp3H5khVJTU3j3aawEpEYvDVN/WaMKDIVb/mM+mrrs3qO0NAHpRKEKPEWpPm3a7v3gSGRtSwOAREtDM6Uma1SBoVh1DZQMVwA1J96T1rTdrC8grihUgWfwFt36j5uawlv1C9XjEw0AEqtSLkijVtSUTG2m/gKRO3Dd/3c0GMjlC+It0UAJ2UChCjyHaUe9vl+sMgUYSIVep6pHycQaVSB69633TF28LdW23c4EQJxRqALP0Rh/R9qzX2gKb2tPZHdfA4DE6iW8oRKFKhAtt4+6ZQOlSms+mOkFZAWFKnAJ7gxmsdzWFN6K8RlWAMPXTfgWNW22pwEic3o6WO5jyc3wyhdrmoD0o1AFLqFUnzJtA3945JoraACQSEnv/NuimRIQGXdC2hWrVlpTH/kfH2sCsoFCFbgkV6jWvJc0hec6AB/RWAlIrJ6X3DWquRxTf4Go7B0M9k21ki+UaaCETKJQBa7A+oXCel81AMPTS/AWNe0mo6lAVNx2NJbclN9Kc0ETkB0UqsAVNMbekvbcV5rC29kT2aaxEpBI3W6CC1Wm/QKRWHcNlA5zmsKrtpdMlx4BSUKhClxR0Fip4mkKb3XD7gUNwPD02smd+ksjJcDeyanImnH/iaCBUoETS8gmClXgikq1CdOzm0fHfRorAQmU5O1pWkz9Bcy51/JTw1m/7ZnPpDn5gSYgeyhUgWvwFm5JvfeqpvCCxkpHGgAkwliCu/52GFEFTLn9Ui0bKBVKdWHPVGQdhSpwTd1F28ZK9xlVBRKlm+BClam/gC3r/dHdlN9yY1YTkE0UqsA11Xqvizf/rabwdvdFtnc1AIi9sQRP/aXrL2Bn0EBJg4Fq56ZfqP6gCcguClUgBG/ptpSqPU3huTOyfduu9gAi0uskt5lSh0IVMHF6Olibaqm7dEdyuYImILsoVIEQipVeUKxaOT6xf8EDEI1CISfdhO6l2mpRqAIW7m/YnmBuz34hjfF3NAHZRqEKhNSZ+1bqvdc1heemEB0YTiECEJ1eQtepMvUXCG/vQGTLcMlOsdwOtsADMEChChhw03QsWTdlABCNsW4yp/96FKpAaPYNlG5LqT6lCQCFKmCg1n1VvIXvNYXnztJatrkHEI1eJ5kFX5upv0AoG9s509lP9e4rNFACHkOhChgJzoTWxjWFt7o1aNIAIL56XjJHVNlHFbi+E/+1eWXD9gWaPVOBJ1GoAkaKFc/0heaExkpA7I2xRhXInBXXQElymsLrzH8j9bE3NQE4Q6EKGOrMfW36YrOxI7JHYyUgtroJHVH12hSqwHXsWjdQqnQZTQWegkIVMGbdsW91Qw8AxM54QgtVRlSB67F+Te4u35FSdUwTgPMoVAFjNdcQYeGWpvD2Dwdb1gCIn56XzKm/XiuZPzcwSsH2cUcaDLit7dwWdwAuRqEKRMBtV1OuT2oKzzVWOjm1Ww8DwMZ4Aren6bTKkuPpBLiS4wj6RjDlF3g2ClUgAoVy2/QFqH/qphv1NQGIi14Cmyl1mPYLXFnQQMnwZdhtaVfvvaYJwEUoVIGItGe/lObEO5rC29wd7K8KID6SOKLqtZn2C1zF7r7I9p4GA+XaRDDzCsCzUagCEXKjqjnDOXYrbFcDxEoiR1RbjKgCV+GW31jylm5LodzRBOBpKFSBCFU7L/rF6o+awjs4FFkzfsEEcH2VciFxHXS9VkmPADzPuv+a6157rTTG35b27FeaADwLhSoQse7iHSk3pjWF587sHp1oADBySRtV7dDxF7iU4+O+eQMlpvwCl0ehCkQsX2oExaqZvmuspMcARi5p61Q9pv4Cl7KylXMvuWbcDCs30wrA5VCoAkPQmvlcmhPvaQrPNXXY2dcAYKTGEraXaodmSsBzBQ2UdjUYcDOrGE0FroZCFRgS1zwhly9oCs96OhKA6xlL2ohqmxFV4Hns90y9I4VSUxOAy6BQBYak2n7BtLHS4RHFKhAH416yCtUua1SBZ1rfFjnwX2OtuBlV7ZnPNQG4LApVYIgGjZVmNYXnOgC7ghXA6PQSNqLaYUQVeCrXrHDFsA+Em0nlMeUXuBYKVWCI8sWa+RqVFbarAUYqeSOqFKrA06xuWLZPGpygrrZvaAJwFRSqwJC1pj+V5uQHmsLb3bNt+ADgahK3RjVh2+kAwxI0UNrLaQqv3JwzXfIDZA2FKjAC3uJtyRfsNt13e6sCGI2JhHX97TL1F7jQinHfh97ST8FMKgDXQ6EKjEC1vSydBbuzrEfHNFYCRiV5XX8ZUQUet27c86E59aH/8bEmANdBoQqMiFurWmnOawqPxkrAaCRpjWq1UpB6tagJgHNs3EApXygHo6kAwqFQBUYkX6gEe6tasp62BOD5xnvJKVQ9tqYBnrCymROxW5oa7Jlabi5oAnBdFKrACLWmPvE/PtIUnmsEsUVjJWDoklKsdmmkBDxixzVQ2rXr9FttLwV9KACER6EKjJibAuxGV6246UunpxoADEVSpv9SqAKPWjWc8uu40VTLZolAllGoAiPmpgd1DacAn/hF6hpTgIGhGu8lo7Nnt8UbaOCM65h/eKzBQHvmM9Pt54Cso1AFYsBNE3LThays74jsH2oAELmkbFHT7SSrQzEQFdct3/KkrtuGhim/gC0KVSAGcvmS+Quc9XQmAE+XlC1qekz9BQLWW7r1ln+ScmNWEwALFKpATDQnP5TW9Ceawts7FNnY0QAgUhMJKVQ77bIeAdm17Roo7WkwUO3cZDQViACFKhAj3cU7UijarXVzZ4zdmlUA0RpLSNffHlN/AVkznnHUW7rjfzbc3wZAgEIViJFyc870rKzr/mu5iTmAi413E9JMiam/yDh3Ate0gdLsF1Iff0cTAEsUqkDMeEuusdINTeG5fVX3DjQAiERSpv6yRhVZ5grUtS0NBorlNlN+gQhRqAIxk8sVgmLVEo2VgGiNd5NRAPY6rFFFdllP+XWv1eX6lCYA1ihUgRhqTrwvrZnPNIW3fySybngWGcCjJhKyjyprVJFV27uDJkpW6t1XxFv4QROAKFCoAjEVNFYqNTSF5zY2Pz7RAMDUeEKm/nbbTP1FNq1u64ERpvwC0aNQBWKq3JgxfSHs9wdNJADYKxXzsV//WSjkxGN7GmTQmv/ad3SkwUBn7mupj72pCUBUKFSBGOv6hWrNe1FTeK6x0q7h1CcAD8V9VJVpv8iiQ79AdTOKrBQrXeku/aQJQJQoVIE4y+XEW/hRg40VRlWBSIzHfJ3qmMe0X2SP9Wted+m2FKs9TQCiRKEKxFxj4l3pzH6hKTx3dtmyPT+AgYmYd/5lD1VkjWugZDmLqN57XTrz32kCEDUKVSABvKU7Uiy3NIXn1qpartcBEP/Ov2MUqsgYyym/jvXWcQCejUIVSIBSbTIoVi1Zv4ADWTcR9zWqTP1Fhrgpv0fHGgx4C99LvfuaJgDDQKEKJITbr63mvaQpvO29wbQoADbGx+I+okozJWSDW+JiuXd4qTYu3qLtyWIAz0ehCiRIl1FVILbGvXgXgl1GVJER1luxudfeYqWjCcCwUKgCCVIfe0s6c19pCs9Ni2JvVcDGZMxHVONeSAMWtvdysmPYQKnhv+62Z+1edwFcHoUqkDDe4m3TM7uuA7CbJgUgnIle3NeoUqgi/VY2+npko7vMnqnAqFCoAglTqk0ExaolpgAD4cW9UB3rlPUISKeVDZHjEw0Guos/SrXzoiYAw0ahCiSQt3BLat1XNIW3syeyRWMlIJSJbsybKcW8KzEQxoFroLStwUC5Mc1oKjBiFKpAQtk3VspJ33bGFJApuVy891Idp1BFiq0Z91twXX7zxYYmAKNAoQokVL33hnTmvtEU3vFxX1Y2qVSBMCZjPP23x/Y0SKmt3b5pA6Xm5HvSnvlcE4BRoVAFEsxbco2VuprC29jOyT6NlYBri+s61V6nIoVCThOQHm4m0Oqm3e92Lpdnz1QgJihUgQQrVcek6xerllY39ADAlcV1i5oxOv4ipVznetMGSks/SbV9QxOAUaJQBRKuM/+dNMZe1xTe3gGNlYDrimtDJRopIY1cAyVXqFqpNOeCmUoA4oFCFUgB62lKrsX/6akGAJc2MR7PQnXcq+gRkB6rxg2U3GhqvsBJHSAuKFSBFKh1XxVv4XtN4Z34Rar1GwAgCyZjOnLJiCrSZntXZNeygdLUR/7Hx5oAxAGFKpASbq1qqTauKbyNncE0YACXNxHTNarjrFFFirgGSiuGJ1PzhbJ0F5nyC8QNhSqQEoWyZ/5Cy6gqcDVTMe36OxbjbXOAq1o1bqDkLd2RSmtRE4C4oFAFUqQ997U0xt7UFN7+oduyRgOA52JEFYjWgf+6tG7YQKnaXmY0FYgpClUgZdyZYUtuVNXyzDWQZhO9mBaqrFFFSrjRVEueX6Tm8iVNAOKEQhVImZr3sv/C+4Om8E6DzdQ1AHimRq0orUb83vRSqCINNo0bKLWmP5Xm5AeaAMQNhSqQQm4aU6k2oSk8t68qjZWAy5mM4agqhSqSzp00XdvQYKBQrEnXeAYSAFsUqkAKFcpt8xfg+4ZvEIA0i+M6VQpVJN2aW4ZiuL+3WyZTbsxqAhBHFKpASrVnv5TG+Nuawjs88t8oGK8NAtJoaixeRWGtGs/pyMBl7R+IrBs29qt2bjKaCiQAhSqQYq5JhCW3VvXoWAOAC03GbESVjr9IuhXjk6SDLr+5QQAQWxSqQIrVvJf8YvVHTTYsN1kH0mgqZoXqBHuoIsE2dgYjqlbaM3+SxsS7mgDEGYUqkHK95Z+k3JjWFN7Onsi2/wHgYnHbooZCFUkVNFAyPDlaLLfMt3ADEB0KVSDl8sWG+VoctqsBnm5yvK5H8TBOoYqEWt0QObFuoFSf0gQg7ihUgQxoTX8uzcn3NYXn1qkyBRi42FTMCsMJL35diIHncVuiuWm/VoKlMAt2e4wDiB6FKpARblQ1ly9qCm99S+TgSAOABybHY9ZMKWZdiIHLsJzy69DlF0geClUgIyqtZfMXasvN14G0mIzZGtW4/TzA82zuiOwdajDQmftK6mNvaQKQFBSqQIa47WoqrQVN4e0ciGwZTs0C0sDtWdqo2c1eCGu8y4gqksOtSbVcWlKsdMy3agMwHBSqQIbkCxX/Bdu4sdKWSN+w2QWQBnHaS5Wuv0iSlQ2RU8sGSn6RWqpNaAKQJBSqQMa0pj6S9vQnmsI7PrHfjB1IuqkYdf6NU9EMPMveQU62djUYqHVfEW/hliYASUOhCmRQZ/GOFIp2b143tkX2DdcTAUk3FaMGRhNM/UVCrG709chG13gGEYDholAFMqjSnDNfs8PeqsBDcRnFbDfLUqvGZ70s8DTr233ZN+wk35n7Rupjb2gCkEQUqkBGeUs/Sa1zU1N41nveAUk2ORaPqb+MpiIJ3BKS1a2cpvBK1Z7/GkcDJSDpKFSBjMrlcvajqhuDjo1A1k3HZC/VuO3pClzEzcixbMrnitRSdUwTgKSiUAUyrDHxrrRnv9AU3ml/0LERyLq4TP2dpOMvYm5v37aBUn3sdenMfasJQJJRqAIZ1126I8VKW1N47g3H7oEGIKNiM6JKx1/E3MomDZQAXIxCFci4Um3Sfm9VGish46biUqj2KFQRX2vbIgeGDZS8he+l1n1VE4Cko1AFEOwz5/abs3Jw6Do4agAyKC4F4gSFKmLKNVBaMzypWaqNmfddADBaFKoAAt2ln/TIhmusdOS/EQGyyG0J06yXNI0OzZQQVyuugZLhrF835bdY8TQBSAMKVQCBeu916czbNaBw7z9csQpk1VQM1odO0UwJMbSzJ7Jt2ECpMfamtOe+1gQgLShUATwQNFYybOm/7b8Z2d3XAGTM9OTo91KdoJkSYmh1Sw+MeP5rF4D0oVAF8ECx0g2KVUtsV4OsmotBoRqHUV3gvHW/SD00baB0S2rey5oApAmFKoBHdOa+lsbYW5rCOzymCzCyadRFYqVckHazrAkYvSP/9cCtTbVSqk2Yn1wFEB8UqgCeYP3Cv7Y1eIMCZMnUxGhHVBlNRdxYFqmOe60qlO32AQcQLxSqAJ5Q9V6S7uKPmmzcZwowMmZ6bMSF6ogLZeA810DJfVhpTrwj7dkvNQFIIwpVABdy29WUG9OawnNNlbYMuzwCcTc1MdoRzRm2pkGMmDdQYs9UIPUoVAFcKF9q2DdWMt43D4iz6REXipNM/UVMuOUflg2Uuku3pdp5UROAtKJQBfBUrenPpTn5vqbwTk7sz6oDcTXqqb+jLpQBx7qhnpvp012kgRKQBRSqAJ7Jjarm8kVN4bmtCQ4ONQApNt6r6tFoTI64UAYc667vrkh1M34ApB+FKoBnqrSWI5kCDCBaU4yoYsTsGyi9J62ZzzUBSLtc36fHAHCh/smh/It/8DfkYOuf6zXhTXgibU6KI+X+jb/2P+vR8P21f/dt+fjtSU3A8P3Fn0WOTjSElMvlZO6Dvy7V9gt6DYC0o1AFcCnbd/+e/Pmf/FeawivkRRanRPLM6wCA1HFTfl0TJSuuE/3YzX9FE4As4C0igEtpTn4orelPNIV3cmq/dgkAMHquw69lkVpuzJovQQEQfxSqAC7NW7wjhaLdureNHZG9Aw0AgFSw7u7uitS84WsPgGSgUAVwaZXmnPlZbUZVASA9tnaNGyhNvi+t6U81AcgSClUAV+It/SS1zk1N4e0fDrasAQAkm2t6YnnyMZcrBDN5AGQThSqAK/MWb+uRDTdN7NioMyQAYDRWN2yfy7vLP0m1vawJQNZQqAK4ssbEu9KZ+1JTeK73OHurAkByuQZK69saDFRaC9JlNBXINApVANfiRlWLlbam8LbduqZ9DQCARFnZ0AMjXf81JlcoawKQRRSqAK6lVJs0XztEYyUASJ6tHZFdww7uramPpDn1sSYAWUWhCuDavIVbUu+9qik8N3XMelsDAEB0+pIzPcmYL5TFY89UAD4KVQChWI+qrvlveI6ONQAAYm1loy/HpxoMuNeUSnNBE4Aso1AFEEq997p05r/VZIPGSgAQf257sQ3TBkpL0l2y7SoPILkoVAGE1l26I6XauKbw3GbxlhvGAwDsWfcVcEVqLl/SBCDrKFQBhFasdM33VmVUFQDiyzVQ2rNsoDT9iTQnP9QEABSqAIx05r6W+thbmsJz61TpAgwA8XNqvPd1vlAx73cAIPkoVAGYcVOALa1tiRwcaQAAxMLqhsiJYQOl7vLPUmnOaQKAAQpVAGZq3kvSXfxRkw33hggAEA9BA6UdDQaqnRv+6wYNlAA8iUIVgCl3Zrxcn9YUnttEfmtXAwBgpKz7B3TdlN8cb0cBPIlnBgCm8sW6+RRg98bIrYkCAIyO24pm37CBUnvmc2lMvKcJAB6V6/v0GADM/Pmf/JeyffcfaAqv3RCZ8DQAI/Lf/K1/Kv/Rf/q/akqPm4tt+Xv/w1/RBDzJrUn9iz/bnTQslOoy98F/bDoDB0C6UKgCiMTB1v8j/+Lv/w3pn57oNeHNT4hUyhqAEXCF6n/wn/wdTenx1ss9ClU80701kU3DZRhjL/6VwbRfAHgKpv4CiESltSzdpZ802bhHYyUAGDo33deySK12blKkAnguClUAkXGFaqW1oCm8A9dtclsDAGAozBsoGfcxAJBOFKoAIpPLl8xHVVe2RE7sZhMDAJ4haKB0qMFAe/YLaYy/owkAno5CFUCkmpMfSmv6E03h9U8HxSoAIFqugZLlaGqh1GTPVACXRqEKIHJuVDVfrGkKb2tHZHdfAwAgEq5ItWy56ab8lupTmgDg2ShUAUSu3Jg1X5O0arxmCgDwkDsZ6E4KWql3XxZv8UdNAPB8FKoAhsKNqtY6NzWFd3AkssYUYACIhHUDJY8uvwCuiEIVwNBEMap6dKwBAGDCnQQ8PNJgoDP3tdTH3tQEAJdDoQpgaOrj70hn9ktNNqzP+gNAlrkGSmuGz6vFSke6SzRQAnB1FKoAhspbuuO/cWlrCm9nb/ABAAhvZV3EsH9SMJOmWB3XBACXR6EKYKhKtQnztUqMqgJAeEEDJcMTf/Xuq9KZ/14TAFwNhSqAofMWbkm996qm8Nw6VboAA0A4Kxt6YMTNoAGA66JQBTASnvGm70HzDxorAcC1rG3lTJ9DO/PfSL33uiYAuDoKVQAjUe+94b+R+VaTDevRAADIgqMTNyvFbmVqsdKVLtvRAAiJQhXAyLi9VUs1uyYbwfqqXQ0AgEtZNT7JN2ig1NMEANdDoQpgZIoVz3wK8MpGX/qWLSsBIMXcCb5twwZKjTH72TIAsolCFcBIWW8Ef3Kak/tMAQaAS7F+vuws/KhHABAOhSqAkXNTgC1t7ojsH2oAAFzIrUt1XdOteAvfS733miYACIdCFcDI1byXpLtoexaevVUB4Olcgeo6/Vpx/Qbc2lQAsEKhCiAWuss/S7k+rSm8/QOR9R0NAIBHWE/5dUVqodzRBADhUagCiIV8sW5+Nn7NfyN2cqoBABDY2R80UbLSGHtL2rNfaQIAGxSqAGKjNfO5NCff1xTeaZ+9VQHgcdbPi96Sbfd2AHAoVAHEihtVzeULmsJz+6q6acAAANdAabA+1Yq3+IPUvJc1AYAdClUAsVJpLZt3Ab7HqCoAyGHQQEmDgVJtQrqLNFACEA0KVQCx4wrVSmtBU3iHRyLrhm/OACCJrKf8uufqQrmlCQBsUagCiJ1cvmQ+quq2qzk+0QAAGbO927dtoDT+trRnv9AEAPYoVAHEUnPyQ2lNf6LJBo2VAGTVyqbdnqmOx5RfABGjUAUQW66xUr5Y0xTe9p7Ijv8BAFniTtJZzihxz80170VNABANClUAsVVuzAVviCy5KcAAkBXBGv1tDQbKjWnz52UAuAiFKoBYc2tVq52bmsJz2zK47RkAIAvumzdQcjNd6poAIDoUqgBiz/rsvdue4fC4rwkA0sntI71nuI90c+I9aU1/rgkAokWhCiD2GuPvSGf2S002VjZsG4sAQJz0+9YN5PriMeUXwBBRqAJIBG/pJymW25rCc9s0uO0aACCNXJffk1MNBrrLv0i1fUMTAESPQhVAIpRq48F6VUvBqCq1KoCUOTgS2di2e3IrN2alu3hbEwAMB4UqgMToLHwv9d6rmsI7PnWNRqhUAaTL/XXb57VBAyW7rcIA4DIoVAEkimd8Vn9jJycHhxoAIOHcSOr+od0a/ObkB9Ka/lQTAAwPhSqARKn33hBv4TtNNthbFUAa9E8Ha1Ot5PJ5867rAHBZFKoAEsdb/ClYs2rFbd+wsaMBABLq3sag26+V7uLPUmktaQKA4aJQBZA4xUrHfArwqv8G75TlqgASav9osG+qlUprQbwlGigBGB0KVQCJ1Jn7Whrjb2kKzxWp99c1AEDC3F/TAyNBA6VCRRMADB+FKoDE8hZt10650Qg3DRgAkmR9e7AljZXW9MfSnPxIEwCMBoUqgMSqeS/5xeqPmmzQWAlAkpyeiqwaPm/l8kXpGp8EBIDroFAFkGi95V+k0pjRFJ7bqmZtSwMAxNx94wZKveWfpdyc1wQAo0OhCiDR3Cb05o2VNkVOTu22eACAKOwfWDdQWjJfUgEA10WhCiDxWjOfS3PifU027q3RAhhAvLnRVEuugZKb+gsAcUChCiAVuss/Sb5g9wZrZ19kd59RVQDx5JYo2DZQ+lSakx9oAoDRo1AFkApRTFm7v8moKoD4OTn1C1XD56d8sSJd9kwFEDMUqgBSo7v0c7BJvZWjI7oAA4gft+dzX+xmfHQXf5JyY04TAMQDhSqA1Ai2VVj6SZON9S2/YD3RAAAj5vZ63t7TYKDauSHeEg2UAMQPhSqAVGlOfiit6U802XCjFwAQB9bPR+7kXi7H20EA8cMzE4DUcW+83LY1Vnb3RTYNt4AAgOtY3RI5PNZgoD37J2mMv6sJAOKFQhVA6pQbs36xajuVbc14GwgAuIqTE9dASYMBdzKva7wHNQBYyvV9egwAqfIv/v7fkP2Nf6YpvE6jL+MeW9Zk2d/9h3/I4dGppnT5+qMZPUIc/XlVZMdwber4i/+qeBSqAGKMQhVAau3c/0fyl//4P9dkY3FSpFTSAABDsHsg8pf3NRiodm7K/Ad/XRMAxBNTfwGkVmP8HenMfqnJxj2mAAMYsigaKAFA3FGoAkg1b/knKZbbmsJzW0Ns7GgAgIitboocmTZQ+lIa429rAoD4olAFkGql6rh5Y6XVYFSVtaoAonV83Je1LQ0GCuWm/3zIulQAyUChCiD1Ogu3pN57VVN4p32Ru2ss7wcQrXsbtifEuos/Sak2qQkA4o1CFUAmeIu2o6pbuyL7hxoAwJhroOT2cLZS777sPw/+oAkA4o9CFUAm1Huvi7fwnSYb92msBCAi94xnbXTYigZAwlCoAsiM7tLPUqqNawrv4FBM148BgLOyKXJ8YjfttzP/tTTG3tIEAMlAoQogMwrltn1jJf8N5cmpBgAIyXX4XTdtoNSSrvHSBwAYBgpVAJnSnv1KGuO2IwvWexwCyC7rJQW95V+kWB3TBADJQaEKIHOsGytt7w32VwWAMFyTNtsGSq9KZ952bT4ADAuFKoDMqXkv+cXqj5ps3GNUFUBIgz2a7XjGSx0AYJgoVAFkkpsOV27MaArPrStz61UB4DpW/CL12HC9e2f+26DbOQAkFYUqgEzKF2viGW/X4DoAH/sFKwBcxdGRyPq2BgPFqmfeOA4Aho1CFUBmtWc+l+bE+5ps3GNvVQBXZP280V38WYqVriYASCYKVQCZ1l3+WfL5oqbwXCOUzR3bjfoBpNfmjm0ztsbYG9KZ/0YTACQXhSqATKu0Fs27AK9u2m3UDyDdrNe2Wy9pAIBRoVAFkHm9G7/4BeuCpvBOTtlbFcDzuecJ93xhxVv4XmrdVzUBQLJRqAJAriDdpZ802NjYETk80gAAj3HPD+55wkqp2jOfHQIAo0ShCgC+5uSH0pr+RJMN9lYF8DTWzw9uvX2x0tEEAMlHoQoAyu2t6ratsbJ/aDtiAiAd1v3nBff8YKUx9pa0Z7/SBADpQKEKAKpUnzbfe3B1Q4QewAAe8J8Q1qy3o2HPVAApRKEKAOe4tarVzk1N4Z36b0rvrWkAkHl3/SLVPS9Y6S7+KFXvJU0AkB4UqgDwGOvRia1dkYMjtqwBsu7gyH8+MFwOUK5PiLfEdjQA0olCFQAe0xh/R9qzX2qycW+NCcBA1t01bqDkLf0khVJLEwCkC4UqAFwg6KBZbmsKz42krBlv7A8gOda3RA4NGyg1J96R9swXmgAgfShUAeACpeqYfWMl/42q5do0AMnQ9//du3//ltgzFUDaUagCwFN0Fm5JvfuqJhs0VgKy5956LihWrbiTaJZN3wAgjihUAeAZXBdgS9t7tvsnAog3N913a9euSi3Xp8RbpIESgPSjUAWAZ6j1XhNv4TtNNu6u6gGA1PvDuIGSWz9fKDU0AUB6UagCwHN0l3+RUm1MU3hHJyKrNFYCUi9ooHSkwUBz4j1pTX+mCQDSjUIVAJ7Dbf9gPQV4zX8De+wXrADSyTVOWzE+IWX9PAQAcUahCgCX0J79Shrjb2mycXedFsBAWlk3Tust/yKV9rImAEg/ClUAuKTu0s96ZGNvPydbOxoApMb+waBxmpVKc1a8JRooAcgWClUAuCS3HUTX+M3iivHeigBG755xAyVv6SfJF6qaACAbKFQB4Aq6S79IuTGjKbyTE/s3tQBGxzVKOzzWYKA19aH/8YkmAMgOClUAuIJ8sWq+h+HmjsiR4RtbAKNxetoPGqVZyeVy7JkKILMoVAHgitozn0tz8gNNNu4aN14BMHx313J6ZMNtjVVpLWkCgGyhUAWAa3DbROTzRU3h7R+KrG9rAJA4ewciO/saDFSac+It3tEEANlDoQoA11BpLZq/iVwz3nMRwPDYN1D6WfKFsiYAyB4KVQC4pt6NX6XaXtQU3mnf7a2qAUBiuAZKluvMW1Mf+x8faQKAbKJQBYDryuXNR1XdvqoHRxoAxN7JqZg2UHJLCrpLTPkFAApVAAihOfmhtKZtt46gsRKQHNb/Xl0DpXJzXhMAZBeFKgCE1PPfWBZKdU3hHR6JrBqO0ACIxuauyK5hAyW3lMBjNBUAAhSqABBSqT5tvteha6zU72sAEEvWDdBcA6VcrqAJALKNQhUADLjtaqqdm5psWO/JCMDO/XWR4xMNBlrTn0pz4n1NAAAKVQAw0lv+SY9sbO/1g/1VAcSLK1A3djQYcNvQ0EAJAB5FoQoARupjb0t79gtNNmisBMRPJA2UGrOaAAAOhSoAGAoaK5XbmsJzezO6PRoBxMPmjsjegQYD1faydI23uQKANKBQBQBDxeqY+RQ+t0ej26sRwOhZnzjqLv0skmM9OgA8jkIVAIx5C7ek3n1Vk40/VvUAwMjcW7c9adSe+ZM0Jt7VBAA4j0IVACLQXf5Zj2y4qYZuz0YAo3FyMpj2a6VQrJpvawUAaUKhCgARqHVfFW/+O002Vjf0AMDQ/aXxrIbu8q9SbkxrAgA8jkIVACLSvfGLlGpjmsJzUw7d3o0AhmtjJycHhltFVTsviLf4oyYAwEUoVAEgIoVSS7qLtnurur0b3R6OAIZndaOvRzZ6xksDACCNKFQBIELtua+kMf6WJhs0VgKGxzVQOjWsU91ey27PZQDAs1GoAkDE3Gb+lvYPRTa2NQCIjNvH2LSBUqku3SXbWRYAkFYUqgAQsWr7Bf/NqW13zxXjvRwBPOmPNT0w4hoolWoTmgAAz0KhCgBDMOjwOaMpvH6fKcBAlNa3xbSBUs17KdhjGQBwORSqADAE+ULFfMrf9p7I4ZEGAKZWjWctMOUXAK6GQhUAhqQ1/ak0Jz/QZINRVcDe3bVcMGvBSmfua6mPvakJAHAZFKoAMETdpZ8lny9qCu/wWGRtSwOA0Ny/qa1duyq1UGqKt3RHEwDgsihUAWCIKq0F8ymAboqi5egPkGXWsxR6N36TUnVMEwDgsihUAWDIXGOlamtRk40/G3cnBbLIzU6wXPdd674inflvNQEAroJCFQCGLZcTz3hUdXdPZHtXA4BrsW6g1Fv+WY8AAFdFoQoAI+CaKrWmP9Fkg71Vgev784oeGHEjqbXua5oAAFdFoQoAI9Jb/lUKpbqm8I5PKFaB6zg4EtnZ12CgWOlIlwZKABAKhSoAjEipPiXe4m1NNta3RE5orARcyd3VnB7Z6C7/4herXU0AgOugUAWAEXIdgKudm5ps/LFCpQpc1tqm25LG7t9MvfeadOa+0QQAuC4KVQAYMeuGK3sHOdnc0QDgqdy2TqvG+xC7vZIBAOFRqALAiNXH3pL27BeabFh3LwXS6M/Ge6Z6C7eCLWkAAOFRqAJADASNlcptTeGdnIrcW7dddwekidvOade0gVJXvCXbNecAkGUUqgAQA8Vqzy9WbfdW3dzpB52AATzJetZB0ECp3NEEAAiLQhUAYqIz/73Uuq9qsvGH8dRGIA1ckXpkeBKnPvaGdOa+0gQAsEChCgAxYt1Yaf9QZH1bA4BgWvyacQOl3vIvegQAsEKhCgAx4kZUvfnvNNlY3dADAPLHmu32Td7ij1LtvKgJAGCFQhUAYqZ741cp1cY0hefelt9dGxwDWba1K7K3b9dkzP077S7d0QQAsEShCgAxUyg1/Te/to2V3Bv0wyMNQEZZzy7oum7d/r9XAIA9ClUAiKH27FfSGH9Lkw0aKyHLVvwi9fhUg4HG+NvSnvmTJgCANQpVAIgpt92FpcNjkTXjLTmAJHDbNFk3Fesu2TY+AwA8ikIVAGKq2n7BfzN8W5ON1S2RU8NRJSAJ/jBeo+2m5lc7L2gCAESBQhUAYqx34zcpN2Y02bi7rgdABmzu5GT/QIOBUm3C/AQSAOBJFKoAEGO5fNm8sdLO3qC5EpAFq5u229H0ln+VfLGuCQAQFQpVAIi51vSn0pz8QJMN11gGSLv76yInlg2UJt6V1sxnmgAAUaJQBYAE6C7/LLl8UVN47s37fYpVpNjRscjGjgYjPf/fIQBgOChUASABKs0F8ynAG9uDbqhAGpk3UPKL1EprWRMAIGoUqgCQEL0bv0q1tajJxl32VkUKuZMwB4caDJQb09IzPlEEAHg2ClUASIyceMZ7N+75b+Y3jadHAqO2arxfsGuglCtUNAEAhoFCFQASpDn5vrSnP9VkY8X4TT0wSnfXRE4NG/26RmbNqY81AQCGhUIVABKmu/yLFEp222OcnrK3KtLh8Mh666W++dpwAMDlUKgCQMKU6lPiLd7RZGNrZ/AmH0gy6xMuvRu/S8V4XTgA4HIoVAEggbpLd6TmvajJhpsyCSTV+pZ1A6XZ4N8ZAGA0KFQBIKG6xo2VDo78N/vbGoAE6fcjaqCUL2kCAAwbhSoAJFR97E1pz36hycbKhm0jGmAY3GwAy1/b5tSHwQcAYHQoVAEgwcZu/C7FSkeTjXtMAUaC7B+KbO9pMJDL5c1nKwAAro5CFQASrFDxzLuSujf9ewcagJi7Z9xAqXvjN6k05zUBAEaFQhUAEq4z/53Uuq9qsnF3nfm/iD+3LtWyW3WltSA9GigBQCxQqAJACvSWf9EjG8fHuWC9KhBXbi312pYGI8G/o1xBEwBglChUASAFat1XxJv/TpMN1wH4+EQDEDP31nJ6ZKM1/Yk0Jt7XBAAYNQpVAEgJt7auVB3TZMN6/R9gwa2h3t6zm56eyxdpoAQAMUOhCgApUSg1pLts+2Z7d19ka0cDEBPWnald9+xyY0YTACAOKFQBIEXas19KY/wtTTZWjNcBAmGsbIocGU5Jr7SWxFu6rQkAEBcUqgCQMt3lX/XIxolfFNzfsF0PCFyHWzO9bt1A6YZrRMbvNwDEDYUqAKRMtX1DusYjRBvbfdNtQIDruG+8Zro185k0xt/VBACIEwpVAEihXgRr7u7SWAkjtLUrsrOvwUC+UKGBEgDEGIUqAKRQLl8yb6x0cDjYsgYYhdVNPTDSu/GblOtTmgAAcUOhCgAp1Zr6RJqTH2iy4YqFvt2uIMCluAZKlnv6Vjs3xFv8URMAII4oVAEgxXo3fg32iLTiilT2VsUwuQ6/5g2UjBuOAQDsUagCQIqVG3PSXfpJkw23VnD/UAMQsfvGe6a2Z7+Q+pjtFk4AAHsUqgCQcm4tXqW1qMkGo6oYBndSZPdAg4F8sUYDJQBICApVAMgA6zfnbquaNePpmMDjVjb0wMjYjd+kVBvXBACIMwpVAMiA5uT70p7+VJMN11jp9FQDYOyeX6SeGP5+VTs3pbNwSxMAIO4oVAEgI7o3fpVCqa7Jxh/G6wcB5/BYZNN4KyTXWAwAkBwUqgCQEaXapHiLdzTZ2N0ffACWrNdAd+a+knrvDU0AgCSgUAWADOku3ZGad1OTjfs0VoKhjR2RfcMGSoVS07zzNQAgehSqAJAx3aVf9MiG2+fyvnHTG2RU36199j8ZclN+i9UxTQCApKBQBYCMqY+9KZ25LzXZ2NgWOT7WAFyTa6B0eprTFF6t+7J05r/TBABIEgpVAMig3vJvUqx0NNm4yxRghHB4KLK5o8FIb5kGSgCQVBSqAJBBhYpnvm5v78C+0EB23DWePu7Nfyu17quaAABJQ6EKABnlpkRav5F3e6u6dYbAVaxvixwcajBQKLdooAQACUehCgAZNma8t+TJqVtnaLfGEOl36v/OBCc4DI3d+D2YNQAASC4KVQDIsKr3sngL32uysbnTD9YbApfhGij1DUfh3SyB9tzXmgAASUWhCgAZ113+VUrG23dYrzdEOu0f5mR7V4MRtx0NACD5KFQBIOMKpYb5m3u33nBtWwPwFPfWbRc0ewvfSc17WRMAIMkoVAEA0pr5kzTG3tJkY21zsGYVuMjqlsjhkQYDxaCT9c+aAABJR6EKAAh0jUdV3brD++ytigucnAxOZFjq3fhNCuW2JgBA0lGoAgAC1fYN6S7d0WRje2+wvypw3n3jNcyNsTekPfulJgBAGlCoAgAecKNS5caMJhuMquI8d+LCncCw5DHlFwBSh0IVAPBALl+S7vIvmmwcHtvvk4nkumt84qK7+IPUvJc0AQDSgkIVAPCI1tTH0pz8QJONtS2RI79gRba5ExbHhr8HxWqPBkoAkFIUqgCAJ7gpwLl8UZONFaYAZ9qRa6C0pcHI2I3fJV9qaAIApAmFKgDgCeXGrHSXbUeqdg78j30NyBzrtcpuO6XWzOeaAABpQ6EKALhQb/lXqbQWNdmgsVI27e4PPix1b9iupQYAxAuFKgDgqXrGe6senzAFOIvuWTdQWrot1fYLmgAAaUShCgB4qsb4u9Ka/lSTjfUdkYMjDUg9t2eqO0FhpVSboIESAGQAhSoA4JlcY6VCsa7JxopfvCD9Do9ENrY1GHG/j/liTRMAIK0oVAEAzxSMYBk3Vto78AuYnZwmpJX1CYnmxDvmI/wAgHiiUAUAPJe3+KPUvJuabKxu9OX0lGI1rbZ2RXYPNBjxlmigBABZQaEKALiU7rJtY6XTvsjKpv8J6RP83eqxkd7yz1JtL2sCAKQdhSoA4FLqvTekPfulJhubO4NpwEiXexsiJ4YNlMr1KfGWftIEAMgCClUAwKWNvfC7FCsdTTZorJQuB4eDExCWggZKhYomAEAWUKgCAC6tUO6Ybw3itqpZ29KAxLOe8tuceE+aUx9rAgBkBYUqAOBKOvPfSr33miYbq35xY7nXJkbDbUVjPZW7e8N2bTQAIBkoVAEAV9YzbqzkrGzQATjJXHOsVeOR8Z5fpFaaC5oAAFlCoQoAuLKq95J4C99rsrG915edfQ1IHLfW+PRUg4FKY1a6NFACgMyiUAUAXEt3+Tcp1cY12aCxUjLtH/bNGyi5Kb+5fEkTACBrKFQBANdSKNWlt/yLJhtHx/bNeBC9+8bTtltTH0pz8kNNAIAsolAFAFxba+ZP0hh7S5ON9S2RQ79gRTKsbw+2pDGTy0l3yfYECAAgeShUAQChdG/8pkd27q/rAWLt5NR+BHzsxu9Sbs5pAgBkFYUqACCUantZesu2TW/cFiebO31NiKtgTbHhX1PFL1C9pTuaAABZRqEKAAjNNVYqN2Y02VjdzEmfWjW2dvdFtnY1GOnd+F1yuYImAECWUagCAELL5Yt+sWq7rtBNK71PF+DYsp7y25r6WBoT72kCAGQdhSoAwIQrNJqT72uy4bY82bds1AMTq67h1ZEGA/l8UXo3ftUEAACFKgDAUDB10y86LNFYKV6Oj0XWjEdT3Z6ppfq0JgAAKFQBAIbKjVnpLv+sycbB0WDLGsSD9ZTfamtRuku2vzMAgOSjUAUAmOot/yoVv/iw5KaanpxowMjs7PVle0+DkSi2NwIAJB+FKgDAnPV6Q9f99/4GLYBHbWUrp0c22jOfSWP8HU0AADxEoQoAMNcYf1da059psrG9lwu2RMFouCm/R5YNlAolpvwCAJ6KQhUAEAk3qloo1jTZWGG7mpE4PO6brxN2jbdK9SlNAAA8ikIVABCJUm0i6OZq6fBYZHWTKcDDtrppO+W32l4Wb/G2JgAAnkShCgCIjLfwg9Q6NzXZWNvKBSN8GA7XPGnHuoHSMg2UAADPRqEKAIiU9aiqs7phO8KHp1sxHk1tz/xJGuNvaQIA4GIUqgCASNV7b0hn7mtNNnb2RbaMR/nwJNdp+dhw9LpQrErvxi+aAAB4OgpVAEDkXGOlYqWjycbqhggTgKNzcCSysW07mur2TC1WxzUBAPB0FKoAgMgVyh3pLtmOpB2fDIpVRGN1Uw+MuLXKbs0yAACXQaEKABiKzvw3Uu+9psnG+vZg5A+2tnbEfM9aN5oKAMBlUagCAIamF0Gxwt6qtvp910BJg5HO3JdS772uCQCA56NQBQAMTbXzongLtzTZ2DsQ2dihC7CV+37hf3KqwUChVDef9g0ASD8KVQDAUPVe+F1KNduGOqsbfdPiKqv2D0U2dzQY6d34XYrVniYAAC6HQhUAMFT5QlV6y7Z7q5727Zv/ZJH1lN+a95J05r/TBADA5VGoAgCGrjXzuTTG39Zkw40EumnAuB43fXrf+L9f94btCQkAQHZQqAIARqK7TGOluDg5zQXTpy115r6Wete2yzMAIDsoVAEAI1FtL0lv+WdNNtxWNWtbGnBpK5v9YPq0lWK5JT1GUwEAIVCoAgBGxu2tWW7MaLLh1qoeHWvAc7np0m7fVEvu77VQ7mgCAODqKFQBACOTyxWka9xYyVllCvClrRhP+a13X5HO3DeaAAC4HgpVAMBItaY+8j8+1GRje19kZ08Dnmp9y02Xtt2D1o2mAgAQFoUqAGDkXGOlXL6oyYb1Vitpc3xiv6WPt/Cd1LyXNQEAcH0UqgCAkXPrVLvLv2iy4dap0gX46VyRajnpt1jpSHfJ9u8QAJBdFKoAgFjo+YVqpbWoycb69qATMB61sy+ytavBSO/G71IotzQBABAOhSoAIDZ6EaxvZFT1SdZTfuu916Q9+6UmAADCo1AFAMRGY/wdac98pslGsP3Krm3DoCRzReqh8ShzFCcYAADZRqEKAIgVN4U0X6xpsrGy2ZdT211YEsmt213b0mDEW7gl1c6LmgAAsEGhCgCIlWJ1zC9WbfdWPTlhCrCzumk7slyq9sybYAEA4FCoAgBix1v4QWqdm5psbO4MpgFn1fae+7AdVu7e+FUKpYYmAADsUKgCAGKpG0VjpQzvrWrdQKkx9qa0Z77QBACALQpVAEAs1XuvS2f+a002Dg5F1o3XaCaBm/bs1qdaooESACBKFKoAgNjqLf8mxUpHkw03snh8oiEDXIdft5+spe7Sbam0b2gCAMAehSoAILYK5bZ5sx63SjNLU4DvGzeRKtXG/EL1Z00AAESDQhUAEGuduW+k3ntNk43tXZGdPQ0ptuX/Oa0bSHWXfzPfPggAgMdRqAIAYi+K9ZDWzYXipt+PoIHS+NvSnvlcEwAA0aFQBQDEXrXzongLtzTZODxO9xTgKNbi0kAJADAsFKoAgETovfC7lGrjmmy4DsCu2VDa7EfSQOmOVFpLmgAAiBaFKgAgEfKFqvSWf9Vkx7rZUBysGv+ZyvVJ86ZWAAA8C4UqACAxWjOfS2P8HU02XLOhrR0NKbAZRQOlG79JvlDRBABA9ChUAQCJ0nvBfp3kypbI6amGBDuNoIFSc+I9aU19ogkAgOGgUAUAJEqluSg942moJyd+gecXq0m3sjH4s1iigRIAYBQoVAEAidO98atUGrOabGxs20+ZHSb3s28aT2HuLv8s5ea8JgAAhodCFQCQOLlcIShWrSV5b1Xrn73cmI6keRUAAJdBoQoASKTm5IfSmvpIk439Q5H1BDZWclvRuJ/dUnf5N8nli5oAABguClUAQGJ1l3+VfKGkyYbb2uXYeJ1nlNzPat5AafID85MAAABcBYUqACCxyo0Z6S7ZNlbq9wdNiZLCNYFyP7OVXM41UGLKLwBgtChUAQCJ5hr+VNtLmmxs74ns7GuIsV3/Z7TeA9ZN+S035jQBADAaFKoAgMRzxZW11c2cHsWX9ZTfSnPO/29pO0INAMB1UKgCABKvMf62tGc+12Tj8KgvazHeW9X9bAdHGox0b/wmuRxvDQAAo8erEQAgFXo3fpd8sabJhhuxPDQuBi0cBQ2UbEd8XRfl5sT7mgAAGC0KVQBAKhSrPb9YjWIKsB7EyKDZk10HJTeKOvbC75oAABg9ClUAQGp4C7ek5r2oyYZrqrS1qyEG3M+zs6fBiJvyW6pPawIAYPQoVAEAqeKmAFtzo6qWW8CE4fZ5tVRpLUiPBkoAgJihUAUApEqt+6p05r/RZOP4RGQlBlOA19ya2WMNRnrL7JkKAIgfClUAQOr0ln+TYqWjycbGtsj+oYYROPIL1FXjLsSt6U+kMfGeJgAA4oNCFQCQOoVyK5rGSluj21t10EDJTr5QiuS/EQAAFihUAQCp1J79Suq91zXZ2Nvvy8aOhiHa3h00UbLUXf5NSrVJTQAAxAuFKgAgtaLarubkRMMQuCZO1utjK60l6S7d0QQAQPxQqAIAUqvauSne4g+abJye2q8VfRb3vVwzJ0tjLzDlFwAQbxSqAIBUc9vVlGrjmmxs7ojsGk/Fvcjhoci6eQOlz6Q+9rYmAADiiUIVAJBq+UIlkinAw9iuZsW4SI3qvwUAANYoVAEAqedGERvj72iycXgkshbhFOCtCEZtu36Raj26DABAFChUAQCZ0Hvhdz2y4xoruf1Nrbl1sNajqdXODeku/qgJAIB4o1AFAGRCpbkgveVfNNlxxao1N63YurNwb5kpvwCA5KBQBQBkhpv6Wm7MaLKxvSey439Y2T/MBc2aLLVnv5D62JuaAACIPwpVAEBm5HJ5GYtgCrBlY6WVjb4e2cgXazRQAgAkDoUqACBTGhMfSGvqI0023DpVi2LVjaTuH2owMuYXqcVKVxMAAMlAoQoAyBw3BThfKGmy4fY7PTjScA1uTep949HUauemdBZuaQIAIDkoVAEAmVOuT0tv+VdNdsI0Vlr1C91+P6fJRhTTnAEAGAYKVQBAJnlLP0m1vaTJhtv3dGtXwxXsHQym/Vpqz34lte5rmgAASBYKVQBAZnUj2LJlZUPk5FTDJbmvsVQoNWmgBABINApVAEBmNcbflvbM55psuCL1KlOAw65tvUjvxq9SrHQ0AQCQPBSqAIBM6934PdjCxZKbxuum8z7P0Um4da0XqXVfls78d5oAAEgmClUAQKYVq71Ipsmubj6/MdLahohtn1+/8I5gOjMAAMNGoQoAyDxv4ZbUvJc02dg/7Mv6toYLBI2X9jQY6cx/K7XuK5oAAEguClUAAHyRjKpuiBwda3iMeQOlcitYmwoAQBpQqAIA4Kt1Xw1GJC25ab1rF6xBXdsSOXxKAXtdYzd+l0KppQkAgGSjUAUAQPWW7bvluum923sPV6IeHkXRQOlVac99rQkAgOSjUAUAQA2mz9pPAV7bfPhyu7qlB4bGXvhdjwAASAcKVQAAzmnPfiX1sTc02Tg87gcF6vaeyI5xAyVv/jupdl7UBABAOlCoAgDwGDcF2Jpbq2o95bdY8aQbwQgwAACjRqEKAMBjqp2b0l26rcnO0zoAX5ebplwoNTQBAJAeFKoAAFygu/yrlGoTmuLHTU9uz36pCQCAdKFQBQDgAvlCJZLGSlaimJ4MAEBcUKgCAPAUrelPpTnxnqb46C7+EExPBgAgrShUAQB4hriNqharPRooAQBSj0IVAIBnKDfn/WI1PtNsx278LvlCVRMAAOlEoQoAwHO4UdVyY1bT6NTH3pLWzOeaAABILwpVAACeKydjL/yux6Mz9gJTfgEA2UChCgDAJTQm3pfW1Meahq+7eFsqrWVNAACkG4UqAACX5JoY5QslTcPj9nOlgRIAIEsoVAEAuKRyfUp6y8MvGN0a2XyhrAkAgPSjUAUA4Aq8pTtSbQ9vCm5z4p1gP1cAALKEQhUAgCsa5jTc7ghGcAEAGDUKVQAArqgx9pZ0Zr/QFJ3e8s9SaS1qAgAgOyhUAQC4BjeqWijVNdkrufWwNFACAGQUhSoAANdQrHQjnZY75orUXEETAADZQqEKAMA1eQvfS737siY7zYn3pDnCPVsBABg1ClUAAEKIYlS198LvegQAQDZRqAIAEEKt+4p05r/VFF5v+VcpN+Y0AQCQTRSqAACENHbjdylWOpqur9yYoYESAAA+ClUAAELKlxp+gRl+um5QpOZymgAAyC4KVQAADLRnv5T62Buarq419aE0Jz/UBABAtlGoAgBgpHfdxkq5XKRb3QAAkDQUqgAAGKl2XpDu0m1Nl+fWuLr1qQAAYIBCFQAAQ25ktFSf0PR8leac/zW/aAIAAA6FKgAAhvKF8pWmAFs0YQIAIG0oVAEAMNaa/lSak+9perrW1MfSmHj+/QAAyBoKVQAAIvC8UdVcvii9FxhNBQDgIhSqAABEoNycl96NXzU9qbf8q5Rqk5oAAMB5FKoAAETErT+t+AXr46qtReku/6wJAAA8jkIVAIAIXTSq2r3BnqkAADwLhSoAABFqTLwvralPNIm0Zz6Txvg7mgAAwEUoVAEAiFjvhd8kly9JrlCS7vLT160CAICBXN+nxwAAICLrf/G3/c858RZvD64AAABPRaEKAAAAAIgVpv4CAAAAAGKFQhUAAAAAECsUqgAAAACAWKFQBQAAAADECoUqAAAAACBWKFQBAAAAALFCoQoAAAAAiBUKVQAAAABArFCoAgAAAABihUIVAAAAABArFKoAAAAAgFihUAUAAAAAxAqFKgAAAAAgVihUAQAAAACxQqEKAAAAAIgVClUAAAAAQKxQqAIAAAAAYkTk/wf3YQcE/JEmsQAAAABJRU5ErkJggg==;" parent="1" vertex="1">
          <mxGeometry x="1140" y="640" width="308" height="257.76" as="geometry" />
        </mxCell>
      </root>
    </mxGraphModel>
  </diagram>
  <diagram id="JBQP1F4XXJBPKAthkyAi" name="warning">
    <mxGraphModel dx="1434" dy="870" grid="1" gridSize="10" guides="1" tooltips="1" connect="1" arrows="1" fold="1" page="1" pageScale="1" pageWidth="6311" pageHeight="1730" math="0" shadow="0">
      <root>
        <mxCell id="0" />
        <mxCell id="1" parent="0" />
        <mxCell id="8OutJZYWUBNH8lELQsVd-1" value="&lt;canvas id=&quot;canvas&quot; width=&quot;5884&quot; height=&quot;1484&quot;&gt;&lt;/canvas&gt;" style="text;whiteSpace=wrap;html=1;" vertex="1" parent="1">
          <mxGeometry x="690" y="500" width="560" height="1510" as="geometry" />
        </mxCell>
        <mxCell id="8OutJZYWUBNH8lELQsVd-2" value="" style="shape=image;verticalLabelPosition=bottom;labelBackgroundColor=default;verticalAlign=top;aspect=fixed;imageAspect=0;image=data:image/png,iVBORw0KGgoAAAANSUhEUgAAAiMAAAHICAYAAACcQeptAAAAAXNSR0IArs4c6QAAIABJREFUeF7svQeUJclZJvpFRJpryntf1b5npsePPEIIkASLOZyD3/ewYnmAWGB3QXrsPvatWHZ5sBgd/CIhwWMPi3sgIaEFIWkEQjMaGKOZ6Zk21d3lvTfXZWZEvPNH3lt1u6bsrerqqq7IM3Nu172ZkRFfREZ8+cf/fz+DPSwCFgGLgEXAImARsAjcRQTYXby3vbVFwCJgEbAIWAQsAhYBWDJiB4FFwCJgEbAIWAQsAncVAUtG7ir89uYWAYuARcAiYBGwCFgyYseARcAiYBGwCFgELAJ3FQFLRu4q/PbmFgGLgEXAImARsAhYMmLHgEXAImARsAhYBCwCdxUBS0buKvz25hYBi4BFwCJgEbAI7JqMaK3pXBeAA0wxoFUDpWicGQawXZcFaLq2eKiyf9NXvFhOqTz6m/5d+nvjfba7b+k+9Fn6n+6x8Z70WzOAGWzyqYEpAK1Y/5zQQDuACQDt5fXf6t900w3tvG3wVfpbeSHblbHTSN/PtTuVXfp9D+Nj2yL3Utft7rmXcnbbxoM87zDrd1B9s5/276cOW1272zJ3c95m5+znvhVcS/PsVsde5t9SGeXz8G66rpJ77Kbc3Z5TWht2e36l523Xzv1iUH79VmvaxnqX91P5mraxH7crb6cyNq6J5XUox32z9m/2Hd1PKqCpwBgLdtMTu3kIsbS01KALc18pXP6QI6K2MCokuFaRlIq73HeZZi5jzCHCoKBKxKFUdtmkqjUHJ2KgtNYSXEnOhFJKakM2mGJQnGsmHa2ZgFaCM+EqKIeBO4ByobkAUxzgXDHJFBMAJBgTDFBQijNwBbqPZkpCcQmmIoCHDDrUmoWg7yEUdKSFFjomJ7xIUji0pr9Z/D2n88zv9Lda/2RKa644h4Q2REOB03damX9DKw6mlKZ/0++aeoe+L+GhoalMuq/5TnNuyomJk/lt7brivw2nWb/e1NicR6UUCVex2+Oy1kZr/I/br42/ia+v/KDm3VZ2WVG3D1Lq4b3eh5DY6zUbz9/svrsrd9PJ+rb6qNuIdQzEa6aSzYioGQ6bHrd9LwSNjzWEzW+VtGdn7Pc7yZo6buhfU2bZdzQ3FI+1sUDPbXzQxLGOSFwfSY9q8UWk+Dt9X3wRKtbZlGXKjuceZcqhJsfzkfm9rC5qvR6c3/7yE4/m+BrzX6lqpkxGj3TpPtQxjIFe0uh8Vuqo+HdF1yoGU74y/5lqM840JAfNU+Yvp1h3qmtc79L/8f1N2ev1MNWLz6EJxrwi0u9Km/psMqLKx9Nr5mT92vG7xbDcOD4U03G9NvTxFpe/9uvbxnmxU02BWsXAl952dRGAtb+ZAXftQVs/L67Ma/+OK7r2vYqvp8OAVnqqyvGPBw+Px85rcTV9xWhsmqmfFdcPUyJ1PhCvS/HLNXU+p/MZlCiOIS40U1wxLjQNBs24ZpozTeufAtMcmikCWWmmpVnU6G/FpTLfc6UZpCmcRjytLAxOcULnNJg0N22gRVczWpdofaIz6ToFqTlTTGupmVYxODyebeNOiFseD1m6g6D+NrXhoEHM6F9RpBk9Q4xFPC5AgkFIzr2IMXfVd6qeSbnJP2LJ+sGdRsZmg/c11yzN9b8xm1v8sAxXLwoRMsFCCLOOMoSRA03Gki2H8Pa3UDqKny4mwKiFhlzEfxNfKe/kYqfGa31MHqDBoQj54t97+eSmB83g2fL62CC01e9EBrZfKzlfX0xeC9FW88dO3bb+e4kK7P6KvZ25Pg9ufl2Mz3Zt3Nv9Dv3sHdbgrTnDtjVdGxQVXr9W+Ibr90PMdvWsHzD+29/TPLfbj+CN+G0cj9s/Xzu3RtH7xT4OVnwP2aoIqj/Na+XzEs1r8XMT84j9HDT/7eswfbC/o4xiVlyQedWjJX2Pn4ze9iq4rvQKFhOR/RxES+J1ZD+fXMfr2J4+t1n1mI7fgoXhEXtZFbde7TaWY8avYTwxXVT0Xq6JwwhI7UArB55Xm6mtafrZZLrjVxlj4XZI7+pJ0Ppq9fz04k+sLE2+1xGFqqSnUcivIJfLIQxdaAjDLun52uunQ8RR0H8C3OXmk/6jFxDz0i6pn/Xa36XvD+tz2/vTQ8BpENFDtPlgMsaeLQdZ8bp9DBbq3Epw32s/bX4+JwuUIYQHU97ex89+77ufaah0baWT4W6uE8X3rK0maYeVxl9lk/leJ/+9nr99/enVkxYTmoQ3rz8tNpqMncXfN5anI1nxYlSOf6lc+izdjz63W+zi/o8Xo+Kb7KbPAfEFek7i/2jSptfK8ue2/HrzRlxW3tZ/m/vSvLmP5WYnMrQTmd6JiOxU/n6fv53qt5vyd7asbGVxKfs+tmTsqt9K55WTlz2RkNJ6cofJxk4khrCl8SylNG03mxdgCGjt1i44r4JUCdnQ0P6zqaqenz8QMkI3XVh4oS5YGv8jqJWvVYUlTIzewvL8PHSBgWlny8WIKrvdYqkiaegw0RD6LD3UNMPs1LnUmdSJxpJSwWCg8s10uM0g2r4eMRmJ20f1Nbar2z5j89lrvzfnlSxi+/g002GFbwb7v46DK8dYpPe6SB2V83eaLHea7Oj6g+jHzc3LgCju3W31O1lQ93P/ncrf6r67/X7b+tFzgaj4/G1PqsvnEWPxLi7mDhf7IuOlcss/y8vfjuyuLXRMg5sdZv2a5yAmN/S6Fr9klZMpCQnBSmRs72/GtE2Q8jxwkHU5ngf39hkvJ+atfotjp/G/02K/0/O1E5nZqfzNd6Z2vqr8RWJf86CZ/7Z+Gd2JZBD+O61zW/++/vK20zq735e2ra9XCGVEExW46yFQGqESSNa0oLa+C65TN1RV3/kDyWTbp3fqlV1ZRkqFZKY/97Ur8xN/ODt5q3FssB+OkkgJj3az9vgQlB6adTNladCWBv9uHwJa1Co1tRV3e3fCaNvfaWttO7K1q0FitgM5dAWfNJFUPpgrJ3Ex+SPsaZtuF28Om+7l3v3rdlrMjfvONu2702RwP2bofU2yezSXb0Uud7Ls0EK6V/M0Le6lSZ4sl3u9vvz87S2X25vNyyeGtcna2D1uH9drTj7mZWuddMXb9689f7fPk3kJUwXQln9lR4mI7GkZqOxWW5Gd/d56GyK1U0Xp+aA5rGLLsrEI0zy4To73uuhX2nPbtW0nArgTLrv+nZk9kdhpUtD6xbEaSmiRQnv3RfSceXA5Wd3xn9O1jb/LWOPyTuXuaSjokaeSi9mF902NXnvv+NDNZFWCXEIDU52tetQ8J1v1kHGgXN+0qwTE4tbrTu3c8vdKiUypQG5MU1vvdZJD8c6Lwh73Csu2ffbHrA+CjOzjYa5gW2+vD/udPp/G724Xj0rO28lysRNZ2smCsd/rdyp/J7Jnrq/YMkl2TbKMVD6OBXPWrqc9771YWDclI2tkQ5kpkXzgNy52MQkpOmDGjocVbXPSReSSth8X9Erm3Ion2w0X0rwYU7F9HPsgI/Fdi747FboZkF2ykue63AF3H63f9NLD6lPjLRiGZneAPGlzGgjA4de0oOfMw4X2vkvvc+vYbzN26eCiacpbrKeePbM4P/bhqy8/99Ygu8A8ur1xQi07Nqzwpc5aO6OMQcQOq/GxW2tIyRxp9qmKPhOVdGipmtsRkp06tuSIVvm2w27IyjZkp5KG7+GaHdu/gwPiHm51PE+9Mw6wu34mduqfow/qnt6HXoPLftu/1Zyz23KJvGx+xHPTRovvbWZccvYz46dyJ9TYyX8fx37fxvZx6xIN2c8L5V6Dk1+7TMX+bpUdRbvGNgXsdhxVdv99vswbl4K11ff2kKESQ16b34tjtHQBWUUU4CgKNmEImUaBxnKyFvXtp1VH76VP1Tac/99ZTdfcbtu255lAay2Wx7/ww2Oj/f9ttP9yIhVmkCA/WknhtQzcdRBFASIVwfM8hFEBjusiCikCxzWBZFJqJPwUwjC+ZvtjE0NWuffyEVkM7/Qb+DbGpd32tT3PImARsAhYBCwCRQTIfdxBIAO4QsF1OIjbyih2o6AoGcUCY/mgHYAwkODMh2vW8xyE1nAoel0IrOoAOcaQaurGmfufGPWqe3+8ruXhj1Iw8G7h3okJbFqOHn82NZyZ/ovJwVfflR8bQBJhHJZMe2dcg8LljIyIE4c7SaViU46UUFIaUkKHlApCrFtGNq/0Btq6adt23d7d4mLPswhYBCwCFgGLwD2MAIlkxesvQ2B8j0wgibHUFaUzKMhDRXDcZCxYEhEx4dAqgEuSX6E2WzQFUgFLVqHtzAP5uvaz72/uaP6V3W7PlACuiIzQxQszT71tcWLwj8euPN/G8ismBE6Q7o8mjbFi3LFRVlGIohB1jdXG21tGBXieAxkR49rL1sxWY6JyE+c9PMps0ywCFgGLgEXAIrAlAiaAg5TSHAdSkkFBmTXcyFUYqU4HXDhYWsqAMwecC6goNg5wHRsSyJJiImg8B3Wdveg8d+mFZFP716XTT5A8+Z6OismInr5cNVeY+q8T/c/+yMrUmAiyGfjCMZXksiSCoiE814Qft3e1oLYuBSWz0CiA9E9cVyAyJqF9HGbP1hKSfSBoL7UIWAQsAhaBE4gAGQsMqTDa4BqCMxjZcNIo5wksL0cYGZ5CoRAY0hLL45IeLGmJxJo8IcXUpGrRe/HhoLat9yeqW9/y25VAWTEZoZtlFv750aXJ/o+M3XrloaXpaZZgDAkSZiXLCISJIgmiENxnqGusQndPE/xEhHx+Hp4jARaBmXQ3lR5F5699e1RXen97nUXAImARsAhYBI4hArRzEat6mpRzZP0wbhWS1mYHDq/G7FSAkeFphHkF4VAIcxD7eSqKoOGGiGgvieaus2HXuQf/TFe3/FhNzX27dlotR21fZETrZ93l6cX/c/Tmy/9xZmjQ0fkcUprBJfZkQmgEQpLNFxKah+jqa0ZraxJaLcITBYRRDpwlYo/e7eLbtu3nklWkEtGfvYoE2fP3Jqpk8bJ42edy72Jk9rmxz81hPDcRhMMRBIFxTKUtDPIPiVOzJKGkj5vX57C8GEDAi1PXyHwx9ZoLLTysKg2/rkVfvPSGq6nGnnenGh96ulJati8yQjddXn6mMTM99vGJW9fetDw5Bi8sIEE/FJMASiEMGclFGdTWe+jra0BtDXmvrgC6AKVLlpHtwN+seaWqm0RFFYqu2evsQ38YD70dZ3ac2XFm5+kjNg+wCEKwmIwIH5SbNgwjuB65U7iYm8ljZHAJKkrAE0kTmEJrtomyUYB0EwgTVWjpOh/1nXni5xMt3s/t1Wn1wCwjpYIyS8983eSta78/0X+liWcWkDC5F6SpfEjbNr5AxCJIvYq+3kZ0tFchyM/CcyjOuTzOfjv/kXK/kA1EZPfRQ5WSNnudRcAiYBGwCFgE7iEEyGEVCMMQrp9ABIGgIOEnapDLADeujyKfdcGRBkcxtFcADllTogABd5HuOIVT9z3xgl93+muqq89O7wecfVtG6OZ6YaBuJTvyiyP9L37vwki/q/PLqE0mkM/njTcubdVQmK/SebhugL6+FjS2VCHILkIIUrAr6Y3EYcHkUEMevQTSelbOsqqWfEQMCSlZRvYDg73WImARsAhYBCwCJwgBo+RNMhza6IPlQgVXVAFIYWhwGtOTS4D04HtVCArMaIOtZLLwkx4CmQevqkXPpTfMJBt6/l1T61v+cL/IHQwZ0ZotTz33+vzCyIcHXvnn+3V+EaqQhVfMaKukLpKRAGAhWlpq0NneCC9BMcyrAIudYoxfTFHRzez0FPevbm/kxirbbRpr/jxi5k+7bWi3TStKXGfHsd3OO9ztPEZEhHMUogKYkwTnNZibyWJyfBmZ1RCULsERPsIA4CIJqRhCreCkOBq7TkXNZx75Ayfd9t7a2kvzR4KMlCqxOPK5fzUzcu23pgavOFF+CQnKrmlIhQJnlENCI5J5+AkHnR0taGuvhdKzALJrZMTk+ihJHJeUVm9r5cYw3p2yY9jfY+uRxcHiYMeBfQ7sPGDngfUELaQJxj0X2WwWiVQdwiCFm/0TWFosQMAtZpWmiF4XUntgThqrhQB1bfU4deHBq7WdF77fTVXutHrgPiOlAufmvlijFuf/euDKc1+WX5oGi3JwiXmVqd5LRb4jERoaGtDd24BkYgmMZ2LnGPI1oZToREbIhERKbxuTD6yF8ZZIyYEYd/ZL6uz1FgGLgEXAImAROFYIkHI6uUWQvwiQwNxshKGBWcgCh+/70FHBtIciZwLpQPIUtJ9Ae2+37uy771fTbed/hrGO7EE0+sBX8oXJp79xaWrgQ2M3X20uLM3CYwo+xfnKYlI7EkmREbyEj8bmJHq6XAiRMbHNUoUQIjZTKU2evmLdSlISNrtNU4TOPfAmHASutgyLgEXAImARsAgcaQToZV9pAS9Rh4X5AEOD88iuajDpxL6bpENC6zEXCLSLnPLQ3HMG3WcuvpKsan5nuvmx8YNq4IGv5FqPp+ZHr/3U2M2Xf2pq6EY6IQvwOTUuzuwrHAcFFSEkgbSExIVz1aipiq0hYViIVd6YNPK0JLJym2XkNVaRg4LBlmMRsAhYBCwCFoEThgBniKSAIxoxPDiH0dEleKIKXJPUO+WRU8a9ItQaofCBZB36Lj662N57/495tQ/u22n1jm3TlAqen3+2Jz818nvD11786mhxFq4KwRQJpwBwBQJo5JWGIwpob2bobK9GIkEZfoNi4rxozUoSk5FSyO9mWzP7TKF9wsaeba5FwCJgEbAIWAQMAiRkhhQW5jlGhpdNSK8nUrFOGPl6Qhs90ohJRG4SbacuyqaeC39ZV3/2R1nV6amDRPHALSNUOa01Wxj/4pvnR6/+3cSNy0knzEJEeXByaBUcgZIIGYdwFIRewrkz7airTyKSWTiGsVCm39BYSRSJ5N92lGuMxOeSf4mRtLWfFgc7DuxzYOcBOw+chHngNrNC8YV9Y2oUI39RitKixbn4Qs8UyJszlByuU48b12YxPZ1Bwq81mXkpA55AMf8MYyDxUp1M49Lrv/ymSLa8J93y+k8xUj87wOOOkJEiIeFTg5/5lakbX/qR+ZEbboIF8DgQRRGY46KgSDzFgQryqK0TOH2uDtzJwnM1oiiAkgyu60KvkZEYbF4aZAZgBQWnCMfhhkTZEDSLtw2ptqGodh6w88Ddmwdo6Ssu4SyM10FN62HZCzuj3QYOKRW0EnAc3/hnRjIHx6kCF80YHpzH3OwKggLllCORMw4dSTi+B804FldySNQ24cylx8NkQ/eP1Xa+5UOMsdjv4gCPO0ZGqI5zE1+8f3n8+gdnhq++OTM7gaQDw7YiCicy8rPcmIOYyKO1naP3dC1y+UVwoeFx3xAXbhRaSwSMRFqKFhDEWMRkxGbtPcAxYYuyCFgELAIWgeOAgBaxJdQ4mprX9ZiMmHWSolJJw4t2K2KiwphjMvLSb45TjdXVagwNzWJ5ccVc63DXRLRGoQR3BALFILmHhvZT6Dxz6R8bGi58A6s/tXgnoLmjZERrzZdHPvdtM8NXfm3k+kvNHkL41MAggOemTFQNhe8SS/OSOVy8vwueTx4lwdp5gpcTDTIs3S4ZT7ta9rAIWAQsAhYBi8BJQ4AX39OVeWkvP2JfS0putyYeqrkRLePcMf9DpTE0nMH05ApkSNGrLgRl4WUkqcGgucBqIFHT3IHO0w9M17f1/miq5Q1/dqcwvqNkhCqtpy9XTc9d+cjQlZe/Jb8yB4+k31Us/27UVgU1nLRHsqhvSOD8hTaTw4aSE1OEDY/dXovsr4yMmL0vBnWw21Z3CmdbrkXAImARsAhYBA4QgfVX8TjhbHHLjCwiRV/KtXWW9LsUg9IcHiXCi1ysLCncuDGLXFYZTRGHUQbfCExQRKuLEA4KzEXXmYv5tt6Lv1tTVfN/s/pH74hVxCzxB4jMlkWtjPzD26ZGr39iYvBalcwuI0nZeSLSFCEyAeOtS1EzUmVx/kI76htdaL0MmK2Y2PLBjEWEyEjxu2K2X7WWn+YwWmLvYRGwCFgELAIWgaOAAJGReD1UOllGRkLAuHQo4wNiVM2LqVY4c+F4NcgtM4yPLmJ6JmPUVdOJJFRE8hoRmOsh0A4CLZBq7MCpiw+9UNfc871+w4Mv3clWHwoZ0f39/hy78YuD17/0I0sTI06SK/AogO9RNl+NQhDCddIGQNfN475LnUgkCgijVWNBuZ2MlLyGXbMvpjiBfqBOvXcSb1u2RcAiYBGwCFgEDgABSrMSkjxqTEaM/wj5iUQmB5yxjhiHVnJu0OatX5BWiEpiZrKA0eEFKLgUtwtH8Di4hPw4hY+cYojcKnSdu5TvOvfQ9yQbHv6zg46e2QjAoZARumlm+p8fnRm79uGJW1cfiVbmkVAhOFOQHAjJc5eEVjiQz8+j91QDWtp9cKcApmNQWZFwlPbIyBWWDmsZOYAxbYuwCFgELAIWgWOGQImM0NYCkREnXg+NVSROqQLKCUf+H5SWhbnQSGB5UWJqIoeFuTwSTjJOxVLM3iscFwE5SfAUatp70XH6wY83n37gOxlry9xpcA6NjGj9rLs0mvm3Yzde+JnZkRvpFGmJBBlAkN6ICyU9w8xc0h5xCzh1th619RxKZgzbK7mGcLI3lR3WZ+RODxFbvkXAImARsAgcPQTWt2lAbguGjJhX9NhCQp889s3UisNzqxFJHxNjy5iayCAKhPETMcKiLM7eC8fDakFBpBtw+tITg1Utp36kpvnRv7nTVpF49+MQj4WFF+rC6YE/HHzlS1+fmR1DVZL2s8h5VYNrP97b0hIKOTQ0Cpy/2AalFmKTE4UAMwoMLuqK6GICH1Z0cD3EdthbWQQsAhYBi4BF4O4iUHJgLer90HbNmu4Wre4RNJPFQJEEOKqxsqhx/epY0ZJiYmcQUeoVIUj4C6HmyCsHp+5/NFfT0vtLDb0Xfp6x7txhtPNQyQg1KDP+j0+M3Xz5o7NjNzvD7DIcQbKzEQRziupw5IyTh58I0N5ZjdZWF0wExrmGCJzgRFokoHMgATirM3IYw8TewyJgEbAIWASOGgLGbaFMZTWOqikJgSpAROYln/E0woKHwZvzyKwAYaBMKC/XlASPgkc0tHCQDRka2nvR1H32xdbei9/h1zx09bDafOhkROvL3tzNoZ8ZH7z6vqmhG27SISGz0JiISIyFSAll7NUqh1S1wvnzTUimSSY/QhiGcEUCjBLp6azxMSFVOSt6dljDxd7HImARsAhYBI4KArHbAm2zBKZKCh5oy0Ybn0oiIfQSz8BFNWYmc7jRPwPfq0EUxXlnmCbCwhExgWwIcL8affc9jOrmrn/b1P32X2O02B7ScehkhNqVm3i6b3Jy4DdH+i+/i+WXhZB5k6GXZGq5dsEFRf7mwUUBHR0ptLSl4ScECoU8SARNCLKIxJYRS0YOaaTY21gELAIWAYvAkUKAsuvGzqolMkJWEXJa9YwXBkWjyogy8/oYuDmFpSWSfPdMqhVKuyJIUoM0SJwkVgJQIjzV3nvhY83VHd/NWi6tHmZj7woZoQZO3fr0O6ZH+/9gYfBqOw8zcMj/hsxJmsiGgIooVjqEcPPoO92GxsY0pFyFkgGEQ0wwjPfCDAO0KqyHOWjsvSwCFgGLgEXg7iMQkxFyWI1z0xgHVu1AU8iuFmAiiShkmBxfwsTYIoSoRhBIeJ5ndhtKZCSrPXi1LTh13+PD1a0976muf/ivD8NptRzBu0ZGKLpm7PrE+8dffvp94fIMJysHsTiqkNmyiUilVSOMsujoqkdnRy1cP4BSq8ZTmLZoyJJCTq32sAhYBCwCFgGLwElDYD26lF7QVVHqgl7siYz4YLwK2VWNq1eGIEMHjHtxnhrSNifRURkB3MWqdNB5/uGopffihxu6ut7L2Jmlw8byrpERaujK5Bda5m688MfzIzfenstlDAlhIOEVZtIYl6RsvYSOt2vaEwCWoXTBaOvHoFrBs8MeNPZ+FgGLgEXAInD3Ebhd6kJD8Xi7RpMTq0oiCKowMbaEiYkFIwNPL/CO8BBJivpl0DICc3w4tW3ouu+xV9LNvd9R3fDw5bvRsrtKRrTWIjP4ye8auPxPvzI/N1MvEMFBMVNvxMCZZ1jbSmYWze0pnDnbAMfPQkarcEk/n0CPGUnZsVnCoLsBrb2nRcAiYBGwCFgEdkKgGJq702mb/s6wJgRKYbxG8Iy0Q3woncbyosC1KyNw3HSsZk6RqHQGc1HIS3DfhWQJ9F58NFvXcebHazq/7EMVVeMALrqrZITqPzn5hRY5P/HrNy5/8ZtVbkEkdABXMzDpQPAkCppSGEeQLIvWzhTOnG5APj8Lj1IgcwVpZG7JZyROnMfNv8uPUpbfmLTEojDGz9h8lpRdDwBLW4RFwCJgEbAIWAT2gAD5e5ACamndKn1utTSXXr5jAkPy7kGQg0epVWQApjSEU4Vs3oMQdXjl8hDyAbk/cJDSuw4DCMbhMQ95ybGgGLrPP6g6ui/+eUNj53tYzYXZPVT+QE+962SEWjM2+JnHFkZe/djkwOWutC7AVQpCe1CSQwsfIVMIWRbpaoaOzjSaGhwwlTFy8hQGHLMLspSUkRHq3LX465h+WDJyoGPHFmYRsAhYBCwCFSNQfFE26xQtUaWX6vg1efPjdjJCIbzkPxlFWRMhY6JLVQKRqsXY6BImZ1ZBbiF0cMEgtDJkRCiBjHKgG9p12+kHXm3tOPP9tU2P/FPFTTmAC48EGdH6T8XszdT/c/2lp34yWplGkgE8KobtMtfkr1EoQPIs6mo5LlzsBDc6I+TQSlE3pYRAwPoeWjGdctzLa1BZy8gBjBpbhEXAImARsAjsE4EyMrKjZWSjO0JsGSEvBc6ZCdONyQi9lFchkxF45ZUh48QKRv6VFCASB4doqaAlQ+ik0XT+oXxD57n/0trd80uMncrvs0H7uvxIkBFqwdLI35+bGuv/08kbLz3s6pDpQgGeIOsIhU1zaLKOyFXlpJ2jAAAgAElEQVR4iRB9p1pRXe3Ac0Oj1soozroY3rueSK8oBrMBHktG9jVe7MUWAYuARcAicGAI7HabZjMyAqOiWqC10vNMwlnOkiaD7/DAIqYml+CINBgn3REFJigohCNXCI2SebKhXXfc9/jfV7V3fFt19WMzB9akCgs6MmRE6yed+YHo+4euP/8LS5NDdVwWkHIc6CgO+TX2DR2CeRG8pEJvXxuqaojlrZgY61IivRgHUnUtbdMUkSkyT1Uqq/i19RmpcOTYyywCFgGLgEVgnwiUfBo3+jqWlubNSUjppiQCGkYRhOMjIquISmJhPoehgVlA+aBthTV/EcERaoZcqFBd24S23vumarovfmd9+xuf3GcjDuTyI0NGqDWr0//UtjQ1/GvXLj/zzSJc5a4i/xFmhNCM8UNwcFchU1hC37l2NLemwbAMjkKZI2rcua+RQbNk5EAGjC3EImARsAhYBO40ArsjI1qGcPw0CgUFx69BLgPc7B9HdkXD4wkwTVaReIsm4gy5SCNyfDR39IXdZx78nfqq7n9/2EqrWyF3pMgIVXJx7OnHhvqf+9Ty9K1GlZlHgjx/FcVDC4AJaK6RkxlU1yfQ1lGNujoFziipIJm7ilr7hoyUGGeRmmwgI+uAWJ2SO/1Y2fItAhYBi4BFYC/L8FbrUvm6RsteBCESKCgXWicxMb6C8bEFOCwFIQVcCqEpRpEWtEYOLlL1rbr99IWnGzrP/GB14+tfOSr9cuTICAEzcePjv9j/0lM/Ea1OuwmlkIAw3r/kKRwSyXA1VsMVtLZX4UxfbUxGTD6fqGghoSRA1Gll8dsm2oZCe60OyVEZfLYeFgGLgEXgZCOwU9TMRnRuJyPCdVFYDeBXt2F+voAb1ycQhQICPoTiYDKKnVYpEZ7SUF4Nmk+dW+0+e+nd1e1f9qdHCfsjSUZmZp45Pzvw7O+P3XjlTV6QQ0o4YAUNGWkIz4dkCnlKlMfzOH+uGXV1HgSTYKRHIgtQOoTvu4jCAtGYmISspVW2ZOQoDUBbF4uARcAicHIR2Hk9MglkOYfjOCYfW5wGJU6CpyMFJ1GHIHBx7fo4FucDJPxayFDB0ST3HsJzE6AsbssFjZquU+g+c+njaOj9ly2HnAhvpz4+kmSElFnHbn7sf5sdeuWXF0YHm5JMQ0TMKJaRR7BmDBELoHgBNVUavT2tqEq7yBeW4ZNiPJMo5FcNIWEmfIbsJFuJydhtmp0Gif3dImARsAhYBO4EAtuTEUM4iirjse9HTEKMDonmkJLBFVUYn8xgbGwBUiZNVl4K3+XktkAiaMJFXgIiVY/mvotD9b0Xvquh4w2fvxOt2U+ZR5KMUIMWFl6oWx2/8hsDl5/7lzqfYa4MjVhL6dDUFyZz7yq6ehrR0d4Uh/46EsJXyGeWDBlRZNUqU2hdB8uSkP0MHHutRcAiYBGwCOwXga0cVeNyiYCYLPa0xaJUnL+NCErxJZshgUJB4Nq1MWQyGn6iFmGgSW+1KPoJKC2MT0lbz/lMy+kHf7khWfULrOOJ7H5rftDXH1kyQg2dGfzMY5O3Ln96YWqoXmYWkfS4CeEl1mey9ZIWPwrwk8CpvnZU1zqIwiW4HrFCFcvjGj3+dbl4S0YOegjZ8iwCFgGLgEWgMgS2JyNEQIiMkHHEEBNOL9jxVo3gCWidxsTkMsZGFk0+GtdJIQwluCB1cg3NGULlwE83677zj/xzW+f9382aL16rrK539qojTUa01mzyyl+/d3jghf+0PDuSSAgJn1TnIgmhHUM0JCRClUFjYxK9p1rhOnljIUn4HGFI2X3LNf/Lm0uWkf0kKLqzHWNLtwhYBCwCFoGThsCGaBmjskprFSWOpSAM2pqJfUYcpwoLixI3b0xBBi4ckTRWEXAGxqXxrQzpUjeNjp4Hcu2nHvyeqs43/Tljt6tyHRWEjzQZIZCyo1/sGhp++UOTY6+8E4Ul5ikiIhxO5BrrSKCk0R6h7ZreU01o76pDWFiA1nk4Tmm/LU6id7tVZCuxmaPSNbYeFgGLgEXAInCyENgQLSNcBEFgsuzSizW5HRAR4dyBlD4GBhcxOrqEdKIeDvORyxXgugyaR4i4NiJn6YYO9J17/OPNdae+k7U9nDmqeB55MqK15lO3Pvkd44Nf+sDC1M1mFuSRYg6cyIfWwgTzuj5HIZxHda3A6TNNSCU1omgVjkN7baXOLW7XmKREJasIdctr5NGOal/ZelkELAIWAYvAPYXARkvI7Y0j51MiI4J7hoTQFoznJaCkxuxsFkOjOeQLLjykICgHDUnC0xaNiBBQ2EY6jc6++wdaex743mTL2/7hKEN35MkIgaf1ZW/g8rP/cejq8/9BZRZRJRy4UiAKFZhLGQpDcCEh9SqaW1Po62uGEFkEYQYOj0N7rWXkKA9DWzeLgEXAInASEdiejJD1PwxJqoJevoGgoOAnqpHLSly/Po7lFY5UuhlBpmB0RTxXIJQBlAvktEZNa9fqmQfe+F9quy5+4G4nwtupd48FGaFGTA882TYzduULozdeOp1EASnDUmhfzEGkNRyRgEYI4UTo6q1Ba5uDQmERDqm20taO2SZTiFQcr00hwtTJ5RE6O4Flf7cIWAQsAhYBi8DBIFBMkmfWsliU83blcEBS2CipZPkM+Vxg/EIYr8PwrQzGx5cBeEgmk8hnVuELAdcVyOYLkF4SOlmNc4++5bN+U9u76+vfNHgwdb5zpRwbMkIQDL36lz8+PfDKL2ZnRz1f5eBwBckoURClrTH0BGAFNDS56OhKIJmUIO1+6MicS0dk9tyEyV4oKVTqWCFw5waCLdkiYBGwCFgEDhOBTciI8VVdt5YQGXEcjkDmjAMr4zVYmJWYGAuxsqTgJZII8jkkXHo3j0zlQ8YRuWk0915QTb0PfHNj91d87Kg6rZajfayWYrKO5GcHf3Po+pe+Cbll7rsxsaDUyQyu8SKWKgsvodHeXouOjhootQiGgsnia+KzKf5Gk3BMyVfE6o0c5uNn72URsAhYBCwCu0NAawnH85DL5ZFM1CAIfNzsn8LiggZpjLiOj2xmBSnfM7nZCmEE5XhINXRFvfc99sHGc1//nuNARIwdYXeQHI2zyJl18dZff9PQ1Zd+a2lmtNUli4fQpOoCTeYsro0UPEnC1zfUoaunHonUCjjLmyherom8xPHalKPGaPbr7ffsjkbLbS0sAhYBi4BF4J5DQJNeVnlQRblSOAmdRXAcD1IJMJ3C7GyA4aEZFAoMvlcVy77T7oAK4foJ5CMJLVLou++Rlxo7z7073fFlzx4XzI4VGSFQ9chTyZHZgV8evXHlhworcyzJFFxGAi8SisUKdYHxOPbR0JRAV69jtEeiKIBWyviLmLhtGYvJkGyaPSwCFgGLgEXAInC4CNCbcewrAhaW6V6tR35qpqEVh+vVY2U+wuDgErIZSherTXCGCjSSyTRyQYE8JqGdBGpaOjOnLzz6c9V9fb/K2LnC4bap8rsdOzJCTV2YeLJv8JWXn1oYH2r3wyx8HhqLCJm0uJM0sdiSOtCPcPZ8DapqJThCRLIAh8edb0KgKG77aOq/VN6j9kqLgEXAImAROAYIbENGirVngkGGDhzegKGhBYyNLMN1EtCUpZ62cIxlhUMLDwu5AMmGVpy575G/qW46/z3VbQ9PHwMQ1qp4LMmI1n8qhl72f3pm+Pp/yE0PJHxWgEYQy+WyKqM/ImUIJgI0tvpo60ghVVWAisjp1TWNV2GcWtlI/NvDImARsAhYBCwCh4pAiYyUHFllUfdKwQTRmAwzDqCSmJ8HxkaWkFvl4A45SxYAHRoyIhVD5CRQ4D5a+i4s9Z1/+Jur2t78mUNtygHc7NguxYvDz56Znbz+O2NX/umrfJ1h1DmMctCoZOw/gsiIv0Q6jzPnm1HfGEFh1eyvmfw2UZyAKPYfOQAkbREWAYuARcAiYBHYEwKbiHEy2oShw4GKXDi8Dtevz2JuJg/frzVy8Ern4AgWp0bxk1jKa9S29ciei4/9RvOZc+87TtszJbiO9TI8O/DkN01ee+Z358b6mzkipJMpFLKxw08hWIGf8Mi3FdzJ4+KleiSSAVRUgOCAEB6ifBhnRDzWKOxp5NuTLQIWAYuAReCIIECuBaSySlG5xrLvxU6rkhxSnTQYq8fI4ALmpiWCAuWciX0epSrA81zz79V8BKe6QfddfPy5dFv39zS2f/mrR6R5e6rGsV6GJydfTEejL/7WxODL351fXTHZfKsSPjKry0imPERRBKXJ+SdCfTPQ01cLrbMQTEKouFMtEdnTeLEnWwQsAhYBi8CBIFDcntEcWsVJ8CAiKBVnmxduFbIrHoYHFrG8SFGjLrhLshTMBGSQcCfJVEjuo669b7Wt98L7W86d/jXGLgUHUr1DLuRYkxHCamXw7+6bGrv2yVvX+vs8JuGJAJB5uMJDGERGe0Q4gOYZnL/QjppaCa1WwaUA5zaa5pDHm72dRcAiYBGwCBgElMmua5Lf6USckVcH5I8KJhxomcDYcAaTk1nI0DUWFEq4G8tTwKiPFxRDsr4FPWcf+EJd65lvTTc/MXFcwT32ZIScWaf7xQ9cf/nKL8jcUi0LZ5DyOXTIIKM41FdS2C8kGppdnDlH1pEVuOSBbDVGjuu4tfW2CFgELALHHIF1MsKZD60EpFZwvITZtlleCjFwax65DIfvpUym3iDIGdcCxhwTyhuIBJq6z672nXnoO2u63vqJ4wzIsScjBP7c6JNdi1Mzvzdw5dl3uHqBeboAl/nG0cfwTxI74yQck8WZczVoaBTgxhs5ls+1h0XAImARsAhYBA4XASIjJNhJERWuISOgjPReFVaXQ4yOzmN+Ng9oD4lE0qxnlE/NaGVFHAUI+O29aO298Ed9bZd+mDWeo2Q1x/a4J8iI1prNDn7m2wevPPcby9M3GynUl0cKvuMiiDS48KHhIoyyqK5ROHexGVwswfciqOiegODYDkBbcYuARcAicFIRoG0XOigClPwbKceaVAlMT+UwOjwHhjhbL1n4yQfS+JIIFyrUiNwq3fbAo19q6jn/g3XNbzg2Sqtb9fU9sxIPDDyZcFfHf2vglWe/jxeWoUPKYuhDatLsJzJCUTMKMlpGb18NmloLSCRCwzCN45A9LAIWAYuARcAicIgIUI40chegjPOM+WC6CouLwMR4HosLOfg+WfhJ0FNBKQXXTUBJQDAHNe19q433P/HTjV3V/52xJ0jC9Vgf9wwZoV5YGP3UI1MDr/7V6I1Xums9jaiQh8fTCAMG7nlGSKYQrMJPFXD/pQZ4fp5chozuCCDKOrKUPI+k4omolGCySfWO9Wi3lbcIWAQsAkcJAcZNKhNiGK6TgoyqMDaWweREATISEKQlAso8b9LNgwsPuYJGMpXGqQdf9zm/95Fvqam5b+4oNanSutxTZETrZ93xgbGfGL76ws9mp0YStUJQpJQJ+dXCQcQkIlC4bw51DT7OX2iFVlMgQTsSS5MRxXFrcK7AKGuNjuJswCS5S4dJaBT7oawf1qpS6eCz11kELAIWgeOMAI+lUsvSipTnOitPehe3kpK1xkcsKxGw2G/RZz440lheULhybRxaVQFIglHuNB3CFQqaMxQUR0G7OHX/oys1zae+rfHUV//NccavvO73FBmhhk1NfeHM3NBLH1oYvPU2tbzIqjiDllEck80AyTUiFcLzOdo7qtDcRh0dQUkSniHmSQSUkhMVDDExiYwsGblXxrtth0XAImARODAEYjJS0qsqEhF6aSU18HKrOv1NiVwNGYkZCbkNRILOdeAhhajgYODGHFZXNfKhA+EkTPQFpzw0qgAlGDIRR2PXmbCp++IHO+t6f4p1PJE9sMbc5YLuOTJCob6TNxPfNTtw7denBvurahwHTAYQDoOkgG761JHxTE5VaZw9X4d0Kt6PIwchx6E9PG1MZ8ZrWdqsvnd5jNrbWwQsAhaBY4DA9laRdcvIOhkhgiGlgM+qMTOVxa0bs/DdOgQhg2bcEBEutFmzcoEETzfg7ANveLmqoftf1Xa/9ZljAMquq3jPkRHDO/WTzugL47893H/53citMK4CuAxGZpcEZUgPnkKkuAjR0ZFEc2saflKZaBvyWjZlKJKMF9DkLUSmsrWj5ENi/Ud2PcrsiRYBi4BF4J5GYONL62u3aMgiYiwjZrufVhWylnCE0kFUSGLw1jSyS0RCPCNNUaDUJY6GJmE0LpANGNpO35/r7Lv003V97/h1xooF3SO43pNkhPpmceizj08MXfvoxOC1LhHlkWASTEmQOxCRjEBLsx3juRLdvXVoaOZQyBaleIWJ+6YwKqNFUtzXi01v9FtsciuZ2+6RsWCbYRGwCFgELAJ7QmArElIqZLPgh9I1cShvUHAxNr6KifFl+KIeQUCyFJSNtwBNLgQUeKEF3Jpm9F144h+q6/u+uabjidk9VfMYnHzPkhE98lRybHX2/xq8+vxPhssznk+Jh7QEVwrMdLQ2riBRIUBbRxrt3R78ZACpYll/Bs9s3XAiIiUCSiREk7drid1a68gxGOO2ihYBi4BF4A4hsFcyUna+diFYDTIrGq9cGUMU+RA8bWIkOAshuEJIkTSeh4wS6Dr78HJD5/3f1dzztr+6Q425q8Xes2SEUF2YeLpvcuTKB2dH+78Ky3PM0xKuIm1/hoiUZOhTcbh+hLYuF82tCTARQOsIDhOIZGgia2JyQoaQjc6slozc1dFrb24RsAhYBO4aAsVEd2ZtKG3LxNv4pagZVRQ1K1WxGHxTfJ/1IXNJjE8sY2wiA8erRhQCruOAR3kwriC5QuQm4NV1Bn0XX/eBpmTT++8lp9XyrrunyQgps86P/d233Hz1ud/PTI6kfJWHR74gIDJCUrwuNHORyS6guc1H3+kmuIm8Cf11KfpGFuKtGhpe5Vs01jJy1x5/e2OLgEXAInA0ECiRkTgiJj5iGYgtyciaZhUHU0mszDFcuzYB4VVDMaeYNE/BEwqFQs5YRQo8ie77Xn+5sf2B76nrfOL5o9H2g6/FPU1GCK6RkaeSLDf2xzeff/obeH6V+ZQpUUqTkMh1PCg4UKQ/Eq6iq6ceXb01iNSyyexLzkOlEC1Gezol9mv9RQ5+JNoSLQIWAYvAsUJAQdNawBSYiskIL8lAFNthJCXCEMJzEQQhpeOFl6hCPl8Al0lce3EaQehCCxcSGoEM4DkCDlMohBHykdmeKTSdfvTfN/RW/fq9oLS6VRff82SEGj49+qlH5gau/PHkwLULKXJglTQo9Jp1hHxDKIQ3lRbo6E6hrpFMbctgnJTvaJARiy0XPrPbM8dqzrCVtQhYBCwCB45AkYysWc45SiJo8a3iJHicAiaiEI6bgNRkl3eglYuJkTnMjoYmFw1tx2hBkTPKqK5SOEU+ZEjVdKDj1EOfa++89A2s5dLqgTfhCBV4IsiI1pe9mcGbP9z/wj//p2h5vi5JanYRDYIIwiHTmDaOQ4VgBY3NLk6drYfjrRBPBSNXZs2K2zQ06uJQX26sJKxMee8I9aqtikXAImARsAjcYQS2IyPrL6y01R9ICcdNQirPBEFkcxLXXhkGC6rAWQIRC6G4BHNJ+ZuEOTk0S6H7zOOLzV33f19Nz5s/eocbc9eLPxFkhFDOzDzbPnbzxY+M9V9+Z4KFTAU5OIK0RxQ4F4aM5HIrSKQkuvtqUVsHOF4IGNEzFZORMjl4S0bu+ti1FbAIWAQsAncVAbNNs2YZoW2aslBe2r5xHBTyATxDRASUTiCSDkaGZjA3m4Gna8GZgwh5gNRYuUSWtnPcNFJ13arn7BP/o62j99+w2kvzd7Whh3DzE0NGCMu5wc+8efDq8x9dmR5pFjKHhINY/IyUViNu5N+VLiCVZujprUdtvQcVZQAWGH2Scr2R0t7gRm/pQ+gzewuLgEXAImAROAII3E5G1qNojAYVkRHaogkiuE4CGpSBN4Xp6VUMD83A4WmoMI7CoVBe5mjKnIbVQCFZ3607eh94vr7t/A/Ud73+S0egqXe8CieKjGit+chLf/6LN1/+p3/nqQy4zNMoMKqrYSEw6ZqjKEQks+jtbUVbRw0YVgGeAWOFosgZbds4RUclbvILWPGzOz5O7Q0sAhYBi8CRQyAmIxysaBFZyz1TtJhIGcLx0wjyCm6iHtlVoP/6BFZXAc9Nx+lGtIRgETQnB1Yg5Ak0dj8Qtp996Eebet72YcZKqptHrvkHWqETRUYIueXRz58fvvb8R1YnBt4kC8uMfEbIIiJlYEgJbceQtaSmOom2jmrUN9BYWwLjlI+IBg5l8SUyEoufWTJyoOPRFmYRsAhYBI4NAqVdGUNGNDeOpyWrCK0Xxg3ASUBGDiKVwNREBuPjy+CsGkpSMjyK2Azh6BBKMwRaINnQqZtOPfxUd3PvO+9VTZHNOvjEkRGyjiz0f+I7rr34zAfC7EKzS0loGBERbUiIK3zjAR0FIRqb0zh9rg5cLAJ8ldRJimTEiy0jmkNxSgFto2uOzexhK2oRsAhYBA4IgdvIyJq+SLxFY3wNXQe5TIhkVQvmZ/K4eWMWSiXAWRJhKONEeExBULiE0lBeGs3dF2fazz7xAzWdb7onlVa3gv7EkRECYv7ms7WTs69+cOzGS9+aCLPwWJzFl7yeKWsvZe+VUsPzGTq6qtHa5kOyGXCEcHkSQSBBSZ/JPEdJjNbk4rcd4BsJy3p+ggN6LmwxFgGLgEXAInCICGhQNvgIgsFkeYekLLzxlgtZ3IMwRLK6CblVB/1Xp5BZdeGIJHK5HNIJHyS5yjhHXofIc46q5q7w9H1v/IhT1/6++vpHFw+xKXf9VieSjBDqI7c+/dDEzcv/mBm7Xp0g/X/FDBlhlCGRdEeUMCa0dDVDe1cadfUSEfmZaA7BBHQYQ6cFhfru5rBkZDco2XMsAhYBi8CxQYBxaBNtqYxFXZCNg9PaQGG/QESGd5bC1GSAqfE8osADM9pVCoLSjkAgUBIy4SDwkug6f+lybcuZ72vuePuzxwaDA6roiSUjhN/gK3/xc6Mvf/G9LFh2yYnIIcdmSqBHxg6S9WUKEjm0tqfRc6oOyiiz5uH7HmSe8taQA2ulPWEtI5UiZ6+zCFgELAJHAQFVzAKvpS7KRMQvtURMyGrCnTSWlkIM3ZpHIUeCZwljdfedBKIgD8YEGVOQYxwtp87opt7z/6a17xt/nbFSdtaj0MrDqUPFS+nhVO/O3mV++MlL4ze+9JHlmeEngvwifCHAJQen0UFWDy0R6gBVtQ46euqQTitwsQpHhCbKl8iI1owk0CqoqCUjFYBmL7EIWAQsAkcGAUorIoQAJK0FGoJ2arSCjCisNwmmqzE6Oo/J8SVw5hvyoSgRr0ggILMJZ1C0vZOsQt/9j34xXdXxL+p637pwZBp4iBU50WRE6z8V49ec7x6/8dIvLc0ONfgM8LV7GxmRxDNou6bWQ1dvNaqrcoiCeUNcDGFR5D+9GzKym3MOseftrSwCFgGLgEVgnwjQ9gxF0oj45ZTL2P8QHoRTg4VZjeHBGRTyEYRwzQsubfUr6YIJH3lIRMJH34WHhhvb+36wtucr/3afFTq2l59oMkK9Nj//bO30lef++9To5W/X+VUkpICj49wARDIk4wh1aByS+s41orWFwoDnkKA8AookaijUdzdEYzfnHNtxZCtuEbAIWAROHAKUR4ZEzUjFm8iIpLWCOeBIQ0Vp3OqfxdxsFq7rgjFyAShAcBcyEGB+GstSItXQmj/7wOs/0Jxu/s8nKZR342A58WSEAJnp/5vHxoZe/OzS5FCtGxTgQa+RkRCOISSRClHX4KK720VVNUXTZAAlzcDbHRkpQV8iJWWywSfuEbYNtghYBCwCxx8BwQWiIABzYl+ROCFeNVSUxOxMiLGhZUSBgEvhNozyzuQNGYH2EWgHYVUV2k/df6O544Fvq+983QvHH5HKW2DJiPEN0eLWC3/0kxM3Xnq/Wp3xyeohtDIiNBI+tHDMPmAol9HdU4Xe7hpALhjVvN1t0ZR3kCUjlQ9Xe6VFwCJgETg6CJBLahgV4CZck+AuHygk/DpkMx5uXJtEdpkh4ddAhjljGTGEhAGuk8JSPkL96Yuy4/SlH2/ufcdvMXPCyT0sGSn2/eLgM6cmhp//0NTgC28X0SpLei50qKF4wojRmOy+ugDHCdDbXYu29iTCwgKE4MaLes2DmqR9yRFWFPPekOXktsOSkZP7uNmWWwQsAvcSAkJR5vYI3NUoUJ4zUQ3oKgwPLGNqYgWQHlJ+CoUCrR3F6EsuUKB8NTX16Hn4TU+l29q/obb2zfd8Iryd+t2SkSJCZB2ZePkT3z4x/MyvZeaGG8kyIhhl6vUQhZR9kcxsGkxJNDWl0NmRQDJNeiQFaMSCaaTEGhMTbf5WOopDhC0Z2Wkc2t8tAhYBi8CxQ4Cy9DLBEUSrYK4HzmswNx1iYjSHbEbCYy5I5JsibSjURnMXuUKIRFUadR09Cy1nH/mR+o6v+JOTbhWhjrdkpGz464GBxODM3/2/Y4Mvf2thdRFJl3LQ8KI6KxEMARUpuB7Q3pFCe2cNtCKZ+DAmI4w8q2MZ4K0Paxk5djOOrbBFwCJgEdgEAVID4Z6DbG4ViVQ1wiCN/uuTWJ6XEDwJX3Dk83k4fgJau4iYj5V8iPaejrDj7IXfE41nfvqkKa1uNZAsGdmAzFz//3rT8MDzH1+YHm50jEIejP8IiaEZMiJZ0ZnVQVdPPdLJyGT0NcyXlPi4LhIS0iEpMmJrGbETmUXAImARuOcQIEu447gIjbdHAnOzEYYGZhHlPSS8BJgOTHoRx08hUi7y2of2U+g5e+pLXWfu/26/4c0v33OgVNggS0Y2AEfWkZvzX/xvU8Ovvie3OMmSXMEjvyJJkr8cjLsoRAWIBNDY6KGnu9r4kVBsuaIcBcZrmrI1xr4jFFdut2kqHJ32MouARcAicIQRiJVWBTTB/pwAACAASURBVFy/HgvzAYaHFpBd1YDicLiAlnmzDtBrbaA9BEihqee07ug7+wPNp9/5+ydRadVaRvYwoGcHnro4MfTCh6dHr7zRCzMsQQQjBLgGuOMh0CFCHcFLhLhwth5VVdxs04RRYJyUyEIiFcnFxzkKLBnZA/j2VIuARcAicFwQ4BqRpOR3zRgenMfoyDJ8l5RXaeoPTaZ310tgNR8hEkmIqmbVd/HRv+yqa/ku1v3m3HFp5mHU01pGNkFZa+2MX/3ED00OvPhfszOD1T5x35CZAaYdjYhphIqk4QO0NCm0t1cjmUwikqGxjJADayQDS0YOYwTbe1gELAIWgbuCACXDo+w0VViYczEytIpcFvAcHwx5Q0Y4yMHVQTbU4MlaNPddHGw9dfGHatrf+inrtHp7p1kyssUgXh59pnF69NWPjfc/9xZP5+GERVVWihOntNHcARck/TuHc2fbUN+QglR5k+k3toxEcHicMGlzy8hdeXrsTS0CWyJAqta3Kx2QVY8bi+Bmvu5xksj9SyO89r4bq1huXbRKxnYIHyQCcRRkfMTjPT5K328/9iIJOG49+q8uYXqqgGSiFlpR+EwOopjrriA1JE8iWdueP/Xg6z7QeMKVVrfqPUtGthnX08Ofe+vEtWf/cmb4amOKRfAFoCISrnEQKNdoj2idh5eIcO5iPbwkWUPyxk+EnF11JI1E8PpWDTd+J2sDnwarSSdtD4vA3UIgnmyJEBC54KoYis4ov4Yy0WTMfPdaEkDXbB85tn2b6H6GutN9KcepWROKMoLF50TRM2LePotLRPF5oXQNZWffLfDsfY81AjQASb6BxhKlai/Nx2Xfs9jaHUUk48DgupR1l15CAwjHB+eNGBqax+xUgDDgENwHI8FMmYHwBDTjWC1I+Kk29Fx45LmGnke/Md18cfxYw3aHKm/JyDbA6pGnksOzgz8/PXL5PZnZMYeUWR0dR9QwkYbS3HhKu8kQ9c0RuvuqAWTAuAT5rZIfSfxWuX5YMnKHRrIttiIE4hxM8WHIhS6REdrvJj8pCgkjEm3+Wj/PkAgiK+bKiu5tyAiRoGLJREYMyTBEJJ6aFOXzKMumXnp+YjIS54/ajChVVCF70clDgMZ7iYyY1hfHniEpEoyHRf0os0cPxhxDSug3x6nCyqqPoaEFLM8HFHcJT/gmojKMsmACiEhnykmjpuls1Hb6gf+j5dw7PnzyQN5diy0Z2QGnxaHPPj479urvDve//KiQOZYQrtEaSbgp5IPIMF/yHWHOCs5daEd1jYZUWRjZEU4iaeUQU0RO6YbW3Ly7IWrPulMIEJEoLvlrJIMW99jiEZnvSos/jfP4UMaSUdpaEaSzsI8KxkQoLqG0HUT3pOxQMRmhexWJB1lQTJ3p17h+lozsA3x76drLojKileXHulQDRUmSpZtIslQMnLbouQOoJIZHVzA5vgIVOnCED0HkQ1DwZWDGbiaUqGvtUW3dD32ypqnne2u63jBnYd8cAUtGdhgZWms+dfX/e/fg9Rd/JTs/VeUxBQ+AwzgKhRCO76EQ5sFFiIamBHr7GgGegesphGEAhwZx6SBlVppEzZtf6fvK3irtgLYI7BeBdTISL/i3WUiKhcfKwjEpKJGRkqWCiLXQJZ+SSmpD9o1yIrL2oBiCElMQXbx3ibbEi4TR/rFkpBLQ7TVrCKxnFlPaLZJi2hYkOYZ4e5AO8vuj7XayiBAZ8bwUZOhgZTnCzZszyGUVfLcGDnMQhhKMJB24QsQ48hDo6Lt4vbP3kXfX9L71Hy34WyNgycguRsfCwJN183NDfzF669W3y9UFVHkMLAyMEBpcF2EYwhEuNMujq6cBTS0+XKeASJKFhAY5vWEWBzkrIyNr+5WWkOyiG+wpdwiB2BISb7us+YAY34z1zNJFO0XZJF3y8YjfGCs7iMiUZa9euz9ZX2h7hkiSE3+S7DZt4xRJCJGgdTJS2d3tVScdASIjZGHjUDpZRkZCgOZposJKxOranMWpPuCYrLyUAG98dAHTMxlAu0h5abM1HwQRmOsgpAy+YKht6y60997/S+33PfxzjJ3Kn3TEt2u/JSO7HB1zw59558DVF/5kcWKwLsUC8CADlxIfaUqU5IBpz4TzJtMa5y+2w3Uz4E64Fk0Tk5Gio5S5Z3ESN99ZMrLLbrCnHTACsZ/Iun9GPAnTd37RuToet0QCaHuEfjeEoLjfuP5GWVnFeMlHxTgQxgtAuZ9ITEYcMEV+KyWnWrq9Y+qtWclyUtn97VUnGQEFzkLjJ2XIiPEfKY5D+n6NjJAjKkyOGc49aJkwDqtjo/OQisamgGACkoIb6HB85CljmZfGqfseu1rbfupr69vfNHiSkd5N2y0Z2Q1KNDePP5samBl8//jNF/91uDThJ1GAyzSkGaE+WES5B+jvLLp6atHQ7CCRklA6HtRm7t7MUcoSkV32gD3tTiBgEn0VrQxm+4UVoCgJgkpBwzF+T2b8FskCp09jnTAe2qBNS9p8rPRYvzK+T/yMkH6DeWCgtGfePMmR1mzNaHIUVIB0Y8MNV5AbvcQrrYy97oQhUCIjxDSIjDixddCQ4ji6JvZdiq1wZBWRysPyosTURA5LCwESbsJYTIzfNW3nCBcBOKSTQG1HX6777MM/XN/79j84YcBW1NzKZ5GKbne8L5qf/MKlkVef/8jc8JXHq50CQ5SHJvOdFHBRBTMmSZPEC3H+vjb4yRCMBwAjg13pKI9pp+8qNXEfbyxt7Y8GAoKGYzFSxviN8BASLrRsgkQSXIh1h9WiF8ealYQoClt3Nq2kReUOtOvXK2hOpIebZ4vIksmijRwEliBIDrnoxEI8iiwp9rAI7B2B9W0aIrwxGaFS1v1GSruIWnG4ThUKgYOJsWVMT2ahItf4DsZMhSg5h3YcrBYU3JpGnL30+k+mu3u/t7r6sZm91+3kXWHJyB763Diz9n/y2wdefeZ3sjODNTVJyj1AmXoZOPOhJDcsmXxHGuoFzl5og2ZL5m/KUxCGETw3gZBy2zh0HU24tDdvCckeusGeemAI0JsfWe5o/HlGWZisDMJrxIsvreDpZ2+aLKPPvfQqsvkIwvUQFCjnkmssfYySR+7LKlFOIoraDiY1ZWyhoTdTUrN84xMPI8ov4svfch6XHkhDBbNwtIKjyW/F6vQc2HA4cQWVHFiLweW0XWPGX/FgEVQxaos7SXBUY2le4tqVUTCkjKWEKRnLO3gOFOfIRxohc/W5B98wVtXU80P1vW//pFVa3d3AsmRkdzit2zX6+/3+2b///bnhK98RZRfhFGMQaM+QyEgs3xQi4Uu0diTR0u5BUCK9KDJmPAbX6JAonTNy8VpZMrLHLrCnHxgClGWaxiUVmEAEhpBHiHgjnn56GZ/7wk1Mr+Txt597ChNTxYSPdC4FgpW7P1Van/LZp8RLzJYRkZF4F6aroxZf/bY3Ie0X8A1f+xDe8EQ1mJ6EQ0kpJaUoiy0n9rAIVIKA4dJrjtPkA0gBByVCQha6ot8fSyEseBi4MYfsKkMUakPKBfmGIHa2VlwgE0g0d58NW3rv/832hjM/w1ourVZSr5N4jSUjFfT67M3/9bqpgSt/Mjl8/ZTPI9ohhGBkFSGy4RuLh1JZJNMK5y80Il0tEEVxTiQyhrg+RxAsw3UdY4a2lpEKOsFesm8EKHiWsaJAHxJmMpVOhJA14HP/sIxPfe66ccL72KeexMjYcnw/mrw5qTkVfTzou0pnkc2kHcxiEDvK0s/dbS14x9u+DDWJAN/4tQ/g9Y8nwNU4HCXBFS0CZaHz+0bEFnDSEIijuWi8kS8S0eDYR4loLn3PhYKUZAGswvREFjdvzCLh15rvKO9MiYxEHMgrQCRqcOaB171aXdf7jXU9b7l50vDcT3srnUb2c89jf63u7/eHM8//xHD/Sz+js4tprnMmD42U5BDlGWISRjkIkUdbWwLtnXVwPUqeVzB73fG/M9YycuxHwvFuQDkZ0SoBLTiUF0KzFvzD53P41OdvYTkEPv7pJzE+uQxQ9mpJ4bgCuhhiS9EHa9G5e4ZjTXWtSHRoq6ZIRnisAHu6sxNf/eVvQZUX4OvfcQGve9yDIyfg0149Y9BSlmmg7LkC9oITjkAczUXOqiUyQlYRGt+kJkUCZxxRCAShi4GbU1hdJQriwXEcsz3jMYYCbc07LrIaaOu7L9d56tK7G3q+6n+ecGj33HxLRvYMWXzB3OgXu6YHXvng9ODldyFcodDy2KsaHJ4giwc5r0bgPIveU61obqlBGCxRuLoZ+IJryCgASMnP+oxU2Av2sv0hoMAcadIbEBmJSGDMCQwZ+ccvSHz280NYVQx/9anPYGychCOL0vBmszE2iQRFp9bK61GUWlubiZw4mqG489LRlMbXfOVXoi4R4evf9QDe8JgHR03Coy1RsoyQA7mdxSqH/4RfGZMR2hYk36miX7R2oGmE0288AZKUmhxfwtTEMhynBkEg4bquISM+pzxlGjkG+PXNqvfCIx+t6ez5wZoaq7S616FlH+O9IlY8X2vNZq5/9msGLv/9XxSWpxKMvKlJ/p30GEgkRylDOMIgi9a2GvT2NoLxPBwyg0c5uMSsA5KRt2bmCrvAXrZvBOI9cYpTIWlrsnBIkUMEIiPakJE8c/Cxv/0MRsemYJJtSGacsZkh3uad0oRDFo3de/rcWP3YbYQWACLp8a+9nQ1411d8BWrcCF/3zot4/aMcjiQy4pi0DIy0fuwstu+RcFIL2Ci6Fwv/UZgukREfGinkMsC1q8Mmeobx2GJCw5/meXLkVowjqzm6Ll4aq+s6969but7xMcbKEiqdVHD32G77GO8RsPLTiZAMP/2hP54cvvKtuXyGUYJeUvQjcSgdKTNpU7SN40l0dlSjuS0JzldN3gJXUPSNhDYeVDY0cR/dYC+tGAEiEYF5A6RJl8x20s0iYm34/Oc1Pv35QcwVQnziM3+Pmam59azqJgMY+UcVJ+6yhOt7ISVUbV7KQWOeAiLmZCkMARGLr3V3tuFdb3sbUk4B/+IdZ/HmJzh8NgNPeQA9P7dJ1VcMhL3whCKwTkYMBYEiImz+FeeeyedTmJpYweTkYiwDLyUEd+McNbSdQ9GU/z977wFl13GeCX5VdcN7r3NC54RGIwciMIOZEkVlWbYCZUsayWnsGXl212HlWc9YZ7xn58zYY/vsyF6PZDlp7JEsUbTELFIkwACABAkCRG6gG0DnbnTul26qPX/d97obIEgC3a/R/Rp1JRwQ3e/WrfqrXt2v/vB9QsAqr/QaN+384ype8g3Wep9mWp3HetJgZB5Gm3vL5Pmf7j579MB3x4b7mgXzYGQYKqXPYApLObSn46MorTSxbn2NEtTjihaHWPuISirDeDnT6JWy+hbYSX27tsAVLRBAMEq2Jh4zC5JIzIwUPFGLPS95ePblc5j0GZ5+4WX09Q+GmJkkEDL4mZEfJCzFmfeVUaZRsCYkmMq4zUktlQH1dTX44H33oNhw8LEPtuOOXSZMNgD6te+QcmqWG2LeXdA35r0FsrrP1z6QWQZgYv6l3BHKmSKyPRsIijA2Apw+2QPLLFKekJDEEkoUL0Vl7mYULgys3rT9VEVrywdiFfd0X3sv9B1kAQ1GFrgOBgYOF/jjZ//w1OFXv8bTk5YZJGD4gMUiKjPb8QFuCaT8EVTWRLF+XTXS6RGIwIFlcPgzm3koXa0k2y+5ZuTL1E+zLuks66Wi6NaXtsC8LJBdW6T5EpKbBRzwxCrs2RfHM3s6MeXbeOKZFzEwcDFcfOTJmwtAFrj8sp6Ud3Rf5VYBtU01+ND9u1HK4vjYgxtx964oEAxC+hlVYV1NM6+ZXzk3ZVh7Z/bN7P75bq+2uaSTVBgegeemYUQBx4urkKNlFyOZMAC/FCeO9itRPKUxFviZEDtTIDjpAWOegdZ1Nzn1Tet+t6z5vj9fOXa9/iPRYCQHNh/qfmHNxQvH/2ag6+idUT/JDN+HxaNwHQbJbfiGRFpOKd2ahsYiVFWYgD8NruiGs/wNoTDZDBiZEdHTYCQHU6SbeBcLEOtqKEAXbuKe4PBENfbsm8DTe88g7hbgiWf2KjCi6K5VcCazZt8VSczD3JmdiPoSvi4MRfVe11yND95/K8qQwCce3IDdO4oVzwj1Jey75hiZh7VXyC3Z5OfM32otXBsYgWdAGByunAKzyPNB68+GdMvQ3T2FkYE0ZDBX7NSDIUIunGmfQ1Q0erWt275X3dzw74qLd11cIYZdkmFoMJIDs1PuyFjnU4+cevvVv0+N9fEYZzB8kalPtxWrpWQOPBZHUaHEho2NitoaoNBiqIEQMrHSSyE7JRnyJ/XT2eOn9ozkYMJ0EzMW0GBEL4b8tcAcMPK+npHLXXhhaIcEGKl81w1S4LaAHxBflI3ktIWTx3vAg0JVyqsqJVkAIQiMS5U7kmZR1G3Y1VnR1P7VyprdezTT6sJWkgYjC7Pf7Kbe/Wr0bN+Jn/ScOnS/zXwm02nYBiWpEtyQECaH608DPI7W1TUoK4tA8FRGt4ZOmpno+cx35srHTg1GcjRhupkQ5i5zz0h9S43yjJTKOD7+wHrctbNEe0b02p1jgasN01wJjABCWHCSSVhRCw7pL8KE71roPjeG0eEUTF4AQZo1gQeQR8TgSLoewCKIlK8KGjfs+s+1a1q+wdjmMPNVX/O2gAYj8zbdO2+c6H7+lrPHDv7D1FD3WrhJFJgUjqGk/zDRTkoXLhKwYwyr22pV2IYjoZKmLtX6Isl2InWajemTaBhdAZUNz/GV6JyRHE7gDdiUBiM34KSvqCFn98jLw3XZV9uVQUjWBIITtbsDbkXhw4Yb2BgeiKPn3DBsXgjpUSJVhm2YuEWYQMINUFBag5rmtWcr6jbeVlynwzO5WFIajOTCipk2ZFdXpHvq4G93njj49SAxFrPhwlblX4QrmOIUkczDdHoMrWvrUFVdAMGnwZFW5cDhFX653hEJ12AkhzOlm8paYLmDkYbWWnzgvlu0Z0Qv2Wu0wFWAETrseQ6EHUM6DRh2KabiHGdO9yM55SFqFoD7RCTiqcRWKQwkfQHPiKKybk28cc2W3y1vuf8vrrFj+uPvYgENRnK8NMa69rX09rz1P4e7T9zBUhOIcgErYPBdBi5MVbkYd6cQKzZR31iKsjIJzih/hNyNIWlaCEbmeEUyzJdzPSOz3V5gOUOOx6+byy8L5AMYoTBNSTCtwzT5tbSuY2+v9Bp7t31xzr5KIUrfBTdspP0I/KAAfX0J9PVMwBI2mM8Qoep1uIoPiggZUtKGXVYr61o2/7iybvNvFFSt77uOA13Rj9JgZBGmd+T8Mx84evCFHyM1GjEcBzFuQjoZiXRTwOcexpNjCoy0tZSEYIRq3DOEaQRMQjAyp34+k+CaDdNoMLIIE3cDNrncwUjj6jrlGbkSGFFlxpp+9QZctXOH/H4lvJeb51IwIgyGZNxFtLAew8MOOjqGIf0ILGYj8Fxw6SguHjpEpiR5RUpQ0bT+QsOam75aWn/7cze48XM6fA1GcmrOsDES0js59vw/9Z45+ikzPY2YMGB4HAGJjJmkZeAiJVMQpouW5iJUVRXAFBKEvV03CQkPkagNz0kpiXTlEZmRtdakaIswZTdsk5eDEZdi6KIae/dP4pmXzmLaiS1paS+BkQfvvXmmtPfO7UVA0K9KexXFiAYjN+zaDQf+3vshEZVRzh5VzNAfqoqhP/TfpK5O1AqmVQjPLcLRYz2YnjYhWKFShKbqAxYkYVoMPuOYSkuUNaxF49qdf+5Ey3+/rm5X4gY3fk6Hr8FITs0521h/14/vGeo8/rejPWdbiP7MDITiRGDcgCc90P+kcBCLuFi9ugbFRcToNwnTCsB4ACcdh22HCbBh0Obd6ud1mGaRpvCGaDYfwMjcnBHiGdFg5IZYmlc5yPcHI+qAKKUCIQROCIgQiFE/kxKmUYje3iT6eqfhOlTlGIMMfCVSzVlaiTEmvQB2URUqmzd2lNS231fZeEfvVXZQf+wqLaDByFUa6lo/JrtfjXZPdv9f54+9/r8HyemI4XowjVD1NJCkSsogmQvPm0RDUwXq66rgBXHYZgBu+UhOjyMatRVXSVhJE36BZi8NQq51TvTn32mB5Q5GmtrqlWeEwjRZ0jMNRvRKnrXAuyWqhp8gwKEkAwKpVHYJiAghFOWCknfkJty0gePHeuGmLXAUKLZVYvglThHJPaXKmw4M1LZuGq9dveVrZc33/oOegdxbQIOR3Nt0psXhnufWDp058U8X+zp3eNNjiFkmOJNKXEkR7vBAkaEJ00NrSy1Ky4mXZArCILE9PwQt6hulwcgiTtMN3fRyByPNaxrwwD27NBi5oVfpew3+vcEIeUNCWgUSUg/AGf136CUBsxCwGAYGJtHdNQKDFUKwCKQingwAIeHKAC4EzMKqoKV9x2OltWt/s3DV5gE9Hbm3gAYjubfpTIvEzHqx48nPd3a8+bfjQ+fNqCERYRzS88EDEcYwWYCkM4Hy8gja2uthWw7S7iQiNofrpjMuRWrySp6R+QtELeKwddN5ZIHlDkZa2htx/907Z8AIkZ6RZ0S9TDhVn2k6+Dxabtehq3OrEMkzwlRohrzKTOXfhXkjdAlRgIvjHs6cHQT3IgQ5wDyCIRLMYPAQIEEAJlqG2qbNF6oa1v9qeePtz2qm1cWZRg1GFseus4Bk4HDByc4D3+vvOfYR5kzCCgiIMJi+Bc4pmZUytT34/hRaVlehrqkcbmoUUqZgGGFc892BSBakLPIgdPMr1gL5AEbIM1LsT6nS3rt3lWowsmJXYy4GdikYoT1WhWeYGarukkNE5Y0YcDwLnecncOHCKCoKK8F9Bni+UlJnFkdaSiQhULqqBc3tN//fVW3WHzJ23+Uy67notG5Dq/Yu/hog78jw2Wce6r3w5l+ND3U2IZ1ERHKYfkSJgbkSMG2OlDOCwmKO1W2VKCxg8LxpGIaYQfEqX2SGlTXDCKi6r0+Giz+LK/cJyx2MtK5tUp6Ry8GIFspbuWvy2kZ2Kfi4/F4CHa7rwhC2+pXr+rDtKHwvwMDwNC70uUgmTcSEDZO8KL6jaBZ8M0BKSojCClS3bj1T3rLtgfLyXReurW/609diAe0ZuRZrzfOzsu9g7MLoyT84f/rQv/MmRyIxRYTGVaWMx00ERAfPHbjeNKqqi9HWVgvB43CcSZVsdQnfyCV90GGaeU6Jvi1jgfcCI8/uPYtJL4Ynn55V7WWU86S8dZmjTC7yqK9YEGEoOYTV65tx3107UORN4hMPbsLdu6iaZgBBhodHh2lu9KX83mCEDmtU2mvZNmQg4aQD2NFiJOMeTpzqw2TcQmFRFdLjU7AFh0EriwVwmIcUM1Bc3xZvXrvr9yoaH/pLxubqc9zods/9+DUYyb1Nr9ji+MCB1r6zR37Qd/boDuFMoYRq1z1HUQy7vgfDCr0gnFloaqpEdS2D6w5BkOKvSqEKp8qTpNdkgnEz4368TgPQj1mRFsiKRIvMnu5zwBOrsEfxjHRiwoniiWf2YHBwRHF6ZMEIubpnQMmCLHOZBhO1pQDOLBi5f/cOFAUUptmIu24uBvMH4JPGQpgGvqCn65vz2QIZkTy1ZjKq55cwV4f0kcQnYtgM6ZQLwSOQKMaFzjiGhhJwYaAgGkM6HoIRUxiYTqcR2DHIWKnXsvn2H0XL63+rqmpXfz5bKh/6rr/J12mWKFzTc+zZX+nveuuvEqMXYAcJGIxohhlcj8rIbNL2hQxMVJQXoK5RIFKQAuQ0GIERVRuvQpphIhZlgivwQjt3Lo6n18kQ+jHLxgJZIEIduiowQm5shJ6RxQQjtKRlBoy0rWtWYZpCf3IGjMAfUGufopZCL/1ls56uf0euAEZoPcxxYBAYoRJdx0+qQxxYEUaGXPT3ukgkQhJKL52CbZIHxVVDIIDiW0Woal4/sKpt8yOVNXe+qJNWF392NRhZfBvPPGGs61DpxcG3/tfguRMf8KaHeJQOf9yH70kwRECUkn6QhmkBtbVFqG0oQhBcVCEczsKscFWWRodCRicBOhfSkVbvyNdxGlfMo5YjGMmqV2swsmKW2ZIORHlFLAvJZArRSDHSaQtnTg9gYhwwRAG4EEjE44hGCKgwOJ4HX0QQK68PWtbv/KPKNQ9/Q4dnrs8UajByfeysnhKW+j77kd7Ow38xMXShkftJ2NxTir6QNiRleyMJT6ZQVlKqtGtiBQkwTh6SUKsmS2lMYgkhpfH7xUyv4wD1o/LKAvkARtasb1E5I+/wjBCVN2PaM5JXK24ROivJS5w9kM3NoaNXG3nxfAhhwlcM2DFcvOjg/LkhOA6HbRUqzic65FGo3LKjSBMZmlmA1nU3Ha+sb/9otObWrkXotW7yChbQYOQ6Lws5fLKop/fw/9PfdeJXp0f7zRh3YHKBwKNE1gDcTMJ1HZhGDGXlhahvisKw0oCMI5AuDC5U7Ty5qSm5NTdx++tsBP24ZWGB5Q1GwlySNRtaVJimwJ3NGVFhGg1GlsUaWtpO0CEuzBUBoxBLFozMVh5KSrgOOEyrDJMjLs6dm0AyQQwiMtxLPQnTjiDluPDI22xGUVLdNNXSvv33i5vx/+lS3us3wxqMXD9bzzxptPelpr6zJx4f7DqxxfamEOGkyWSoRFVuuwgCCt0YsCwDq9dUobCECHqm4PlxGBT3JMzvuwqM+HPfKEswFv3I/LVAPoCR9o2tyjMSgpH12L2rCDwYVgms2jOSv2svNz1/DzCSeQATDL5rwODlOHduFH09U7DMKCTzIQNHCZFKAiHCwljSQUFlvd+2Yfs/F5Y2fa2odsdwbvqpW7kaC2gwcjVWWoTP9B574l/1dh77Znr4XDTKPASBBwnydoQJgq6qXGAoqyhEbX0JCoqnEfjTEEqqlCjl03PAiOYaWYQpWvFNLjswImfVlyTx57AAM2DEm8DH79+Iu3YWnS3u0gAAIABJREFUgclhVdpLnkRBJfL6ukEtkAUj2URWSqaj9UAyG2QSyqkzgCCKkRGJngvjSMWF8oRIpGbAiE96YWYUaW6junnDQOO6LY8UVd32wg1q1CUbtgYjS2T6qf43q/q6Tn1rsOONT1hBHIzUISm+SUidklRJw4lzOK6LNWvrUV7pIWATMBht2H4IRkhzIZir6LtEg9GPzUsLLBswotzsgcrDnlUaCcHI2k2rce/u7Si4BIwMIaDvAGcha6a+bmALXIEMklEQhi5Dhb9NUYZTp4ZxcSiJSKQ0o9abDNec68OIFGLCCVBS04TGdTu+uWr1mv+Dsfb0DWzUJRm6/iYvidnDh1688MrNg0cPfmds8PQmGUyxaMRAOkEMgTYcNxkKPBE8MTysWV+BWMyD4A5kkAYn5QSS5+BE06NPh0s4jXn76EsifLQpGwY8Kmex6/D0C4N48bVejKXsWZ6ROaW9uRt0Zu2+CxhZt7kNd92+VSWwfu6ju3DTWjrvDkOYHJ7UnpHczUO+tkRJ/QY8orIm+GGTIJ4Hz3dgiBiEqMD5zhEMD7jwXAEuQlp410tCCCr7NTA2lUBhZQMa1m95vaC87ecqGm7ryVdr5HO/NRhZwtmTHR123+SR3+rreusbiXh/RHpJFCt2wBQiUSI1cxBIBsMESsoMNLdWgPFJcJYG871Qa0EBEQ1GlnAa8/bR7wZGpFWLZ/cM42f7uzGejlx3MBI62jmIHXb9ljUKjJQgjs9+ZAe2rqEAzjC4ESZxawbWvF1+Oeh4JjwjOWSQoTowfASBo9oWZiESUxYudI1jYiygMhkIi6t9k/ZWcNo/CYCbKKtvHWtYvel3ylsjf6eTVnMwNfNoQoOReRgtl7dM9hyoGL7w9r+cPXXwTou5sLgAPFcxAXpEwsP9kPWSAWvX1qOoJAXG4iCfiQrnaCCSy+m4odrKghGlaupSCaRQnhHfqMbPXhnDT185dykD63XwjFBGFF1ZMLJhaxvuuW0byg0Hn/3oDmxs9cDkkFLsVeRrWrX3hlqzlw42UDxNSvxORsCIp0k6YOp8JiD9CHrOT2NwMAnfNWEYlgqF03InRQMpLCRciaLKuqCudf1T5bXtv1pQtaPvBjbokg5dg5ElNX/48OGOJ+85+fa+fwlSkyVIxRExGQKHvmH0gpCqBp4YV8vKo2hqtWEYSdgWh5dMghnZ7XsZDER3Ia8sMBeMMC9QBFBU9Eh08C+9No2n9pxZcjCyaUsbdt+2FbUFDJ/5yHa0N8bB5bCK9wczYER7BvNq4eWss7NghDPSnhGqZFeYNmjLnJxw0Xl2BKmEQMQuUGDFcZIqF4+TnAaz4IgIqlvW9tc2tT9S1njfiznrmm7omi2gwcg1myz3N4yOHiwZP9fx5+dOHv5Fw58Uhp+CQZngnBC8Cy+QEKJAlfY2tRSguiYG0/DhOlPgXE9h7mfkxmjxHWCEc+UZcVglXjvs4ifPn1Q5I08+uzfUplkCz8jGzasVGGkuM/ELH96B1toJBUYkJbBS3qvyjGgwcmOs2MtHOUsHz2Ah8GnPNCHMAkxNOOjpGcXYSFpJbEQiUSWY53keTNOE9DhS0kCsfjWqV2/4s8b2Vb/L2K6QD15fS2IB/SZbErNf+lBiZh3v2ntX56lDfzU51LHOlGkmAg8R00LaI0VfksmzkfamEYtJrN9QC9NMwDAcFTfXdPDLYBLzsAtzc0a4L9WJMQtG3jrB8Nizx3AxbqickaGh0cUFIxmBs8vDNARG7rx1C9asiuHnH96GplXj4BhUIRoNRvJw0eW8y1kGao5Acggeg+fbGBpMord7VO2bQZBZ20oDTISMrE4AzyyUdZtvO1zZuPazxVU3nc5513SD12QBDUauyVyL92EpXzAGjk7/b2ePvfJHwp2wgvQUbMOE55tgwlCxTkro8700GhqLUVklESv0EfhUW6+1aRZvZlZuy+8FRo6dsfDo029jcJItKhhhlKiqTByost6sjyObM0JhGgIj6+uK8XMPbUFd+cUZMELBf+0ZWbnr8+pGlqF9hwvGqJSmAOPjQH9fChPjKVgWCYp6SjaDAKxh2Erbi8gji2ubx8rW7fp6ZVPRd7RX5OqsvZif0mBkMa17jW1P9h2s7O08+Gz/2cPbiwwfTjKBiFEEzw0Ai5RSJTwV209j3YYqFBdLBDKueEdIq2b2yoKTOfTI6pcatFzjlKz4jytAQidHSujjTCVKU5jmVGcBHn3qMHonAjzx7IsYGhhVtlC6vblW7b0CGPEzpGdbtq3DnbdsxIb6QnzqQ5tRUzICLi+qMI1KvNVhmhW4RudqzFw+vBB8ZC+SGKU0fiYDGEYMnhNDb28cgwMOfI/KeH0wTntnqEFDuXfxpItYcXHQvvXWH9tVa35TJ60ujyWkwcjymIeZXvSdfeKRcyfe+NZ0/4VYRcyATLvg5JI2oHgVPHppSB/FJTGsaa+CsAbBkFIsgwwmOCOA4oBJKv2lryrRx1NiV1Zam4CL8riHLxddjbDMVsB17k7gKfI81/PABJXT0lqpRkdnAR579ii6RuP4yXN7MNw/FnaMuG2Ywi8zbJfz7rF6r4S+kGyReuYRpByiHrZpczvuv2MLNrXa+MiD61FVMAbbTMBPU9UEVZnpBO55238Z3MgzG1GQlWumBaY4Z7I+suzf4YbF1c/D0Azd43JffdYi4VAUqBLeEycHABSBMVJCDxTTKqe/WQBHCrg8gtWbd4zGyls+tqr5/n2MNkp9LbkFNBhZ8im4tAPj4y+V9Z489ccj5zp+CfExMwoPnDwfmXh+wLiKgRrCQnVNBPXN9HaIQ7qGEo0yBPEveIBM0y0ZISkNRpbZNC+L7pA3BFTqKAQc4mYQBsCIAbgaXV1F+JefHsOZ4Un8y/N7MDyYASO0FENnSm7ASIa+m14HsyEaOvuGAmhbt6zD/XduxLb2CB66Zw0qiqZgYgrS80IQQ1w7ehdbFutpPp24FIxk8j+UCm8WqM4BI5Jn1sgsGPGNjBCejMBLmzh3dgTTUwxpzwQXNgJJRJEUAgwZe+M+UFa/2q9oWvdfmtZ9+vfn02d9z+JYQH+NF8euC2r1Yvczt/afPvG3g12n1hdwCSEdcMHgkbeDU/4IVLgmEguwbkMJIgUu4AcqmdU0uHKj+36YrMXCt8Y7NuxZz8iCuqpvzmMLEBghjwShVocArKDyLdr8q9B1oQSP/+wkTvSO4cc/2xuCEdotiPoml56RjP3eDYzs2LoB9+7eiFs2l+Cum2uwqjQBuGOglO5suEiDkTxehHMEALIej/f2jCiUMrOnBZzBDwRsVoShgWl0nhlGxCyH43HFNUIEaFzQGgccSvaPlqJl3c7DhRWNv1TeeM/b+Wy5ldZ3DUaW4YxK+X3Rdxj/uuvUkT9BctLiMgVD8Sr4YY08E0i7BEwc1NTaWFUbQzQSwPOTEIxq6EPvCZ0amWIEIlmx7EUvG8oNCL/Q2kG5DBfAderSXDDiSl+BERnQS74S57qL8czeDhw+N4yfvPDKrGfEmwUjxNtAIcN5X3N2nyuDkQA7t23EA7s34a5dq7Bzcxmqy5LwUhdhqaTuUMNJXyvFAnM8I1cM04S5TdlLzT0z4LgCvhtB19lBJCcpIToCS0SQ9ki/S8KVDqTgSPkCtS2bxiubNvz+qtUV39ZJq8tr3eiv8vKaj5ne9PUdjI11vPX44IWT9zE3jiin0IunToSCG3B8IvyhPyk0ry5HeRWVtiXApKtK1+CHmzURp4GFLu3w1CvCv5UrVIdKl+n0X5duzQ3TuJSUKugkSR62MvT0FeO5V8/h4JkBPP7cqxicG6bJeEYI7Ko1Nt/rCmBkdlWG7vkd29bjA3dtxv23N2BzexTVZWn46RFYwsyAkQU8f7791vfl2AKzR6XZht+LOyb7eQHBYnAcA7190+jvm4QtyuCkJWzTgE8aXhYpoPtIBBKRshq5ev1t/1xQWPMbxQ23juR4ELq5BVpAg5EFGnAxb+/teOZjZ48e/Jv0+EBFRDqwmAcekDAUhx9IFQN1PQfVtTHUNJiIxFwgoBI38oiYoXYHgZi5MVhJCa3ZZFa9kS/m/C33tmfACOcUfZkBIxJlGBgqwUuv9WHfiX489uxL6Ou7GGLXSxJYFzjCy8BItrVwVYaJiju2rMND927FB3Y3Y0OrhcriBKQ/CYMJtc79OT6/BfZG374kFrgSEMnO/5U6NOfz0gRHEeJx4NiJXviuDcELwAIq+Q5zRVzmIhAC09JA8/qb4lUNN32ovP62l5dkqPqh72kBDUaW8QIZHj5ZNHz+jf801HXiN+TURTPKfRhUJA/Al/RWIDc5AxcuqusNBUoM4cIPHOU9USVvyHhF6CYqyZGZ6gPtGVnGM399ujYbpmFwqLzXMEjyFBKlGJ0ox75Dg3jpyAAefWovzl3oV2CElg1nPFx/C73m7j4qfyW85oKRnVvX4+H7t+IDdzZgY6uN4oIpWCwJj6KPSoREA+qFTsPS3n/l6plsOCbIHqSya0PNeXixwIaTjKC/fxJ9AwmYZhF8j8EQAtxLKc+xI30EdgxWeZ3buG7nn9asfvjrjOp89bXsLKDByLKbkks7NNjz0rbOYwf+Lj5wbht5RyIyzAynlwETFgS3MT5xERWrTLS1VyMSSSvaeGGQOiWVvWU267khmvCbrDfyZT73i9+9QIX96P9pT4KbBEZ8cKMMU9PlOHD4IvYeGsQ/P7kXZzq7Q8ZTqqbJFRhR63AWgcwwSKifUTJtgFu2rcOHH7gJH7ijAetbTRRFJmGaLlyX8qcIWGswsvjrZLGe8O45IlcGI5QPkl0wXNEZTIwAp0/1Q1hFSvhOUS4FPiwRIJ1OgtkReEYhGjfe/HJJ7bovl1bvOrtYo9HtLswCGowszH6Lfjcxs54/PfZrnW/s/+8sNYmYUKLXKg6qEgiD8KRgmD6KSjha2srBRBIB4gqMhHX5HIw8ItmkMBYo7hK6dALgok/hMn5AACEpGCLhEZW2ZUP6DjwvAvB67Hm9D8/t78Oe18/g9TcOh6fRTEkved3Ue2GhWICwEOeQlANF7dM7hv6Lyr1kgJ1bWvGZj92B+26pwZZ1RYDXi4jpwZfkFSTvyDI2r+7a+1iAuD/ULjTDpJst9c0uLKKR8VwXhhWB47iq9Ny0C5BKpSGCQhw/3A/XNRFwA1RZ43kOBAMIV/u+RMozUbtm60j16pt+u7Txru8ylk2g05Oz3Cygv8rLbUau0J+jR49afOzlx/s7TzwYhUu1NKokU+nSyFBrgQSgIlGGmvoIKqstMBGHHyTBKTRDYCS4NDwze/LIAwPoLi6SBQiM0AuBww0EDMNA4DuQ0kYgavHy6/14/rVhvHSwCy/vP5gBIyH4XQwwohrOeuEzQOO2bWvw+U/dhTu3lWXASB9MIwQjuUFDi2Ra3exVWYCIyEKQG078JWCEiMqkVGrSrhdAGHY479JUCr09F0YxPujD92m9SgREgke8TJk15PkcseJ61DRv+V5dy85fY+VtE1fVKf2hJbGABiNLYvZrf+hI13MfOnV439+kxwZrLJ4GI5ZVOtNSjb0dQSpJp0oXhcUB2tZWIBJLqlLf0BvClIdEnWrJW0Kn2szPZ5kPr71P+o58t8AsGPGkkaFXp5JxGwEq8cqbA3jh4CRePdSDF156Wcmyk5ZMrsGIcm8oF13IB5F5gPrxPbduwJd//gFsbTOwbWMpArcPgjvqpUQCkuQ90Vf+WuBSMEL7VHYsmQSlDLGdS3oyRAHpExAxEI/7OHX8PIygFJAWPE6JqkT5HoawvYCDiUI0rdkxUdGw9qGSxrsO5K+VboyeazCSJ/M8NnaodPj0if/cfebQVww/YcKdRtQSShbbELbSYfD9NAwrjfqmIpRXCBiWmym9pLBMWJ0gVFA1W+ZL7JUL9bPniQF1N69gAXKPh+E+H1QqS8ozLjgz4aEYrx8Zx543kzhwZABPPvdTlRyY1RHIpWdkFoyoo3EY+5EkZgY8uPsmfPmz92NdQ4Cta4sAv1/x63iBAWHQi0nnPuXz0g7BCB2UsnTvIdQNc9ooL04glXJg2zH4volARuC6Bnq6hzEynICB4sz6TYEp74iHpBMAZgGKyhrQ3H7zN1et/dBvMZVAp6/lbAENRpbz7FzWt6Hu/e3dJ177x7GBs7uEH0dMyXcQ22oAQ0TgBy648GFHAtQ1FqO8IgrfjwPMyWijeipHIBu2oe+/BiN5tABy3tUQjJBCLuNRFfajfKSAMbhBIY6cSmDvGw7eOHYRjz7xOFwqzMpUY5E7PCc5I5mTLwEhdSnFvrC0xjaBh++9BV/45G6sb5RY3xYBD4YVGHGV9IEGIzlfEte5wVkm6HcBI8QO7PowjRgkbHheFMPDCVw4PwQhCiC9bPiZ9r4AHiQSrkSsrFHWNm88WNG4+ZeKq7adus7D0o+bhwU0GJmH0Zbylp6j//Kl00f3f1s4kwbz4rBNE57jwjTJM0IVBsQ9EkdtfTnqG8vAWFxp13CWVicOodzhhsohoVwBOn1oQLKUM7qUzyYYQi5tkqUpUOvHJDc3AC+IoKOH4YX9SRw6OYF//OEP4LgEFKj+hgKElEyYgwTWy8FItupSAAW2wCce2o1PfXA7tq2x0FxLijWj4MKDEwhwwwTztWdkKVfQQp/9fmCEdLaEFYObljDscsQnGU6f7kM8LmGZBaGTl5ip4YZCeAGDLwpQUb9+snb1TX9Y2VL+TcY2Owvtp75/8S2gwcji2zinTxgefrlo4NjhH072n3nQjY8xmzbksB4iPFgyA67roqDQRnVtISoqBSAmwFlCuT6FT6RnBEbMmUx2DUZyOkV51Fig5GgoOZDzQhXSM5ij1KEDFkXfaCGe3jOJIx3T+Nt/+kekHcpR4osPRmhXEgwlMQuf+9gD+OCda3HHtjJUFk9D8DEww4XjCTBhgCvtJR1qzKNFd0lXs6W6MwmsisSOPGO0n4VJ+sKMwvcMuH4UA33T6O2ZhBAlKm+IvCHEOs2lq6pnPGaisLwBlS07XqlsaPlsrPKm3ny1zY3Wbw1G8nDGh888fV/HkVf/xp0eaRZuGtGIgbSTUMJ4oRudq+qaomID6zZUAWIcnE+qL7gCI9JSpb7ZsjoNRvJwEeSoy0IwOI4DYUTDygXSMaIXvIhidIrE8sbxdkcS3/qf/4Ck4yMgPhIFf0lmIDc4YIZWPrsbMSivR1mM40uffhh37WzEvbeuQlF0FIxPgzNXhYwIjOiUpxwthCVqZgaMZJ4fJrDOyRkxBJIJF9HCaowMJXGmYxhSFkDwiBILldJV5GacSbieBOxiVDdvnGxo3fGhWMOt+5ZoWPqx87CABiPzMNpS3yIHDhec6Tv+B10n3/itqDMZiRDTYDoM1dBFCYkp0meIMKxaFUVjawEYG0HanYAJW1XSCCMCqdhc6RR8NSO6/PSZrWJ4Lw2Jq2lXf2YpLZDl6ghzR6D4GjhxNgQe0k4NfvL0OA6dTuKfnv4JevsGw2oXWjZUnTWjTbOQihZKfPJCXKMiiIIIItT7qL6iEL/xyCexa3Mp7r9nFRynG7ZJgNtTp2F6PgWaZktwltKS+tnzsoDiBvEUN4jBSVNLhpQFSkBawvU9RAorkZo2cPrkAOLTAoaIIpmMIxqxIImDxLaQcH0kA46imia5fsut3yltLP/XWghvXjOyZDdd1WtoyXqnH/yuFug+88Ka/q7Dj8Z7T22xg5QCIHRKJO+I70lIxT/CYEc9NDQXo7TSQ+BPh59hHJISBUgL/qqJzzQYWYnLMZCkAk2u7rQCpQGLgJGUQODCSVfiyZ8mcOh0At977hl0XegOvSEqkTULAsKqh/lds20QQ7daYeTYIyK/IMDq2nJ87Rc/ia3rYrjr7hJ43oACSiyg2p9Qc4mySEJAoq+8tADtQaQwTurPin6A3GIsBJrqV8SKF8VAfxr9fXF4jgXGKDTtqXULnxTJGVwjBseMypZN24+VrGr85coaXcqbb+tBg5F8m7E5/e0+9ugXzr+9/9tBYjRicgYZeLAMG17agWlE4dILRiZRviqClrYyGIYDyCQEJbkmQ09KKMM+n5i79ozk8dKZ6XoWjHA4M2CEAjEERlynCs+9kMabp+N4dO+LOHbydIg7VJpGjsEI5T3RbqTkZuilJLGxtQ6/9UufwPrVBm6/tRCQw/AVZ04AU4QvIkrC1mAkn1dioEgb6XBECdR0mMp63Ki2S5gxjI876Oq8iHSSAoQRlRsSsWyVG0eX5AIJaaC6tX2iunXj71U2mX/N2H1zRLny2T43Tt81GMnjuR7reqG079yxvx/v6/yY706oM6LJDARuoNg0STDPDdKIFHDUN5airMKGMJJgfjr8DIERkoyf1yrQYCSPl84lYERwgh/EvCrh8QhUVkjgIu1UYu+rHg6emMYTB/bjNaKEz+YXIhRpDH+wcM+IylXJ9kpxwgfYtWk1fvORD2Ndi8DO7VEIPgpKC1BgxGCQPr2MNBjJ53VI4UCT06GIqmIYOJfwIRXBHhcRSFmM3p5R9PWNgjM7DCG6gGna8NxAkdF43AKsQqzZsutHkbo1Xy0t3TqWzza5Ufs+r9fQjWqs5TZuKSUbOvnUB3o63/7W6GBHY8wImPAAk06LSrtGwqfYK/MQK7LQ1FKB4mI68Y7DYiZ95cMwzVUNTLvCr8pMefYh8ozMghEGl5lK/4PAiOtWYP+bHPuOjOL5Q2/jhb37Ml6RsGpL8Y0tBhjJiOTdfcsmfOWT92LjGgtbNgmYYlKBEUHBGS4R+JQ3IrRnJM/W3NzuEpSU6jQkwDlHQKXlqlybDk7FGBny0H3hIpw0eVAIAPsQRN3occCwkWYcnrDR1L55vLy29ePlTfe+lMfmuKG7rsFInk+/7OiwO0Ze/d3ezkNfN/xEVKQdRIlzxE2CGUKlBoalmoECIzXVVIEwAVOIUIfkqpXGNBjJ86Vyxe6rwhlOJO/kGQnBSJh/5MF1y3D4RBQvHuzDS0fP4MlnXpxBriEYWYhXJNudjNBjJpF6BhhL4CP33Yxf+OBO7NhUhPa2AAafVGEag3EIuCrJVoOR/F6VtPZ8hyQIhNqvfKU5YACsAIEXxdnTIxgZjsO2bSWiKL20AiVemgNWDFPgiJbXpts3bv+TqraGb2hOkfxdDxqM5O/czfR85Myexu6ug49NDnXuMNIJ2JTzJV0EdGqQhoqppgMHRSUmmhqjKCkGDJaG9NOQJIt5TVcWlGSXznzyTa7pgfrDi2gBAiNcMAjpKE9HFowIFsDzS3HmXAmeeuks9p/sxg9/8tyMI4TgAMmSKVr4BV1ZMBLmLqnWOFcCfj//0Xvwkd3t2L1zFRrqHUh/jNjZFBhhAZH4hVTiOmdkQROwpDcLTsAiHYaMOYPjuTDMAvhuFMNDafSen4TvGjAFUyW8QeAoD4oMLKRgwi8sQ8OabQfLq5q+Wt5425ElHYx++IIsoMHIgsy3fG4+99b3P3X+xGv/ZLqTNvfTsLhUdfgQMQVGXBnA8abQ2FSI5sZSMH8cgnvzeJVoMLJ8Zn1hPaGUD9KZoxMngZG5nhGTeBuCElzoL8FPXujAa6cG8L9+9IySDKHCBwIjdCm+kQVcYbIicbpSoQ5VUJAiGoMF4AuffBAfuJ04RhpQsyoN17k4A0bgp5Q6KwlFzi/naQGd1rfmzAIkT+F6HsxISMKYTHuIRkoRnzbRcbIfqWmBiF0Mz0mosHPAfbVeLDOKsZREWeuG8ea1O367vOHOv9X6MzmbliVpSIORJTF77h86NPRC4cSZM9/s7XjjC2aQEHR6JHE8yW14dPw1GPyANvAUWppKUVcXge9NK/p4qvOnK3wxEKU8BwmiUnY7y7x0ZnuswUjuZ29pWsxScSsBxYz6LRXN0stdUJUVStA3XILHXzyNfceH8cMnXkRqOq3yRkxhwfNJCWSBnpFMaadgFgIZQBpUz+mqVfdbv/Jp3LGlDHfurEF1JT13CknHhSUICvmh296nPIOlsZ9+6sItwKmil0lwSyLtuOBGAWRQhAtd4xgamAYLbFgWVdD4KixnWKbSqqGdySyqQuPmO56IVdd+obx818TCe6NbWEoL6K/xUlo/h8+mZNbB4z+5r6/r0P8YHzrXZsoAFqmawgpBBVUfSBeQaVRU2GiojyFaQPwSgRLYIyBCwCSbB6CACZ16VQnn3EuDkRxO25I29W5gRAFTBTOK0D9ShKdf7sS+Y6N47ImXMD46pfpMBFV+QHUPCwUjYbSFk2owlWkSB5rvojBi4N989eewe1sJbtlagfLStNJZch2qFCOgnanclBqMLOkiWuDDWUAHHxJmTIJTiS8rxMiwh4HeBBJxPyRCk+G+RKy8nhRIu0SEVoDy+taJspbtn1vVeNfTC+yGvn0ZWECDkWUwCbnqgux6IdI9cv7fd55683f8VMKOWcRoSFWSpD0SgFHZnEunCw+1dRHU1BUpgSlk2Czp95KSXVViYEg8ROWeGozkaoaWVzvvBCMcVKtAl/KMsAL0jxXgZwe6se/oOB57eh8G+0bUy4EcGJQYveCMoVCrkc65oXHUGvSwqrwQv/6lj+Oum0qwfWMxSoqSYEiqkk8CIyBvHpG1QYdpltequrbeKDBiCiRScdjRQrhODB2nBzE1RrpJdqid5LqqpJc4R+IuQzpgWFVf7TW2b/lmRUHLv2c12+LX9lT96eVoAQ1GluOsLKBPg53PVfecfuOJ8aGencRSyX0JwcipqbTH4PkMXhBHSRlxj5SguJAYOL0M6AgBCwESAiHE4Bp6SrRnZAFTsmxvfX8wEkX/uI1X3hrGK0cm8PgzB3Ghq48IM1X6KvlF6FoQIMno2zCSKVBghHICPKxuqMaXPvcg7r6pCDetL0RRjDwjKXiUUqLByLJdU9faMcpBYsJUoWRi/x256OF810X4aRNRO4rAS6p1xoUNyaOIuwZEQZFsbGt7u6Zt05cGQruiAAAgAElEQVQLym4+dK3P1J9fnhbQYGR5zsuCenXh6KOfO3fqzW8nJ4cKYgywCWD4AR06AW7B8ZMQlofyCgvNjcWwrFAd0/ddBUDUa0aSN4WrHBINRhY0Hcv25qxQInUwzBmhypQ5nhFEMTBh4PXjE9jz1jieeu4wTp/oVImmStMoM7JcgBGOWFidw0jt3cfmta347KfuxN03xbB1bQGKohRKTCswQmuU+b7KayKOCp0zsmyX2FV0jA48Jky7GKMjaZw/P4ZknMLHpEHDAd8BN6ki0ELcEQiMYpTXtyQb2tZ9o6Kp4c8Ya6eyKn2tAAtoMLICJvHyIYyM7C/ufvv1/zrUc/KrES8hbMr0c+kLzsMEMOnCkR5sy0H76hKUlJgKeLieozZ6VSMRkGs0y7CpPSMrcJnMqDa/KxhhEVycNnGoI47nXx/Fsy8cx9tvnVhEMMIgWUqBkVu2b8AnH96Fe3cWYNPqKGIWlXQ68APKbSJ9HA/C5KqyR4OR/F2dtO94HnHblOPC+TH09IyrShnyvAWUTC89CMuG4zFMuwKxigY0rNnys7KWtZ8pLt4wkr8j1z2/3AIajKzQNdF79NHd/Rfe+k78Ynd7hJgYXKGqayjY7zEJh3ZwlkRFmYPmxhLECgrgeY4qn1PMrRqMrNCVMTusSz0joSZMkCHBC3NGIph2C3CkM4mnXx3Gsy+ewBuvHc4tGJnJGSlQHVNghPm4785d+MiD2/DALYVY22jAEgmSQ4PS0smCEcXISf1c8VO1YgeoyssRxeiwie4Lk0glqWw3AiaTSs6CqP+ZYSLtcshICapa1g/Wrtnyi6U1tz+3Yo1ygw5Mf41X6MTLjifts5O9/6H3xBu/YweuKTwOg2okiH8ETCUqBsyB7w5g/bp6VFQWw/MT4IJKJkPRKoPE996RwEoGm1tRsyAn/Qq1fn4M69KckbDP2TANlxQyiSDNCnGsy8Hjewbx070ncGDfWypnhAI64ecXmDOSMRXljKiVxFy1/j507634yP1b8IE7ytBSR2GZSQVGqM8GFwhcL0Mfnh+2Xvm9nKtVNfe18m77QyhySLTuQpSh49Q4hocTiNplisgm8JMKlAraqxiRNpoorKz3mzZs/x+Va1p+l7HN0yvfpjfWCDUYWcHzPX7+pbLzpw48PdrXeUuEBKlIcj0IIAwLjqeKIsCFB26ksGZtNaKFlDOSQiBTqpKGKnFIrnv2olBP9l+aHj7fl84sGAlzRmhuSSRPeUeIowYGXERwtjfAj57rw6tv9uKZn70cEqUp6hpi+F1oRQ3V8gZgtDYVzqVEEB+f+/BufOyBzbh9eykaaklKfgq+F0fMDoEI5VVzw3oXsJzvM5NP/c9mIGdLrQ1AUt5R1uVFvEWAF1DuGYchqCTcg++nYYgohFGDsx2DGL1IlVJ0H2kQkdRAhsOGccQdH1ZRlWzesP3Nwtq2Xy5bdctb+WQh3ders4AGI1dnp7z9VPfh7316oOvkd+IjfcVRQ8IEV14PKpUjglafKiMsD6UVEk2tpWB8AowT9TYlsBpgAb0cFL+8sgHxkoSXBiN5uygyHVdgJDO3IRghQGAoMKJACXF/MBsd59N45pUx7Hm9G0++8DJ8J1BMrOrUqtJO53uRJHxIK884vXxoWYU/+eLH78JHH9iM7RsK0VBrIBBT8NxpFNC7Tp2charCuLLnbr790ffNzwKETjP7giReENobZsEI4z4CtdhovknEkz7vKyG88VELPd0TSCWoWkpAeuErKeQVIeZojkDYKK9vS9W0rP+ditbKv2JsF8k162uFWUCDkRU2oZcPZ6L71fKh88f+3wsdRx6x4SNiMLjJBCzLguuTK54DVMEgJrFmbQ2KiiXA0ip5lapqOIGREIXM/WuFW+3GGN7VgBHOozjeGcerRxw8v+8cHn/+JaQSDlXgZojRFhKmCV9ORJxGoZksGInZBr748Xvwsfs2YMNqE/X1BmAkFRiJ0ecohCTFPHSVbox5vb6jvPxwEnrVZsCJ0pMJK/NUcI9OP6C8HwOBjKLzzDjGxlyVXC9oL/Iywp60MiwbSUeioKwaTe1b9tfUNTzEKm6bvL7j00+7XhbQYOR6WXoJn9N37PG7us8c/nZybKjdkGlGWr6kPeJ7AZiw4QYpgKdQWm6iqakchunDshkcN6Fc8RqMLOHkLfKjJZXpMjlDB59NYg09Iwa4iOD4mWkc6hB4/tUu/OjZPZieSEDQC4cI8haUM3IlMCJQXhLDFz+2Gw/fvRZrWzjqawiMpFSYxmaU8UQVNKYK1ahwor6WyAIZj4jyhJAHNbtXZFcFxdIy7KmKJkBCBhyGEVHidxOTAbo6R+GkmcoDYpSMROCUGfAoZGhG4TELqxraLjat3faLhXV3PLNEA9WPvQ4W0N/k62DkpX6EPHrUuuAc/T+7Th/5A3f6olFicyBIh19+ovX2yWUawPUSaGyuxKqaIlgm/XsKjITLqMJmboKBGtD8nfNLbQ/9/FkLEBjJBmXCab00Z4QJC6fOp3Ckw8Dz+8/h0af3YHRkcvHACDjqasvwyMO34aE712DjagNVq+hdl0Lgp0jcQDnpAi5UiJHgjL6WygIERij5jGJndpgrovYLYselSAp5u0KPiBK5U0y7BgyjGPFJqcp4x8aIJsSAxcQM0yo3bCQ9BpebKKtpSde2rP/L6orV/4FVrQ+1CPS1Ii2gv8krclrfOajpwf3Vx97Y99LYQGd7keFC+HEQkaUvTeUqpxOm4yYRjXGs29AE00hBmA4CmVYbzAwYmXHBajCyEpbO5WAkUC+PTAIrecW4iZ4hjteP+njpUD++//jzGBwYU2CEhO0WBkvneEYEhV9Ci7a11uNzD+/Cg7e1YEt7BKVFDgKehoQDixIb6YRNSY4EpPQyXMJlOBeMRDP5RwRG3DD0q7KBxIz3ikJrpMcceFFcHHTQ3TOmVJcpZKPkBRwXTBiQwkTc42B2iWzduPNwRV3blwurdxxewoHqR18HC2gwch2MvFwe0XH4sZ8fOHv4r73JgeIIpiEoERC0GVhgfuhi9fw06hrKUF5pIFZI0fz4e4CRkLVTX/lsgbAaYrZUl3I4Qo7VMPZvYjxRjL0Hp3Hg+Cj+8bGn0d19MQNG6EMLqabJJrD6YHPAyKYNrfjcQzvx4G1N2LouCtuahCddVXZuElMw8eGYlgYjS77s5oRp5Fww4kEqQEIVNJmEVAr5MRvSj2BizMNgXxoTY2mYpqnIzQiMKJDJqYyXA1YxSmqak/Xt2/5VRdM931vyoeoOLLoFNBhZdBMvnwdM9h2svHDmjf/ef+7tXyhgSc79sIQ38A2YLKIqGzzfAeMprN1Qg1gRJRYSCZVzBWd4liZeg5HlM8Pz6UkIRqiahiJxBE7J2ZAFI1ThkAoq8dwr4zjUMYV/ePRJnO0anAEjC1XtVYmMAeUuzXpGbtq6Bp9/eCcevLURW9YRG+cYHJmGZTBw34dPInmkSD1b5DWfget7cmKBzIFkppw3A1A5gREq96VkYyrNtmAahfCcCPq6JzE0kEbgCVg2R9pJqcosZgjFYRP3BArKatC0ccdzvKz1kzVaCC8nM7XcG9FgZLnPUA77J6Vkw+d/9qGuo6/+5WR/R3NJTKgSXqLUZjIGqfJC6KWUQmkJQ+uaKliRNFLpKdgW8UFkL4m0E0c0GoVPmWbaO5LDWVqapq4IRhQoEXCCSrz6los9b/TiB8/swYmT3WrNCGbAlxl+iXl3mxIaiRLcyywjhlt2rMVXP70bt2wsxqZ2GwbG4KudKoCRieXQvzUYmbfRF+nGTCWNqhgPy3epZDsIKFwTAUcRpsYFOk71Q8ooSLGXyn4934VhGADjSLgBPGajbdvNAwUVTV9Z1fLAU4vUWd3sMrOABiPLbEIWuztSHrXOvHbgPw6eO/H1IDlGeevkH4WQBQqMkKdEIgnLclBVHUFNXTGE4SHww5MOlfySoB6V7ikhPcXFrb0jiz1vi9k+CSiyTLJhyDGSda5LcEm8p9V45c0kDhwdxQ+f3Ys33z6LwKVZF6RitMCuhfTuintC5ToK3HP7FnzpE7uwoz2Gze02OMYzYAQajCzQ2rm/PfsKya6DsKpmRmqAuZRyDI4CuGkbXWfGkJhmcBxSXzZgwIevCO8YfCGQSANVjatTlS3tf1pf1PxHrG5XIvd91i0uRwtoMLIcZ2WR+zR84dm6/o7jrwydP9kS4Y5iehBExz0DRlz4/iQiMYnVrVUorST3alwlECohTd+BaQl1mqWTswYjizxhi9i8UnJW4COsfPAzpbLhxiBVxZXktXjpYBxHOhN49Ll9ePnAERJTneEIWUj3KAykvHHk8aB8WcPEhx+4GY98eCu2NAtsbIuAs4mZfokMrYVPStQ6TLMQ0+fgXhbqXZGCM4VlqNBbWqqqRvEXqRJsSjhmMEUxBgcSOHPqImyrFETISmS7lLdGxHkehQN9Dh4rQfumHUcLyhp/qazhTs20moNZypcmNBjJl5nKcT8vvPXor18489af+PGhmJAOTG6r0ju6BKey3mkI4aKiPILGplWwbAnPT4JlsuSFQaV6tPlk2RZz3EHd3HWxwJXACDm7FEBVdBES0liFV15P4mi3g8f3voFnnj+QUzBCjKp0kYdEmBY+9dHd+MyD67GhiWN9qwDHFHz1cmNhn0jXV4OR67I+3vshc8EIlejSeqFwLgkYWuE/yZPqkchyBF1nBzE9ScnRFgxhqfw0QVpZFCo2oogHArWrN/j1qzf8m7L6e7/FFK+Avm4UC2gwcqPM9GXjnOp/s6qn8+0/Hzx76DPMmxamYWSYLSVMIipSiawuGHPR0FiBurpSBHJacT1wIZU+iGEJ+FkCxhvUjvk+7DBEk3mPAHB5+C8FRoginsg8zGoceMvF4a4kfnrgKB59fK8K08xQfi/ACCosKEkpOgwRmraFz3/qfnz87mZsbjHR3kSumylFU089JaZOujweCuTo0t4FGD8Ht1IYjzxoAafcoWwyqwESnlC8IzwCJ8XQ1zeOwYFxWEYJXNo7TBueS0nJJtxAIo0IrLIqNK/bsd8oa3pQJ63mYHLyrAkNRvJswnLVXZXMeurFh7qO7vlWemqwAfCU25TS2UORvECdWnw/gdKyKNraqmDZPoKAlH0DeGkK1ZjwZ7RqctUz3c71tICYw9NBcXtX0XYT20gGjChVvGq8fcbEa8fHsPfIWXz3+08rMKK0RDJejYX2WeUfSYlYYQG++JmH8MFbqrFrQwEaKpMAJiFBJ20CI6GwHoGRQDHHLvTJ+v6FWCDrWQtUwmpWn4ZWD4ERG0ARpqd8HD/eCRkYMERE7S9+BoASpiSW1YS00Lhu23BZXfuvVbfc9aOF9Enfm58W0GAkP+ctJ72W8qDZfeDoNwbOH/29eGKScx5A0AmVNnhVLUFkaPTWSaOurgDVtUUwhKuI0DIRYfVC0Ff+WiD7MqdZpOTVMBxCPg8/o+QbIJAV6B6uxM9e78HrHQP49t//EG4qN56RuW4ZekmVVZTjK498BHdvLcLu7RUoi14E5DQk02BkOa6yWTBCvcuQoCkoawBBDKlkDAN9UxgYHIdlRlT1FSWuhiFhYjqjkJuNSEWd27zh5r8WFVVfLyvbPr4cx6r7tLgW0GBkce277Fuf7nyu+uzx156/ONy9yeA+LE5xYCDwpAIjwmCIJ0ZRWMzQvq4esaiE5yVgRU34qTglmLzLGEP3rb6WtwVmwQgD5YqEYCT0jJCKLw98BKwco/E6PP1SJw53juMvvvM9JFO0SMJS8Nxc4Tqqra3CL//iw7h9YxT33FKLGBsCQGCEtHDEJWEa7RnJjeUX0koYpqFLIvSOkPoyzRXloBVhZChAR0c/InZR6BFRmc+BAiRpxwc3C+AENtZs2XmktGHjlwpXbddJqwuZkDy+V4ORPJ68XHSdwjX9J3/4K6cOvf7HzJ0uitGLiDgfgkCxI7oygCNdeDyFyqoCtLSUI2L58FNjihGTEtTmJrHObk4ZCfEsIMm4cLOvrmy2vXas5GIW598G5YVkMkQUrPDJbz6HkZXmh4lSjE4U48XXevD60Ul899Hn0HdxNMSa2T/z7AJFBlWWIjNVY+2ttfjVLz6E7W0Sd+6ohYFpMJZUFOMqhTWgSg0CTSEWElkO+Xk+X992uepu1iLv/2qgShpKRvW9NEQUcBwCjYBpFyKZsMCCEpw42g83bSjKdwVGgqQK/1JYLukBUzyK+tZNqG/d8LWKBvmXjN23UOIaPaV5aoH3X3F5OjDd7au3wGTPcxW95zr/28CZk1+IwRHCd0NGTinhCwZiik8HSUQKOBoaSlFVYcFkCcggFZ6G1MEoJEULwUjWWzJH01WDkaufkOv2yUDlXIQ5iGbGK+Kp0FuWHl6Ve4tiTEzFsO+NQbz+dhzffexFdPb3h0BkAbK99NgsGJHMVifmresb8Mufvw/b2iRu3lYNwaj0PJ0BJAFEQMmRFE7SYCQ3y2RhYER6AtwkkDEV/i2JkzeGwC9Bz/lJjAy7kF5YWUNiecTmrM4vUiIeMJjVrbKqeePe0sq2j+ik1dzMaL62osFIvs5cjvs9cu6520+9uf9vvPGhdREiNyP3fECsmHTUYUgHLvwggarKmAIkRUUCvjdNKY9h4tolYGRu57JEFuGmpz0jOZ64BTV3ORihNwaFZQIVqqN3h2Ll5UWYShbitbeGcfBYAt//8as40nk2Z2BEHYXJM8IZbtveji9++k7ctAbYtqEMBnfBWRIMJNiowciCpvuKN78bGHn/J6mDRyCIOBW+TIET91DAEQQ24tMWTp3oA/NjYAQgKWHVCMu3KemdeEY8M4aaDTv7SmpX/0Z13V0/Zgqt6OtGtYAGIzfqzF82bim/LzoPOP/2Qsdbf2pLB6CyO5OFst6kYgUJN0govpFVNSWoqiyCZRF7a5zOqTPekGxCW1gwOmdv0Z6RZbnSsjTwoWdkFoxk+TzIyxWwKKZTRXjz7XEcfHsaj/30Dex/+9iCwQgZ5JIwDQtw/+6b8JkP78SuDQY2tBVkwEj6imBEYRidl7TAdbUQMEIhPBNeOgkjYiu+EA8mPNdG9/lxjA4nYPICcAqtSV9pz5AQXsKhPSWCWEWtW7vh5m9Fyyp+v7x818QCB6Jvz3MLaDCS5xOYy+6PdOwvPt/56uNjA+d3m4HDoiZXCqlU7qsqPqmk108iEhOorq9E9apC+N4IOHMv43ugkzUpvr4zuTGUqM+EBuhlos9CuZzCa25LgRE1J+IyMBLOEx1W3cBGMl2Mw6cm8fqRBJ564QheeO1NJYCW05wRFuDjH7wdH753Pe7YGkV7sw2u3PoERkIPXDZMQ6EkzcB6zdN9DTe8f2KyyuHhAr7jgFsR+LDgBTYGB+PoOTcCS8TAfaH2DwVGLAvpAJhOBygsq0bd6g2HKmrWf764/uZT19Ax/dEVagENRlboxM5nWJTM2nP00U+ePLr/L0w3WcP9NCKCQzqeeikZJlE2J+FLFxU1lWhpqVSKqqEbXUGMmUDMu9XYaDAyn5lZvHuyYESp9ao8DFJNpJf+pWDE8YtxrCOBA29O4aevnsQTL+4jpKJeNAtxTqh1o/RwiCArwCOfeAD339aMu3eUoLmWKTBCpeVZMMKDkPxMg5HFWxNhy1cDRijc4kLYUaTTlLhagcm4RMfpfqSnfUTMAnAvoNI8FfoLhIWk5HBZFFUNa9Kta2/65ZLGu7+72CPR7eeHBTQYyY95um69nOh+tfzsmTf+28Tg+S8EiQmjkAuVP8J8T7lZPRYg7aURKYqipq4EqyqoBJiIqWjzCjJuc4Icl29mWWYSLap33SbzKh40A0YyAnlZ3hiRKdnklMTMTFXee6IrjX1vjONn+87iB0+9oBJJlXtkAd6tuWBEGAF+5ZGP487tq3DfrjJUV/pAkFKVNPSH9HM0GLmKSb2mj8zl3706EJJtnr7jMqCQiw3Xi8CVBejtT6C/dxI2I1VeYhshMOKoqjuXG0ixCKJldaht2/xkU+22L7CyVs0pck3ztXI/rMHIyp3beY9ssPPpbacOv/rPcnqs3XAdRAWDdB3VHjMNpHwXLpMoKjGxcV05BIuHXhFGwnmUP5IFIxl6aHWnBiPznpBFvPFKYES53zNghAUkgmaBm+XoOO/ilYPj+Nn+Lvzjj34alnWTZ2QB1wwYISp4Q+JrX/kF3La1CvfuKkVFcQq+AiPkHVH88ypMoz0jCzD4O26dPxhRHjSDIRl3ES2sx/Cwg44zFyGDCCxmQ7ouDMU74iLgDI4U8KwylDe2n21s2/GVsrpb9uZyJLqt/LaABiP5PX+L0nsK15x56++/3nP88B9ZbprZ0gUVVNKLx5XERUHufFJ4TaC2xkJLS5Vyp7su6dbQ5uPBEAye58CgFPoMPNHqvosyXQtqVJX2ZthXw7/DDBLi8wjhow+XgIlRhu5BhtcOT+PZPafwgydeRDwNSKq4WsClVKAJszKOqqpifOXnH8I9t9Th5vUmKkocxfYrmTcHjBAfSdhPfeXCAu8NRvzAVXxDMmBKGJP4QpT9g0CFbun3VrQMqaSFY0d74DgFQBCF77iImAaYTAOGRNrzkZImiqpbUy2bb/0zzyz5T3V1uxK5GIFuY2VYQIORlTGPOR/FSMeTDd1dx34y0Xdhm+GlmU06IIzBC4KQl8Iw4SONaCyNhoYKVJTH4PkJFd9XQno+cUPIjMQ4OXR1eCbnk5SDBmfpvBkkC1k0FZlVBowwFsCjF5EoQO+wwBtvJ/HTVzrxg8f3YHSS0MjChFVnnCsMaGyowpc/9SDu2lWLnesESouTKvGRwAhJ1IflxmbIEKzBSA5mn5p4H88IrQfOVSkuUbgLQfVPs+KGAak6I4b+vgQGB5Pw0hFwFoWk0C59/5kLx3MgjQgQK0bL2l0nI5Wtn6hquPV0jgagm1khFtBgZIVMZK6HQd6RvmM//Oj544f+0pseqzcDHzaRGvmZl4/gKpHVl9OoqCxES0sNuJEGgiQMM4CTpjJgQ21i4RVKwIdX9lQ7N4yT6xHo9q7GAlnG3GxCaFZ5lQXhS59xTwXefBZD3wjHW8c87DnQjX/+yV70DlG4//0THa+mHyRlsmF1I77w8btx5/Zq3NQOlBam4INYfkPuE7oEgSS1fKhzgQa5V2Xc9/rQe4MRJZqpPCGUZ0zKylx5SdQMkHaVsDA56eHs6WFIPwbPMcEprEceL98FMwKk/QCujKBh7ZZEVeOmL1U03/2DBXdbN7DiLKDByIqb0twNaHj45aKRk8f+60h351ed+LhRYBH9c6DI0GhjCqQPXzqIRAXq68tQWm7DEGlIpBD4DizLyICXuUBEg5HczdDCWyIwEr5bqFQ2TEIGDAg/DIeEQokMLrPRPypw+HiAl9/sxw8ffxVnLwzkDIwwAWzfsga/8NDtuGtHNTavDlBSSJ4RDz7P6J5oMLLwCX9HC++fM0LEd+QdISBChwtFhKdWDCU2R9DXM4be7nHYRgkCz1R7A4ERV7qQBleqvCxSJtdtvvWHRtW6r1ZUtE8uwkB0k3luAQ1G8nwCF7v7gyef2nru7JHHx/rPN0YNICrCcj7uh/oSvhLI8hQja2NzOYqLOBx3CkIQYAlpn8Nr7lLTnpHFnrerbf/dwQjJv9OVAhNURWVjYIwrMLL/0DAee+oAjp05T7N/tY+64ufCNRIujztv2YRPPrATd2+vxua2ALHoNKQMNBhZkIXf7+b3AyPEqErCdqbSoPI8yhURKlzj+yZGx32cPz+MIG0qcjPBLPV5n3uAwZGgBGizSLa07+woWbX61yub73xRM62+35zcmL/XYOTGnPdrGvWxfX/3b/u7jv+XID0RKTQYROCC+T4MYcL1qX6GkhjjaG4lIjSS2ourygjXSynAcmUwMn/mx2vqvP7we1ogBCMhOLzUMxKCESZTgCHgw8DIVBSHT0nsPzSE/5+9NwGzJCvLhN9zTkTcJfd9X2tfem8aaJa2AVFam1ZHdP7RGRRBFEXnV3/gHxVxRgd0VMAREdRWcBRR1kZQNkGW3uyuXmrPysxacq+srFzvFhHnnP//TsTNvJm9VWVmVVblPfF0P1lVeWN7z7lx3vi+93u/z//LYzh0dCBOuK2fkMRZAHOc19x1O+79nhvxyltbsa/HR8JbNJoRat4XZwZsmmbT5/MLpWkElNIQ3DWpGiIjnueBUZluFhg6M4/pqSyqUtVQBQ1XkNA1RMhCSM9FJtCoau7J7zz48t9p6Kn5fcZuj8qi7GYRWIOAJSN2SrwgApOTX24eP3riLy6MD96bgA/yWmRUtsc9BMozi1gg51BVw9HZVYPaGtfYdysdRUeWyciyK+uKOZqtsHlB+K/oB16QjFBPGKEh4WKxUIMjQxwPPT6Nz37pUTz8xJENkxFDeCg6AuC+e+7Cva88iJfd1IidHRk4zkIcGXkmGSEKbEzarDB6g/Pj8siIlBqemzCkZHJ6CWdHCpBBAimegkN6MhI0MwkpJPIMYJX16Nx506Hmzj2vTzfeObbBi7W7b2MELBnZxoO7WbdGYtbTRz/9g8PHDn2Y5ec70mTR7efAybWTp0yDM6mzJj3T0dmI7p56QFOqJjA5/2iz1TSbNR6bexx6BETW6svGdZqDq1Rk1c8Dk4qRjJolNuDkaQfffXwa//jFR/CdR5/ecJrGZO9o0dLAj//wa/ADr9iLO29uQk9zBoJdjMuOKewfiZ2XBazkFLtcMr65iJT30Z5pVlhM05heziGDECksLuRx+swFzC64qEjVQ+YKSFIErZAF8wSUC8z7Es29+4L2Xbe8qbHrtdZptbwn1gvevSUjLwiR/QAhMDLyYGphdPD3Rk4e+vkkMk6lCAHq5EvdehlZiSvTVM/zUujsrENzK3XonDcCSEUujToqB6Suno7jgVp40ufJj2RDFp52eDaMQBRhMOYiEDowCz50CtACkgfkNIYH5pYAACAASURBVGI0AhoNOHJc4/Hji/jM157Al77x8MZMz2IiQmykKpHCj9zzMvyHe27Arm5gd7cHJS+YRnqmkobFPXS0G5EkQ0ZsNdbGBr/EKTnuul2sWoo6cVPFXNRp13iKEGsMSS9Sj9ODc5iezhndSDqZQuDn4fJI1B5yhqzkSNS3yp79d3yyorHtbbYR3sZGqhz2tmSkHEZ5k+7x3LEvH5wYfvKBzIWzfUlkwKl5mXmtpcXLQSjpweWhvj6JljaGqloJrZYA7RuPEnr9pgcagwvEQjduFhVrYLVJQ3TZh4kLI5bJiKup6SEDZEXUPM8JERJBMWW+jTh6UuKpgRw+/a9P44tffxihvwEJAD19jKaIo7GiEj/yAy/F6793J3b2MOzoTABqDoLUrVTCGy+OVMFheFPs9Gsjbpc95CU7lLZt4IZ8RNqcleiIaUbICG16qeBIuLWYHMvjwnlgaUEaTRhn2hgcJpIe/CBAHgIiVYeG7t2DLf03/XxDy4u+bkWrGxmn8tjXkpHyGOdNuUtK15w59ImfPTdw6H8jf9FNkGLe2IFzMJ2McvhEPJwQzS0V6OiqBjAH8CilQw818igwpYHMixcVSuNYMrIpA7TOg5RGRpbJiKow3XyVIKePEMQ0hduIkwMaTw/5+Ow3j+ALX30QuUx+nWeNC6wYvXYDHfUN+NF77sT3392DXT0C3W0CTM9bMrJ+dC9pz7U9pNZqcCjiSVGxXIGimCkAVThxdAzZJQcMHgSjChvfpOsSySQyhQAB91DX2uN37r7195v6Gv67Fa1e0lCU/YcsGSn7KXB5AEwNf61lbOCJjy3NnHstDzLUQo3eg6ClZ3qVUCWNL7OoqapEZ3cDamoDgGdj0kJlgREZ0YqbtyoK/loycnljsNmffgYZMWmaBKjNmSnRJEddPzBkZGBQ4siQjy98exAPfO1BzM9uwDLCpGkoMqKxo60VP3rvy/GqO9uwt99Da6OE0EugRn02MrLZI75yvMj0LsKYIiIRGSn6Ahm1kEmr5k2lTC0mJzOYGJtDLqtQkawyXv5Shea7zxwH2VDDraxDa+/+Q229N/xgRdPtE1fu6u2RtxMCloxsp9G8CveiteYjT/39G8ZOn/xgdnaipYKHcAy5SJhQOhNZU9LriARq6yrQ018DJ5EzzqxS+XC4a3wlIlGcA7Vi0XoVrt6e4tkQKJIReksWVAFFVU+GjJBhlSR5j4mMgNfgzBmOJwdz+MqjI/jMF7+NmZnZ9YNqnj608Cns6+3GG+59KV75kmYc3F2B+ooCOJ6NjJCKhMz3NmZDv/6L3k57srhdA5FCSretkBHTkZk2EuhoAS5qsDinMTh4HqFPHiMSnusCQZSqCTmQDSV0sgoN7f2Z9t4Db2nqe+0nthNa9l6uLAKWjFxZfLfl0WdmHq4eO/zkH5w/O/CmtMoKl/qHkHyeGpq5OUMwtCJLaIW+nU2ormVwnKzpwOrEjbY0hf3JUt6maK6JOVKspnk2MiKIjCgSH1fg/HQKjx2bwzefnMbff/4bmJqcWf/1m8iIANl63rJ3B37svpfhpbfV4qb9NUjzeTg8D+oaTJuiCI2mSBqREdMdZf3ntXvGCDBw6oJsBMLPTka4YAgKHJ7XjKFT05iazIIzD64HhEEBrgI4RU6gsBBo1LR2y/b+fX/T3bH/V1jtjRtgqnaQyg0BS0bKbcQ36X5Hj39x9/jQya/7F850umHOqO3p/2KVA3X1DcMQ1bUV6OiuQSU1PVMZQ0aMK6skDQKPOrbabcsQoGgIDQH1GaE3Y0q0FRvl0b9Js1BpOFzA911kc3V4+OkZPHh0CX/1yX/B6Nj59V978eWbAS+9aS9+/L6X4/YbUrh5fy2EmoMrCmBGk6QjMmL+5BghdFRSs/xj/ddQ1nsWIyNmBsS9fiJAInLKoZkDFSawOOfi9OA0wjAZObA6AWRYgEeN8gSREQHfTaF9zw0DTV27frqh5a4Hyxpae/OXjYAlI5cNmd2hiMDAo5/8jakTh36b+/PcEQHoDVoFUZdPeoElMuIHEjt3d6CxmSoi5uHQoqdDaBnAcUlrUlTwW1y3AoHVZIQW90g1QF17TfqGdEBKwXUE/DyH4m148MnzeORYFn/+f/4ZZ85NbCxGwQCq7n7li27Aj//wnbh5n4cb99aChTNIxgJp6iZMUTeq9LBkZHNnSbFRYlG3tVJGTedxEIQOEm4Djh+ewvwsfccrTXrVDxYguIYgV1ZwFJwU3NqmsPemF/1BW/fu9zC2q7C5V2qPtt0RsGRku4/wFby/i0OPdU8OPPTnF8YGXuM4Ge6Q7jGMmmqRbsR0/GSOqa7Zta8R6XQIzgrQqkBtK+JXMGfZ6vsKXqo99HMg8EwygrgrLvl7RMkQGkcqsQ2lh1DX45HDF/DUEPCXf/cVHDkxhKK+YKUP0WXAzRkcpvH933M7fuzel2BPn8TtNzYjWJqCJ2QkWTDpnCAmI7HAMq5Jtumay8D6WT4qmDZkk2ToUesGSpySu60yqVfXbcLpwRmcnyqYjryelzSfKwRZCA4kvQSm5xeRamhH975bjidb+l/V3HwHdVC0m0XgshCwZOSy4LIfLkWAxKxjT37mdefPHPvw7MXTXUkXcOFCSwVOFRgqNGkY6rFVU+egu7ceXCxCcB9cUVqHnFvtFNzKWbWKjGjygNElZITel6ltPGkLtFmcQtTg0cMzeOq0wMc/9U38+6HjkZ87hfaXmyJGdxRVTr2AtoMBKZfhB171YvzQPbdiT7/CTfvqILMXkDRaFUoVRJqGKDJiycjmzRcFwRVkSPimosaXisp0A3AhwJDE/LzA2LlFLC2SaNiLXjBAulXflPxSOjaAg4aOXQsdew7+Qn3Xa6zT6uYNUFkdya4EZTXcm3+zeuTB1PDIiT8ZHnj8px1dYGQJrfwCEq6HUFJZr4yanWmF3bs7UFNHD7EchKnAWek5svlXZo94KQgUfSakSZ8RGaHISIl+gEUaH0Me4SJkVXjMkBEPn/7io/j6tx9/zjTNJZERcq5IC/zQ978CP/Dq/di3Q2FffwV0YR6eywHJSiIjsQsrERIbGbmU4X2Bz9BLg0RIYnJWabQgfpgDiVapCaYMPQwPzeHiBRK3puCIpCEhxg1XMTCRQMZXqGls1W39Bz5b27/j56qqbp3ehAuzhyhDBCwZKcNB3+xbHj/2xZ6zA088ml2YaE7oEFzTu5IDRc6dQsMPAyjtoLYuiZ7+JDwvQMLlCPNZsOV8zWZflT3eCyNApbzRun4pZIRzB1Kn8PixWTw5lMCXvn4MX/zKt03P5mIkpDRCcqlkpK7Sw4/ddxde/YoduHGPQF+HC/gL8ARV2pjwCDSnyEgYR0ZiEWvsm2Z9al54pJ/9EwqMh6YrL2dk/+8gVAFcNwElBeZnfZw5M4fsEoPrVYBBIFB5ExExxFQ7KPCE7tx54Fhb9563VHe+7KH1XondzyJgyYidA5uCwMBjn/jNqdPHfj3MnE+kKBoSyEigqgOE1IJcVCAIs+jsTqG1tQIJl97IsmA8qpaw21YgsEJGSLZqUjLUJI8qbHhk8651ZL8upAYTjune+/TAEp4Y8PC17wzjUw98FUE8fEQ+6H/SIBTJyQulaegB1FCbwE/+6PfilXd04rYb0mirJ8fXDNXNgGnqY0RVvTnjYxOlaSwZ2ZzZQukZ6qxNAFMvIAbGPQgnjYX5ABPjc5i76EOGAq6XMt4iUodwnYSxhs9KgeqOftW9+4Z3Nvc5H2Ds7iIv3ZzLs0cpKwQsGSmr4b5yNzt37rs7Th9//M9nJwbupkI/FvpIeQkUQso/k3V0wojekqkAe/a2IeEV4LoUMbF28FduVJ7/yEQ6igLRIhkRxnciNGSEtBpKexBwwIIAFBlRwsPAmQIeP+Him4+O4G8++QAKsf9YUU9QJCCXEhmhB1B7YyXe9BOvw+03NuElt1WiNpWFUPkoNfS8ZIR0DHFZ6laBeF2fV5kUnHCiNg1SAo5TDRl4mJjIYHJi3hARRs0cXAdSaihK2VGETGpItwrt+190pKF/9yvq6m6Zu66hsBe/5QhYMrLlQ7B9LmDsqc+/fmzwsQ/n5yfaXfimjFcqz7xRk26EFjcySurorEZTM5CuJHM0S0a2agYUyQidn9I0FBlZISOFKH1DFRXcA3zfaAqYl8LZCY3HT3j4zmNj+MjH/gG5IFrU1kZDLoWMUG+TnvY6vPWnXm+cV196exXSYg6ODp6HjJBmpNgwz5KRjcwfU7btCkgVmDQNZzWYnZEYG8tgaSEioMY/iMdiZOYaIiK4i/rOvtn6nTf/TGPvqz+7kWuw+1oEzLPDwmAR2CwE9Phj6WMDD7///NnjP5tyfOhCAR6vgB8qMIesGjVUwMCdAnbvbUBFBUVNCrG1N9UFU9O00sWltEV83ENjsy7WHsdUzUSRBSIjMf7G6kpCcd+QEeo5RL1JlB81xBPJNCYuOHjyuIeHDk3i/R/9W2TIBpyiI1TJTfU4y8SE0jzPDzSZqfV21+MX3nwf9vcn8JJb6+CqGXgsNCJnsiI3ERpO5Cg+ieZgKhEdeNV8sYMaIVD6vVmLyervUbEtA2lFOEtA62qMjSxifCQLwZImKWYE6OSuTCJnkULWD1FZVRfuvPGOv3U79v1qdfW+Ddjw2jGzCMRfZQuERWAzETg/8pVdp55+9Bvzo0MdDWkHjgS0klBCm4oaRZbeOkR1VQr9OxqQql5AITcH16mOemAYTwkfQSGLRCphfEuiJbNIVKKcQOQYah04Nzp2ppqGWscjijQYW3BaeAzIlAZJRgJSlo1M0FgSi5kqHH5K45Gnp/GBj38GkxczkbU/aUViR11TnENEhP5eXP9Y1ImmuBlzVQbcccc+vOHeW3DHgQbs60+iJuGDGjDqwAfjZLQWQhIZ4ZHvCNcCQhIZIcO88o6MFE3LVOxIawAnTIjYm634M3rvJHfd5UGCNsTRlEwLIn1JzM4qnDo5AUdWQyBh7N5D6Zv+RNoVyGkHWe1h58Hbhupbd72xrv0lDzITOrGbRWBjCNjIyMbws3s/CwLH/v2v/vP54RN/KnLzlUkT/g1NCxIjiWQicvQULppaUujo0eDCh/Kp54gAGacp5YPBB3kwaeoga8nIFZtnzyQjhZiMEPgOELrQXIM7OZhmviyFxcVKHH9a4d+fnsGHPvUlDJ57lmrOoqi15MqJnBiyad62i7JljjtfdgD/8YduxY0707h5Ty2qnAJYUKCwjPEwoc7BUtB1PZOMmOZuZbwWriYjRSYY/zTEo4SMGHEybcUeDJHXj0mUiiQKBYGh0xeQW2RQeYEETxqHVfpESDoix8Wc4qhr3yWbevb/19499/zJFZuY9sBlh4AlI2U35Ff+hqfPfaV98tSJD50/d/LeFAJBtkhELIiEsLg3DXkbpFJA364K1DUkEOQL5i3NoQiKKS90jJ08yefM43PNTC16pZXxOrQJA0nxpiikrzRFGuKGaSYyEukymPSi7BnPQ3IFpTwsLlVg4KjGY0fn8NHPfQNHT42uXItx8Yz66ppxI1Xk824Cr737dvzovQewu4fj1n1VqHLzCPMZOKQ1oiSeSdMEK5ERJSCoMWPc8becychKpr0YhopTV88ZGTFUcHlENGeQxDJ5Jc6fX8Lw4Hkk3Fpo34EgV1YdgOq/JXXllQos1YCe/bc/UlfffU9N150XN2ES2kNYBAwClozYibDpCGit2dkn//GekcHDH1GZix0u+Y6QI6uMygiNXbwfGsOlukaBrp56JLwQocyBx+yCvAyolFCYMHxsjrb8pkdGWLZR2sYHrpSMrEnTUFTELEfkP6EhWQ4hIwO7BJYyaQwe1zh0YhH3f+E7ePzwYOTCGjFO0+E3erpEj5dSwqhLFkLSl9AZfuyHX4NXvbwVN+6rwN4ejrTIAEEBwnWjKg/TIycSQEdpGh6TESKp5Z2mWT0HSiIjz0pGVtx1lwk+c+CHDDJIYnhoGksLZP2fgic8hFRBJSgqoqAdB5mQo73/hunm7gM/29h39+c2Pv/sESwCKwhYMmJnwxVBQOtvOMcfHP6dseFj7xRhFmmT7w/BJYX8RWRB7dDS5KOjqxZtnSlIvWDayRtbal+bhlz0+2UNQ/y2viJ0Xf2Wd0VuZFsftEhGiO5FZEQbzYgCM2ZjERkhp1zJ8lEggqWQzaYwNKBw6MQcPv7PD+NbjxyJyUf80h1zkSI3ea6HDEW96Axv/PEfxItuqcbdL+9EZ2MODmYhTIqGGwt6Sd4lTEfNeku6Chv1gyUjJWmX0slaqs5ZO4kj0qKpmyX34PsOJkczmJrIIMFrERZgIpMUodROiIBpFDRDsqbN79/3kg+3NOz4Tda0d3FbfzXszV11BCwZueqQl88JLw59u/vw4W/9mz8/1ZtQBSSov6eirr6ANM6f3FjG19R66N1ZiUSK9CWFKHKSl3A9Mk0jFX/RSyku6VyuurFkZGOzqSQyQgtTkYyYaAYtZgJCk8EVpUl8MGqva8hIEsODeTw9sIhP/dsRfOHr/x5V08QbGacWszPFB0wcJFmurqFKHjpjtSfwI/fehRfdXIcffN1+NFTNg6lZ0zxPkdEaT0CCeqBETrGMfC7Itj7WP1gyUtR/rJ0Jz0VGVj6vSSbMkshkGAaOjANBCq4mp1V6CQgBV6OAAkITFXHQt+eWgdbug/9XbcdLD21s3tm9LQLPRMCSETsrrhgC1EjvxKG/e9vkmRPv0wvTFWkm4ZoW9QqBWWgEFD34WB6tHR5a2lNwHbL89s3Ko+kt2JRzxqWK8QL5zBLgK3YL2/7Axd401LU1IiMR3hEZ4RDaiyoujAka/UbAL6QwMapw/Fwef/HZ7+Cf/vXYciqGhKmuG5ERIp2uADwPSKU8pNNppFKplZ+OgwqmcWBXC267uQkve3E3qtNLYOGsqc7RlO5hVFdDzfJKClYtGSmZl89ePWOMjZcjRysfL1ahmd/pBHJ5gcnxDKbHF5HiNUDgmIikQohAhCgwBZlIIlHTLnt23/bf2nd83x8yZiaJ3SwCm4qAJSObCqc92FoEpqe/037qiUc/mJ0Y/qG08p0Eo+CwXCYjTKSwlJlDZY3Crj1tSKcDhDKDRNqDn1+CiAWRUamiyRPEp7DVhJsx21YWrbjz7loyQmTRlH8GprU84EEjjdlZgdHzPh4fOI9vPfoE6uvrkUxG7eWrq6uRSCQM6Ui6UadX+ndznBKreGpB7wQhHGRxcH8zetuTSLpZhIU5I1415EivREWW3TM06RriupCyTtM8t0bk2clIZGwXbSRaTmH6osSpk+OoErVwlAcaYlNx7QGZsIAwkUToptG7945v13X131tff/v8Zsw7ewyLwFoELBmxc+KKIkBi1tHBL7xy+NBDn9DZubYUyMwq6nFBZlr5gjaL1lJ2Bo3NKezY3QQmMgjVommyx0wZDQfTq03RVh62V/Tyt/3BIxxXfFyKkRHzr5QKKQohqbQz7g2jkIBWVaAwP/co1L8aptJ+NMVxejYgKcqi6Via4mMZcB3ZwJO2yFiTmO7B5CVCepHSdASHkJHGhTxIyre3Efm/GBSWI1nFUt8iJtT7KQgCuIkUgiBqNOgmKpDL5QFdiSPHxhAUPCSVC6qfCf3AlOEzTyCrNBaVg65dN51v6r3lbc2dL/6M9RTZ9o+ELbtBS0a2DPryObHW/yBOPjj3h2ODR9+eQsCFKoCZMlEFwZMIA2VCw0xQuiaNts4KhOoiGA/AjLmFiB+2tEJGEWJLRjZn/kSLV5ysIbKxnBaLjl+MQIA0BKTjIIdV05E5Mh1zmL9KQLm2Md7zyShJCyJ5EopROogEzgqcBMxxBU5kshZVy0RkJIqNGJJkSnvLnYxQWi1uShiTxlVkhEqi6TvmOAhCBcdNIlSR7kpJjpGRi5i5EEJJ17jdUgcpIoZERqg9QBYcybqOoKXv5r+q7bjxnXV1fbb/zOZ87exRngUBS0bstLgqCMwOf73n+JPf/VJh/vz+hCAhK+lCpImOFHyJhFeFgr+IdGWInXuaUVHpoxAsgLPIT4Le0GmxIjJSNOoyi5GdwRsYP7Yc+TBLWkxGCFNOWK8lIwZvIgYUSSFLTiIRK8SQPv9CXXpLL5bOQ4ZmkTCVm8oaIp/L0Zii5oFKimMRc1HLQi6s0fiXd2nvajJC41lEmKJKUc8gIwinJnhuCqEkIiKQyUicOH4WXNeAwQN0YNzeSQ5CTskF5kCKCnTvvu1oQ+vB/1jf/aK4ZGoD083uahF4HgTso9xOj6uCAJX6nnp04ufHTj31u47KVLFwCQlPIPAlXDeJwKf285HTZ1NrAj29tQjChai9OVPxQ5YC+6sFrZaMbGT4SsiIISKRcdazkxGz9C//3gRUTEWLa6pbLoeEFK9YMQlFJcPGvtwBUy4Yc8BNWXFMNA0JWYmMWDKyerwjMkJEvWj3bihh3LOHohwC+byPRCINKV1IlUAYuhg5dx4z01k4qDYNEKluhlGpPVPIBSGUW4XK+g707n7xrzbv/N732/TMRr5ndt9LQcCSkUtByX5mUxBYGH2kYfjEv//JxfHBN4hwSVR4HIVCAclkCoU8vcGRRCCE4wXo6qlFQ1MFwnDR9Euh5m2mliN+Y6dFifLfloxsZGiej4xExxUU1jdpk9hojkL/hrjE6QHlGTKyrs2QkcjXhFJxxn6eqnqWdSqxH0ZJ35WIjFA0pujMW95C5hUn4ucgI5zDDyRcJw2lPYRhCtPTWZw7ex6uqAT8WCgsAuP7EzKNbCBRUd+t23pu+GZD/41vsI3w1jW77U6XicA6nyKXeRb7cYtAjMD4yX96xYknvvsJp7DQ4egcqIU8vVUL4cL3o3405MyarhDYu78LSi8CPAMO6k2iTK+Mom6AyMjyG7RFeF0IlC7qpjtu/ESIwv3kdGqoCJghCkWNQtTV1/w9Tqsw07gw7nwX/6SUDh3/uX7S5xkvVonG1TarWulF3iLxiSNSFP3FaoZWw/KckRGlQggvDT+v4CTqkVlgGBgYRyajkXQr4UjyFJGQ3Id0FPJkcOek0dS+d7Kz76a3NfTc9TkbFVnXV8vudJkIWDJymYDZj28MAUrXHPnmiT9Ymhz65TAzi4TrQaoCqJKTetEYGR1jRuDa2dWAxmYGCNKOZI35maAQvhG0Rn1LaGGy0ZH1j0lpCWgkGI2OZXQbxRJao9cp+pBQCiCE4oUobROTlGKfGEMUTSSDvEGiKo/n+mnIBcmA4s9ExDJKFa1Uz8Ql3fH5za8pbWciZfTJ55PIrh+X62XPYqnucsTIpNKiMTI4kmbEIZG4QCBTmBxfwtjoAoSoMd+hFFU06QCBEyCvJXwhkK7vDNt7bvhYTceOX6uru8WKVq+XyXCdX6clI9f5AF6Plz8z+OWugcMPfzZYunAbC3wkXYaCvwSP3LG0C78QIpVOACyHgze2A2IOnJP7NFVckJiVhI6ucXBd7lsTvzFfGh6l0768w/xRrKGkWqXYfp6a5JUSDR1Vr3BQiW+UNjPpGiq/jX+zYkumKLy1YlZXNK1b8zPqM1Nask2RGRKrRkcsJUamqmq57scS0OI8j7Q71OWnSCLp5woZYa6DbDZEOt2MC+dzGDw1Da0rTBWbCjU8an7HJQKHIUsl3olKtPbuP9HZf+u9Nc23DV7a98l+yiKwcQQsGdk4hvYIl4kAlfoOPqHfeObEk3/k5OdqqjzADyMbeGqMxrljtCSOK9HSmkRXbw24WICSlK5h0CGDQ/lueqtTQVxREb9mLzdiW2uTvbqV+vIll3E1RvRWTbRCQ1DUiVOTuwKUokhIBRhPmsoKU/USCjgOoU/+FMFyN2Xq+ro2PXPpfy9dQKNFNNKj0DUlDClxHYVCJoOUmzRN+LQMAM6geSL6qcrZZyRKY5lUDOPm+0NdBak8V1PIiykEYYhkZQMy8w4GBiaQzyTgiBRyuQxSSQ/az8JLpEz1zMWCRkPHrqB3z22/1NJ3959d5tfaftwisCEELBnZEHx25/UicO7cd9qnTz/90bnho69LsICTnp9y14K7kNS4RpGeIEQyLdHRXYP6BnKMzIJpeisX0IFjdCZaR2/oZltFLF6IjERRldX7rPdurs/9iIxIQ0hIGEzYU1flyGVVyTqEKgnhJZALJLhbadJnYbhkiAhFqKgKQ8URElr7oiqcy/sZlW3HnX0ZlflGXiaKugVTZY9eRMpR4H4eXBYgEvRhIJQcfqjgOfTX8o1umRQYVZwpHaVkKHJIpJ6ziEia8U1jYjyPiYkstJ8AY/S9CcA5Na6UoBxpRrkQVU1o7t3/lbquHf+lpeUlU9fnrLZXfb0iYMnI9Tpy2+C6zx393CtGjj36j/7ShRZXaGgZIumQkDWEyz1IhJBqCfWNSfTuqIfrFsDgg/q1+TkfnkfunaUh+9JFqUhG1moK4im/qmKjnBczmkik/SCDuciTItRpLGYqMbckMHUxi+8+cgSzixKB0etQZUYC0qdmhxrMLQpUL4+EFEkLNQegdA35lRhDO+YbaqHggbM86ms07rrzAFoqHNRWMtTVEhHJQXEiQ8w0XlwuttkG34nLvQUi42QYSBIa0lwJIcCo6zUREfJucSoxN+fj9OkLKOSIxiehFDMp0aCQh3CI1Gnk4KJj1w1Dbb03vKmu+65vXe512M9bBDaKgCUjG0XQ7r9uBEjMeuLbR/5oenzw7UFuCR7XSHIHQcGHoDA8gFDn4SUl2rqq0NDowSHDNJ2HCn04rgstL7e8d+2UL18iYhIjVKFEWlUtDbFjcJEPk5g672H0fIhTIxfxBx/8WwyPmfXOEAXKBhS79BrisI6IyDIZibM8Rj9iolvRdDLuGQzobgfe+fYfwYGeBvS0J9He4sAvzIK7wiyoMgjKmoxIGcB1EybAR26rnCIiFGNUVIpNGqxKjI3MYXJiFpwlTAqUtCKukzSurNwRyEkgUdXo9++/QUE/swAAIABJREFU+QPN++54D2NduXV/qe2OFoF1ImDJyDqBs7ttDgITpx44MHrqic9dmDi7s9Jz4EqqmGFGt2BSNmQbz3wkqyR6eupQXc2hwnm4IqQVFFqRH2tp9KP0z882vcubfKwdNaU0HIcqKmIy4noIZRrnJjlOj+YxMRvgPb/3EZwZj+0/4uwWsQXhOpB5somP0iyRk+rl/YybBUfso3QzkSuFjmbgf7zrzehtSqCfzPB6klD+hTg9F0VyynljZKMPaiZIpoERs5PU7dhUpVUbu/fRkRn4BQlXUAdmaVI5MuTQIokC42CJCrT07jrb3bfz7lTrXafLGU9771uHgCUjW4e9PbOxD/8HMfDo0k+PDj39vzxdqOX5LBLCgQoolZ1EyBgC+JDIoLunDm0tSQi2CMf1oQJK2zimt8myUdYyMXmuqW3JyMrEYwY3aqamlKRCUAjXQ6ArMT7l4PR4AYOjs3jv+/8ao+cBSYShCGvsP0JahXVLNiL9bHTMUjJihogiYwXs6Erjt9/1VrRXSfS1uOjtprf9OWjlm4WV0Zt+GT/FKKolA2KGwpARSaSSxKyoQOinMDR4ERcvZJD0kqZcXpPuhrsIfA64FVjUAtUtnYX+3Tf+ctPO137EPpQsAluFQBl/jbcKcnvetQhMn/tK+9jQiQ/NTwy9XuTneSLuVUJEw6cW9gIIVBYVVQJdHWnU1QEuy0BRh1dDRuiIRUJSUjVD/7zGzXNl5XwuTUk5jQ8BHfd4UdTRlezDHYSyAmNTLkYmJc5OZfF7H7wfg2cK1CovzqVQCkWYcH8kAF7nFmlRl/mIGa6Yl1A3X4YC2hqA//7ffhY7Gl3s6PDQ1UY2vVTm7Zt8EVUWl7PXCFXRhEEA7kbz3g8lXK8SMkhhajKH8XOLUKELh35PfWdkVLUGnYBP+pGKRnTs2P8vrZ17f6qy5QYrWl3nVLa7bRwBS0Y2jqE9wiYgMHrs0y8ZPPzol3nuQrWrAnjCMVU1ofZMm3qpQ+T9eXR0VqKvpxZczUNwf/VbsSEeloxc+nBQHUokBNUR1TACyIKfxthUAqOTEsNjGfze+/8SZ8aJjHBwwRHKEA4SJC82BGbdhERTMmE1GSFdSqRNcUExsb6uBH79V9+IHc0udnUk0dpEuogMlCQTPNJFRI0Uy3XjitIyCk5KGM1IriCRStYhs+Ri4Pg4ChkHqWQNgpBkICRqpTGD6VUzl+eo7T4w1n/g1rfXtt3xecY2wizLdQTsfW8WApaMbBaS9jgbRuDEdz/6ofNnDv+cLszztMMhqeyQJaEFua1Sj40luK6P7s5qtLWkwVjOvO2ZPLh5S9aGwNCfORemuuCZmoLiu3fxcst3IYsiEbHWQEfdczUZaPF6nD3HMD7NcGYsg/f+0V/j9MQSNJJkHG6A41T+ixAhyPdjndERU0XjLHuWGL1DVCwMwDU9iTo7gN9655vR2+igv91DVyulIBahNLUOoBwFRXbKdwyFJnIYmJJnSqMxkUbgp3B2eBYXL+TBddIIXOm7QH4kjpcwwlWiJF51a9h94yv+uNXZ9eusry+/4S+wPYBFYAMIWDKyAfDsrpuLwOiRL9w0de6pT2QujOxjKgePMyhyW6VUDJzINp77qKtLoL21AtU15EmyaN7qI/Fe1MI+IiAkgo09GJYvs6gXKV08y3chi2AhMhJV01CEQxEZEfU4e5bIiIgiI390P4Ynsqbclpwror3IGYYWtWi/dW0mTeMYI7uIUNDRwphbUFpBob0DeM873hSTkSS6W+jzi2ZhNcMcO7Ou6/zbYCdhYksKvsqBe5TaqsT5yQImx7LIZxlc4ZrvgfkuULQRHvwgRLKqAg3tO081777t+2pbX2xFq9tgLlzvt2DJyPU+gtvo+vWpU4nTs999+9iZI+8uLE5VpT1qK08EotjRlRqz+RBOiObmSnR21oLzJSjklklIkZQYi/Nlq/JtBNKm3wrRCkrTUOM7IhfUC6gep0eAifMCw+MUGfkLDI8FZO4ZWbUXBaeGTFCkYn2EjoiNoYdFC3rTqGZ1oKOzjSIjP4XeRg/9rWl0tzrgOhuREZoWZozLV5TMFAf3BLK5DJLpKviFFE4NTGFxlkq2kxCcIQioyaQD7qWQ9x0UNNDc0Rp27b7pvzb2/8CHNn1K2QNaBNaBgCUj6wDN7nLlEFgY/VrD4LGnP3px8tQPu8akOnL1ZJKDs6jDqB/mUVXloqOrFvX1dC158+ZnpIyUrqEgtI7/bAnJ8w6W6fNj6nF94zliFAWGjHCMTTMMj+XwPz/wFxgeDSItcJGMxNkusxium4zEXYANGYkvs/SJxICuNuA973wT+ho89LelTWSE6Sy0Do32NkoblS8ZodJsMqHzlYbSninlHTl7EWHeQSKRjNolUFTE8aB5EpnQhZuuUR07+h9o2b3jrVVVLzt/5b7N9sgWgUtHwJKRS8fKfvIqIXD2yc+8fOTMk1/Kzk1UpbmCa/p+0Ts4pRAcFMIcuAtU1wr099bA8yLxJYnzyM7cKA+UhBDUp2PtQrVG4FrGCxlhZsiIwaBIRqLIyLAhI5SmyeK9778fw6NZaO4Zh9RV5b1FK/d1zA3SAcGUZRcfQ3Qd0ViStFUgRPf/Xz3znne8BX2NLvrbkuhoJY3IIqDDKGBGiaOyforRHPfgJKoxM53D2bOzKJCUSgvTr0ZLH9ylijOBTOhAOtVo6Oyb6Ni5++3NnXd/1opW1zFx7S5XBIGy/hpfEUTtQTeMgNaaH/63j3xgavTE21IyJxwdQkgyDhcAObRqhZD5EMJHf18Vams9uC4JVn1wspVHAEkVH04UJTFbscS3WEhq7eBNmIMMsCIyQgJWqo+J0zTnOMYuCAyP5g0ZOT2WNXoD05retKcnEmEo4AYDE1EFVNR3tlRc7EKggJ5WB7/1jregt8lBf1sCHVTaiwUzxmR7vrodwIan3nV3AMYFAumAs3qcPXMR46Pz8NwKcBPtCkG+/U4iiVwIZEMHFY1dqmv3jR/uqm17B2u/PXvd3bC94G2LgCUj23Zor+8bGzny+Z3Toyc+njk/8lI3zMLTFBmhd2UGRcJWrhCqRdRVS3R1NaKyKhl5KDwrGTHm4iUWopHZl9nKuGuvCXFQNQsjAlfUjMRpmnMcE3Fk5H1/GFXTkIBVUgSlxPtsJe5UtGa9zJ/xE8j0pinZFIiMBIaMvPudP4PeJhc9HR462qiidxGhqaYBeJlX0zAqtQ6TmJkWGBvNGNEq9aphzDel0aS5Yo6LXMCBVDVa+vcNd+645RUVTbeOX99PCHv12w0BS0a224huk/uhvjVnnhh/y7mjj71X+Is1SeqaIhgKgYRRLnocUuUhwzns2tmG+oZKI2QlcSuV+6owgHCoxTwZe5VUe2hSocRkZPnfy1VzEJER0oxQA8JIwBqRkbPnOMZJwBqnac6MU2TEhaRS3hKNKSFr0i3r2mLBKgVjSoYo+iNVzURpmne/8y1GwNrb4aKjnfaZN74zlIZgihrtrff867roK7RTqQlf6WP5ueamMk6rSiegVSUGTs5gbiY0niIyDMFkFq7nwJch9WRGnnmobOosdO+/5R2tfa/74yt0E/awFoF1I2DJyLqhszteaQQWRh9pOHvikb+4MDLwQ67MoCqVQD6bNw3ycn6ARCoJKAmpM9h7oBWV1RqBXADjPhKugwI13GPpKAASl6BSWmIlZRM1eSvfLTI9o5A+o5A+kZG4tPfMCGLNCFXT/BWGxrNGd1BMexU75W6Yxq2JjETkJqI75MHVQ2TkHW9FbxMJWF10dBTAsQBJwlnukFDoOh++OD1lUl9089QZueidQsSLdFDa+IQQJq7rGT2UKXMXKQinFcNDMzg/NY8w4Eg6KbjgkIU8KGqiXBcXCz7chmbZvvPgA/Vt+3+xyUZFrvM5sz0vv6wfxdtzSLfXXY08+Q93jA8f/Zq/MFXFwhyqkmksLS0hlapAQA6tisFxA1TVSvT018Bxs4aMkGEaYwJCezEZifQIq96h9eV2/N1e2Jq1D2IVGSHTMy3qUSQjg1Ta+/77MTSag6byFSYjthBbuW+YChTX4pKRWS73BdDTzvFb/8/PR6W97QJd7QVwNo9QusbYjqqmrv+txMVWu6s6ElI/GdLoKLJzYVT5FOlkqI5IiCpcvJjE6OgsMktE0gQczUEpLxmEYK5nGuH5XhKVHd0jbX03/kxHz2u+ev3jZe9gOyJgych2HNVtdE+Urjn98NCHz5x8+s2uKsCjJ20QmLw4haA1HLgegx/MoH9nM5rbPCidg/RVLGCN3jiZIttw6qlCaQYSXVK6ptwjI5aMbPVXhXpOm3lY2saAondxCpGiQ0XzPiIjUSAoigppmcTg0AIuXigY0z+Hu9CBioqd6BhOAplQIt3cjrZd+/+4c2/7uxi7k3zh7WYRuOYQsGTkmhsSe0FrEZgc+uINw08//jG5NHezKiyydEIAoW8e0txJGP2AlBlU1zrYsasJwg3gkh28LJgoySoyUnQMjU0zVDHfUKaw28jIVg48UZBIXE26jmeKqmOiQvPc2M1SVorDcZKQgYP52RBnz84jm9HwPM+Y18lAggvXRLFC6s7rJNHUvXOke88td1Q23zG5lXdrz20ReD4ELBmx8+OaR4CiIyNPXvjZU8cO/U8RLNV4ugBXUNmiAhmOFAoFeAkiHxm0t9Wgtb0GiRRDobAIxymaYq2d6htOMFzzuF3KBVoycikoXanPEBmhyJ1jhKhGK0JpMFM+HUXwKG1mSAonR2EqgHbgONVYmlcYPXcRCwvUj4kh5XgmNSmlAksk4GsHWcnQ0N6Xae7e/etd++/94JW6C3tci8BmIGDJyGagaI9xxRGYGn645ezAo381NzH8uiRVzcgMEg5pBshnQcFLuMb2miPAvgO9qKiWUDobC1fpgR+TDyMOpLxN7D9yxa/82j6BJSNbOT6lZCQVmb8ZMhJE5nJmzpJOJHKCobnOWQIqTGF6smDIiGYJcMWQECKqnNGAcjxkNYf0qvTOA7f9c0vDnremO28a3co7tee2CLwQApaMvBBC9vfXDAJnj/7LgdPHHn6Q5S5U88I8Ui6J+ajRG4W4o6Ym+XwWHV0NaGoTSFfSWyM5hpI7SVSSChIILpOR2H/kmrnDq38hloxcfcxXzriSpoFKRc0dV0VGJHSxAaSKiYhOmfTM1HgBcxfzSDhupBch2zqtoDhHXjP4ySrUt/ef6d5x65sbO+/8+lbepT23ReBSELBk5FJQsp+5JhCgdM2Jh0Z+f/TUoV+scX1X+0tR3xrmQklhKg5Mbxq2hB17GlBbT71sqElYEEVIDBmhUDiRkLjbbCxkvSZucAsuwpKRLQC95JRGM2L0S5FmJCo1pwoaio6QKy6lZ6hBpAuHV8APkpgYXTSdeWXAkXApjaOMuRntqzwHiyGHqG3C7ptf/L723rZ3M3Z7zMS39l7t2S0Cz4eAJSN2flxXCJwf+MrNZ04+fv/i1OlbKjwJrkMTHeGogOmVBzJ5yqGqkqNvRxNSlQXkCwtw3YS5T0HsBQoFP4dkMgkZlvdXwJKRrZ3+Zjoub2ylqiYmzJoHhoyApQBVgfmLDKdOTpj5To0jmQ5MTyYygCtGRfLcQ88NLxpKN3Xd1dX16rGtvUN7dovApSFQ3k/iS8PIfuoaQoD61gw++rGfnj478AeFhcnahGO6qUDoKnpBBOMhpM4bJ9aW5jTau5Pmz2EY+3oKBUUdarWOoijmVXQ7OHiub5AsGVkfbpu1Fy82CYw1TGurapigpo9ERirg5z2cHpxFdomqZqiqhkzfqB8TgyLPHc6RUQKN3TuW6vv2/lJX/w/+NTMtme1mEbj2EbBk5NofI3uFaxC4OPTVmvFzJz82PnTkvrTjg9rhOSxtHtrUtZfIBlXWpFIafTsbUN9QgaCQg0YIRyjjXum6rnG1ZBQet2Rk2YHVmp5dza9b1KhwOS1DHYipGaEWxuqdNs4VpNRgvBLnJ7MYOnURyUQdZKiNVgQ6MKSaKHk2ZBBVdar/4G1fSDW3v62p6eW2/8zVHE57rg0hYMnIhuCzO28VAmOHP3fn6ZNPflllpyq5scZOQMcPaM6kISNcBKivT6KzuwnJBP1bDvQ7Y/XlkLiVHuGWjJTawVsycjVndCkZKZgTKyNFpSqx2DmYMYShRhAkcXpoCouLzFTUOMJDEBYgSCdCrqzCw1LA0LZj34WW3r1va+p+1adsVORqjqU910YRsGRkowja/bcEAX3qVOLUzEPvmzj1xC8gWHQdqqyRCloJ01BPIQNOCXkt0dlZj/b2tHFm1SqEEAxBmI8cWoth8i25i60/qU3TbO0YRGkaUmFHvYGIWJA7sAbZwguAJxEUOCbG5zA1MWc8RoIgNBooKQMTHVHktaNdeDXN6Nt760fa9qR/kbG742Y3W3t/9uwWgUtFwJKRS0XKfu6aQ2Bq+F9vOvvkt+/PLozfSuZR9GCmDq7Rz6jFfBgUUFObRN+OWqSSRFYorK3gB3m4rhP3+bjmbu2qXZAlI1cN6mc90bKA1QhWiYxEVu4RGUlA60rjsHri2GlTMcZFJMQmUatJz0gJuGlkpIfOvTefaerefU9j+0uPb+1d2bNbBC4fAUtGLh8zu8c1ggCV+o4+evZXJs4d/a1sZiFNJKPY60OHDhxq8YEAmmXR1lZl/nccEq9GlY7Ugdbk3YuGaNfIfV3Ny7Bk5Gqi/cxzraqmoT40JkJiVFCASiObSWJqYgmTU3NIeClIFfVlIvNhmt2a+haKNJy6tnzv/tve3bzDe7+NimztmNqzrw8BS0bWh5vd6xpBQA99tebpgcc/OzM1erdgPjyhjPeIChxDNIQjkcnOobLKxa497ahMS4ThEryUC5nPUa3vc9xJuZAUMo1jYFFdtHFjYbwBZ0ZDjE0zDFPX3j+6H0NjBSjjBFp0st3cCRA9iGgRpo2UyOY/9LRxvPsdUdfevg6BzrYQDuaNWNlEBq7zNFspGVEUHWEKmgTVOgGlKnFxWmFwYAJeIh07sUbZFyrrzfohHLcCBXiyZ/+tD7T1Hnx7uvFmW8q7uVPTHu0qIWDJyFUC2p7myiEwduKB+04++dDfsvx8RZr5ENTNN9QQbhIFqeCmXGQKS6ipc7B/bweYvAjBsqYMmCIDUcfUuHpheXGLqxyKi2/cRbXYsL5Y7XC9F06SWRYXDrRSxnOFe2koVGJ0KsTp0QzOTfh43wf+EmfHQvjUmp7ICpESY34Rb+t9ihj/jOgYhGNpDaop1wbQ0gC877ffjuZqjf6OJPq6XHA1Bx1mwIzjnVvS8fbKzbHnPnJxRqwltZcGiuBJ5DILSNWkEBSWDBHhTgV0WIl8LoHjR0egpGuE1nS/yqQZo1RkAA8L2kXnzoMX2rv2/GRD9yu/vBUI2HNaBDYDgUv7xmzGmewxLAJXCIGZUw9Xnz9/9IMTQ0f/c1pnhaAqA7PKMUjhwVfKaAEpRdPelkJXZxUQzgAigDbOlZFo0Lxxxrby0aXSQhMvkduUjFBaizHHiBBCxcB4An6YxMR0DiNTeZw+t4j3/+knMXQ2JiIOICnytEnuFcUlvLikG7iZ6Qtn6GF3G/D//tp/Qk9bGv1dVWitdyD0PBzkANL8yBKjsCs0v57/sBsgI1TWKwHhCQRhFsKlSA85sZJotRLjo4uYmc5FglYif4y690adD1SokYMLp6lbte848OGd+zr+b+u0uiUTwJ50kxCwZGSTgLSH2VoE5s5869bjT33r/vzM2I1JSCZ0FM5mIgFfhZHbNvJIuHkcONiDVDKACpagzds1WXKXkpHSe9nOZESBabncnt4seNyDLx3MZxVm50NcmJP49kNPYGYuD5FImYXQDwJQ9ZIpkTY+GevfyO6cNtODxdih88jin0gSAqQ9hlff9WJUpxSa6pKoSWkkHIp8ZUG7EHmKIltbtT0XGbmU62Emguekk8hn5pFIpRFKigelMTMd4OzpC4D0IDh15CXtEyBcB4HUCEJAJSrRsvOGE/U9+17X1vbSM5dyRvsZi8C1ioAlI9fqyNjruiwEtH7MPf34iV86c/zJ/+GofIqHebgON+ZQnuchH2QgHFo4smhprUZXVxOUXIQQJGal5EMxTVM87RrNyDaNjBAZiSJA0aLKuWNKRQMlEFA/lEQtQmrS5qSgBUcQBNBcIkGLYliAY7ogr58MGHN+8xQq6kWiRxKpU7hW8AsZVKYTKCzNwRMBHC4hPAfIZ6DDEODFNNtlTZdN/PBGyIjpyWsqYrRDMSryF0khDD2cGZzG4mwArh04wjWW74ozCu8h60swkUZVY9dS284bfqNtV+Of2qjIJg6pPdSWIGDJyJbAbk96JRCYO/vtuqGTT/zj3OTZV/Mwi4SjqbY3XjipJXsI7tLbdIDu3k7U15Pb5WzUSG9V2oFEsFSKs5w8WL7c4lv4sov3JqUrrgQel3JMRoZZ1GhtmZTExIC7JqqUy0t4iRQCSmeRfFVTVITBERqFbA6O45ly6vVsJt0QUw/6sUqLGuPvOeSUS+MjwRUQ+hHJpHISTovzcwqQ13NFm7nPM+fOsx1dGF6VQyJdg1An4UsP5yczmBqdB1ceWKgghIBGAMUFAk76JyBd26w6dt7w+ab2vrdVNt8xuZlXbo9lEdgKBCwZ2QrU7TmvGALnjv7TKwaOPPoALyzVIsgg7WiosIB0wkMmswgvTc6VISpqq7BndycYmwZnuVhHGTXRi5bjZ9+2FxmJUiO0ibiSg8QglK4xFR2CRJOkV2DI5n24rjBW+/TZopOt0ZsYJhGTt8v5GUNMYmAjYF1F/qLromtRSsF1PJNOCikqQNU/jIELASmJZF6LjPASyAhTBsuAzPpYFbhTYxxWjx8fAQ89gFI4gClRl5Cm90xeu5CiAg1dO8e7dt36hoaOOx+8Yl8me2CLwFVEwJKRqwi2PdWVR2Bm5uHqkaNHPzg7MfRGmbnIqig6EuTM2zSlGLhwyR4NWgh0dNWhtZka5mWWUxWUHiBCUvQrWbniaHHcWn3CZuPHjF8FLfIUYGClFTJRq1hTQkvls4wJOAkXqpABBSS08sGSSSg/KKFvtAAXq5Be+KfRhsThEJMUWxWeimMmFBXQCkpSOoes0CPyE1UiK8rSbDEZKT5Ci4ToEkhIcRgZRaR8gCcQqgoUwjQmxvMYH51FyqmACiVothIZobLfnAICpwLp+g609Rz8w66D1e+yniKb/Z2wx9sqBCwZ2Srk7XmvGAJTZ//1ZScPPfRRuXRhnxMusCqXo5BZQjqdRj6U8MnOwUmDOwXcfHMzBFtctuRmRj9SJCPFxZUudTuSEYopxD4jiCIQRMK4adLGoajslzuQWkMQCaDIRH4JTjIBFMijJWroFmk+Ln8rJSPLe68qGSYSIsE9F5p0FVT26joIKZKgo0ZxEXncym1jZMRERkIHzGnA9EyI4aEZcFRABkBCcOggC9dhkBzIBhIq2aAbe/Yd6uy/7T/Utd96divv3J7bIrCZCKzzMbKZl2CPZRHYXARIzHrm6aFfO/XUI+9JyoyXdhRE6JvFlnQQgWYIpABzAzQ0SOzZ046QKmt0aPQkYBIy9OGRUJK4yXJEZH3aiM29u809WpQaocqV+C6X9R8r5MsQlhINDSciEMdDJGlO1vkUoUBI0fRr+RCrhSPRzcbpG7pWIj6l6RymKFKylePy/GRE6dA4pmpFUSbSuRQjOxHuRKrcVC1yGReHj44iDCpMaW/oh0i5Aghz4J4w03ChoFDbvnO2Z//tv9bU85qPMWpRbTeLwDZBYJ2PkW1y9/Y2ti0Ck4Nfbp4YOvbV2fGBG1MshKC0gunnQVbaDCFIoBkiVZFHa2sVWlprEfiLEE6IUBYgSC1JUQKzOJt4wTbEirQKRQlprJUpEaPSPUci05V7pz8xvfIvxc9Emo/YvOwyfi5LWA0xIe1I8ZFU4kDCIt9XZUzq6ALkcjRGSPeaJiORNwiP0kyKgkmUV4pM40yTO02xnTTGxzKYmswhCBPgLAVQR2lOpC+6Z18xJGqbVEvXwc81du75uaq2W6e34YS0t1TGCFgyUsaDv91vfeLYp+4ZfPrxv5O5uRpXFeBQE1RFCwGDZi40p9LQLFJpYO/eXpO20ZKcWQNwY8tNjT+Ki6JZhmPISvUB1zdJWSYj8S2tNSGj9EBpsCKSdUSW+0TSipU0xoI/Niu79J8Kcg3pM8fTIiaBMdzFsmom42sJV8iIWnHP3Zr5/PyRkaJbLc25SHjLTZQkivi4Ri+ysBBicGAcUBUIAheCJwwRCUMfzBEmtRgiga4dB8+37zh4X03nyx/emnu1Z7UIXDkELBm5ctjaI28xAhcvPlYzefjR910YO/MmPzPrVbhRJSgJA0mQGXVJ9eG4Gm1tNWhpq4YMF+B6ZI1egEPeD0YpWUpE6Ka2ERmJCdZyPKJEgqGYhjQFN1HUhIiL6YpcJC4aEIYMrG8jUWaRjEQYc3AV+ZZEJCcyQDP0J04nRcSIRD/RL7bejv/5yYipTNLMREc4eaIQv42JidKkx6kwgtXxsVkknCpoGaVxSKJTkCHguCgoB6mqVtm9+6Y/7Dp47zvXh7bdyyJwbSNgyci1PT726jaIwPlTX73lzPEnPjYzfe6GlKOQ4NJ4j4g4TE7W5sJjxiq+b0czqqs4lM5Byixc14nJiFkeSq5ku5ARYy0WL/6RfmPZ6o30GTEBIVJiSACRkZh8ROmayD5/vYSAqmciMkJbaQhmJdrx3B4msVGbISlbKWJ9ITISpWSEcEx/mTCMdCOUriFzs4uzGmfPTkP5zBAxh7uQOoQ0RI1KeQVYshYdfTc90dC15z81tt9+YoNfCbu7ReCaRMCSkWtyWOxFbSYCxx/9xFsmTh/9Y1mYSyYQwFE+HBWa6EjkLiqg1CKaWyvQv6MFvj8LR1CaJrKUj7a1ZGRjzpubeX8bORY1CjSkoniXy2lUY0tRAAAgAElEQVQp0pNEEQkiDWvvlrQdKx1nix3vLvdn0X119R2sbZi3OlUWExezC0VIaIyuXTJCc8xUJbHIr4XICDkCk39LPgsMn83i/OQSqlJVUIUArmAIdWBImnQdZEIH1c07ZnYeeNmvNHS//P8w9ixOfBuZAHZfi8A1goAlI9fIQNjLuHIITE4+VTFx4uEvzIwP3s38eSR5CEf74IpDqjT1Y4fCItyEj/4dTaisYPBchVD6pv/JMhlZrihZMUfb2kqOjWIWUwwSWRbTL6VuqnHlSqlzRiToXfEHkYaRXJ6/yMrnKbISkaFIuxL1CSqmZFbfHUVOihETIkKRj0kkv7j2yYjgbuTZIjU8N2FIyfnzWZwbocotDx53wKkjr/EdkQgpTUNVTJUtqrnn4D+07nrxL1ZX75vZ6Ijb/S0C1yoCloxcqyNjr2tTETh19IH7zh1/4uNycaq6wgnh6pyxFAevNhEAKTOmkV5NbRJ79naAYQlAPl7oSv1GosvaHnbwFFlYqRqK0i2rNSBFjUaxfsaQlhiAKHJCKZzLMPoqGVVKwQijEYmiHMb0zByrKFBdGyNZISRRVIaZ819b21osIt2R47iGTEnJIEQKSwt5DJ2eweKih4pUI/xcBkmHIQwy4C6H8gTmfY3WHTdm2/pufnVD591WtHptDbS9mk1GwJKRTQbUHu7aRGBm5lT1+MAj750cPPwW4c+5NQkJFeahhYeCVHApOqLI94Gjs7MBHV0kJJyDpioc+qNS0e9NBYRAIGGqI6hryNYbb20E85XF09CQNX1mosjDajK2IirdyHmjfUlzEtO7EvO05yM36xfMbvxq1x6hSOYIt9gWfzmhVaRYdH+kE4mIngzpDzU4e2oBF2cDBNJBMpGGDqmSqwDhcOSVhM88uLUtYd+BO97Xufve39z8a7dHtAhcWwhYMnJtjYe9miuIwMjJr98xPvDEx7MXzu1J6AwED8AEN2RECBdakeOlQF1DEp1dDqqqAki5AMdR0ERGpAZzXFDHEGr1TnoADv86JyNXEPBtf+hnIyNF8haRD+O9QtEjLY1mxHFrMT6SwcwUkF1iZv4RqYUODGGRTCMTAF5NMxo6dj7R3LPvJxrbX3p820Npb7DsEbBkpOynQPkAoPU3nOHHp35tfPCp3w2XpnnKI2GhREAVDixlqhzCMA/hhmhtrkB7eyW4mAcTPnQYmV1yxzOLiiThK60eOthizUL5jN/1dKfFgA9V0pADq18IIHgKSqdx4tgYcksumE6aOeT7vumxIxIC+UCjoDgaOncsdO666Tea+hr+jLHbaZLZzSKwrRGwZGRbD6+9ubUI6FNfShw+PfAvFyfPfA+XGbhk/248xlNgJpaeRRBmUF1VibaOajQ0klMmlfpS1Ubczt2Qkcg7AppIyrWmW7DjftUQ0CLWuRSd2aM0EiXvaJMqRMJLwi+Qx00lxseXMDWxgHyOIZmoMLqlMAwBV0ALjrwEREWt7ujb/8n6HQd/rr7+9vmrdi/2RBaBLUTAkpEtBN+eemsQGHn6U/eMnj7x14vTo01px0eCCcjQNSF1xyEykgdnCSNm7euvMVU2YAVoFZiQOvVyI/0IeUVQR1m7lSsC5A3ixBVA1NNIxdqRon+LgtISgnvgogZz1Ahv8AKUdCBDBYdFYmCaUyHnyJFBmleBhvb+ua7em15V13vXE+WKrL3v8kPAkpHyG/Oyv+OZmYerJ04cf+/Y8NG3pOWSm+Lkg8ZNXp+IBzU3o78LodHX14jqWg4v6UMhZ7ScFHqnbaXst+whLVMAYjJi+uYU1pCRCBKKngU+g+u2YHBgEhem8iZd41DpuF+AxwSY4yArJXLMQUVju+zYefD3u/b+yK8zEpvYzSJQJghYMlImA21vczUCE6e+tv/sqSN/kz9/+tY0C6FUaEgItWsnxkF+EEROqqpTaG2vRk09RUUy0CRiZeRzEXtibMsGena2XBoCpZERStOsRMkizQgJWB3IIImFWY6zwzOQMhUJn4VvWg4kqMIGAhnNoStqdEvf3u+09+x6Y23rXacv7RrspywC2wMBS0a2xzjau7hMBLTW7NShz/7UyOGH70+xHDiKaZio9wqLK0iDIEBPbzOa2gCIRZPjp/42gpxJtYRCsaTzMi/AfnxbIFAsTV4xX4sqbKKQBlVdeXBYHY4fmcDivITrVRsy6wcLcB0BRzMEmiEDBxWt3bNde256V1tf6n7G7i61/90WWNmbsAg8HwKWjNj5UbYIkDPrzOGHPj09cuy1QixRg1SwMKqSobdW0qcy7iIIl7BrXyOampMo5GYhuIYwEXTq32LJSNlOIOKnpmyX7PJJP0RzQprKGPqTVg6cRBNOHZvAzIUQTKdNVITIiCQHYJpDiiFLpbx1TWjffdMDNV07/osVrZbzjCrfe7dkpHzH3t45gIlDD9w1dvapv5m9ONyVchlcuJBhaAiHcQXVDJqFqGvw0Nldi1Sa9CSLcKjFnBDGxNVu5YqAgmDS2LxrJCOSoaiFgIZwHWjlYX5OYPTcArIZAYaEiaYZwSpZv3MHATmyJitR09oz39q3/7WN/a9+tFzRtPdd3ghYMlLe41/2d09i1osnj/zu4MChtyZY4Kapm2q+gAR17DVGVYF50w3CEN29jejo8hAG86brryEjtpqmjOdQREZIX8R4FPUIwpypshKOg8B3MDQ4j8V5ip6koBX1QIoiJ0pSSwEXuZCjtrVLd/Tv+9PWfYVfZuzHijXCZYyrvfVyRMCSkXIcdXvPqxAYP/nlvacHHv9Ubm7sgEciVh3CodiH9KF59Caby0vUNaTQ05dEqoI8WCW0DNa6p1tkywoB6thD4mcF7lRAKwEpJVw3YXxo5i4WMDw8hzD0IHgSMtTQ1KTRcaAkR8g9+CKtO/v3PdLeu//NVW13HC0r+OzNWgRKELBkxE4HiwCAwUN///Zzp55+v1ycFrVJBzoMoGUI7sJ0WGWsAorl0dAE9PY2wHMlAn/JvOVa07NynUIKTFOVlTBRDiXJCM8D5xVYWvQxPjqL2bkASnmm3YBUCoyT66+DQqChRApV7X1zbT0H3tG2+zX3M8ZsVKRcp5K979gm0AJhEShzBBbGH2s8efihB2bHj7+02lVgoQ+SjWjOEPgKyVQVsvlFeIkCdu1uQW2NA6WWSPFqyUjZzh0iIzrqKUPaIs3h8CqEvovJyQzGJ+ahFfUyYuDU+0hHZeGkMfHJ9Cxdj46Dd3yptnvXT9bW3jhbtjDaG7cImB7cdrMIWARooWAjh7/w+vFTj30kXJpqcZkPQcJE5SGQGo7nIlRU/huisSmB9nYP6SpqoOdbMlLG84cpDe4wSCKvzANYNWYvSIyNZLGUlUY/QoW+9BnapCa3X21SOXXtvYuNe178fQ2dL3uojCG0t24RMAhYMmIngkUgRoDErOOHH/ud86ePvjXtBp6QElwlKDyCvMrBS7pQAVXXZNHTW42WlgQUMmCg6Prar1LRPLNYbhMblyyj/Vz/bodj6xGgsVk7XsWronFeMUYlB3jOGXzpwxEkUq3G6Ll5TIzm4PAKk5YJdQgutJklUrnGV6S6rjHs2XXThxoO7H0HYweJ0drNIlDWCFgyUtbDb29+LQIXznx139DJxz87e+7UnhqXwyMPCSWhRFQJAUbpGYmKtIPevgZU1ubgF2bhuRWmL0n0hVIIChkkKhLQYbTORH4kxa+bNuXC5m1A06L3XAufHZ8rjUCxoR11k6GNGxfVEjJixmflvY0kq6YHTfFflTaiVSeZgmJJTE3mcHpoCknRAOWT0JlBhQGExyAdB0uSo8BT2H3w9sOVjb1vaup++WNX+h7t8S0C1wMCloxcD6Nkr/GqInD8sY+98fzw8Y+wzGyCYh9MBmACCBmVcBIZoSXJQUNTAl29Ao5XgA5IycogGDdeE1RlQW/D5CuxQkaKi5olI1d1QJ/nZKvJiKEaJbbu1JW5lIxEVGUtGQH3oJiHbF5j+PQ0chkOXRBIiiQoukaWaEQ+A+FiQQrUd+1ZbOrd/66und//Z4yVMJtrBRR7HRaBLUDAkpEtAN2e8tpG4OLQV2tGho987OL4mfs8TdqRAjhFRhQRDNeQkSBQSKQk+nZUoqEpibAQaUfIKl7KAK7HTWv4yKm1tGsJLW60OMXv28uL3bWNyXa9uucmIzEJWRsZMeNWTNOQaFVDiDR86WF8fBZjIwtIuNXw8wopxzMaI61DE1nLKQadbkD/gTu+VF256yfq+m6Z26642vuyCFwuApaMXC5i9vPbHgEjZn3y0/eNnj72kWDxQrPQeXhcQ1GpL+fm/4JP5lUBamqB7t4GJBOUziFXzcAsVv9fe28CZWdW3ff+z/mmO9Q8z4OqNLZ6oCeaydAEEzABx06MY15YiQPPPBMTO+AYE09ZTl7Ww0nes/1sMG0eD2MHMLYxD2yC3TgNhm4aULd60FhVkkqqUSrVXHf4hnPOW/t8t6SSupvWUFKVdPe3VnVLpW86v/Pde//37L3/21rKK2qBVgnc0Bdg22I+/ZAz1PzGCKyHB257qNt0gBdFYSoZL66MvJgYMeTefmEjIUPhN21clIseTozNIiq5kCKANCRaEwgnsW6r8HyUjIuOgTsL7Tv2v7215w2PbVMkfFtMYEsIsBjZEux80e1OwEwfyI2cPvzRiROH3yfjVS/jKDj04aLpm7CDRAsIqaH0Grp7G9DZXW8TW2HIgdMgoXwB14VtV0LfpG2OSCUXwQoSamCynn/AneK36nlIxQiV6KZ3cCF757IVq40iZH1li/rRCCeHUgE4O1PE+Vlqd1cHpQQyno9iuAYnA8RGI5QSufquaGDvA/+1c3jvbwqxM9yqMfN1mcB2JMBiZDvOCt/TtiAwO/bY/pHD3/lSuDQ7lDERPMSQmizAKS/EgGIyUVxCfaOPgR0tCLIRBIpwXI2oHNvyzbR5GuUZbGjCSh90xqv8ngQKi5GtmnBTSdm4cjGSJq+SiNHwoGUtFudDjI/OwdU1MLEPCQfS1QhNGcrR0K6DEgIM7L7n6baeff+iqeM1h7ZqvHxdJrBdCbAY2a4zw/e15QQoXHPk6c9+5Nz4sf+E1fMig4Q+fgCqoDAaUjjQQkKbEO1dWbR35uD7ZUCkX3pJiMgXrZ4nMWKtWyvJkCxGtm6yLw2fyctzeCpiZb1+xobXKps2AdbKLqanVrE4U0Tea4SKBFwSqyKCcg3KUiFxM8g39xWG9j3wkdYe+XEhHt6gTLdu5HxlJrCdCLAY2U6zwfey7QisTH63+fCRJz63NnPqTTmEIkON8UwCZWDFiHRzWF1bRK5GY+eeDuTzsQ3dBDkfYakA16mEYy4EAF7Kj2TbDb0KbqgiMTbk8ryYGLlYyCutm2q6SShkcfZchPGT8/CRh6sD+NKzictKRtAeELs+ijKDXXc89NWBhp5/KnpfXaoCsDxEJnDVBFiMXDUyPqCaCBhj5OToV3/sxDNP/B4Kix2+CeHZNX0NIx0kkUAQBChHi6hvdLF7XzcSvQwhqQJHW0t5m4mgN5SJCvo95ZHoCymT1cR0+4z1cjFCqx7pW6KdH1rdItOyJIEfZBFFlJws4ft5FMtlGJ3H84cnocMALgK4xoGJKWkVEL5AURtQFknXznvmO/vvfGdLz2v+5/YZO98JE9heBFiMbK/54LvZhgTImfXcyKH/Ojt29Kd9VXYdlOHYDykNV2bTEl6XLL8jtHXk0dVTZwWJdGNIo2Goaoa+Jl9YHaEQD32wrYsRNj3bumm/3Al3gxgRGsqW7lLCsoHrBLbbrjKu7dB75sw8FuYVTBLY1gEUkhNG2bzkWBhbPZNv7dWdg3d/3G8Z+HBHx92FrRsnX5kJbG8CLEa29/zw3W0TAvOTj/WMPPXk35UWZ3ZlZARhIuiE2sVnUjFCPUhMCMeNsG9/P4JMGYletcZn9pu29ipuqxWXTxYj22RmN4qRjW+HldUv2whPIlGA52WRKOrO66BYUDh69DSkaYA0ge3eK8kUjyqpqHoGDpRbY/p33/+91p7d76ntfPDwNhkw3wYT2JYEWIxsy2nhm9qOBMae/vwHTh89+N9cVfBEUkTgCCSJQhBkEYYhHDJGMyW0d9aht68u7VsjUzM0aWtIJVJtQkmT5MxKKyNkE8/b1hFYt35/oRChMBqJzHIpgh/koJUHpQOoxMOZM+cwP1e0pbwOqDNvCLiUSKRQSgyEX4d8U3epZ/i+D7UNv+kPhdhYTrV1o+UrM4HtSoDFyHadGb6vbUegMPd017FnHv/UwvSJNwe6JDKeQVQOkclkEMfKWr+7nrDVNP2DLWhqyULrVUCQPXz6Tduh3JFKZoL9Db8Ct8k8v7gYoVWROFJw3CxgAiRJFufPFXH6zDn4shZIUjGpRAhBCavQKCVArqEXnQP7H8117vkxDs9skynm29jWBPitcFtPD9/cdiJApb7TR776juPPPfFxL17plEkRriOgVIIgyKBYLNpk1jgporbOx6493RCyCIgSJJX7iqQiRiSEdi5Ywut1k4vtNNiqu5cXFyPkoup5OYShhuc3obAiMDYyg0LBIHDzkJQ/YhSUEyGRBqHRUF4erd17zw0M3fPPGntey06rVfcs8YCvhQCLkWuhxsdULYGFhQP1k89+73eKZ0+/O1qdk5nAQZKQwZmHmCopBIVqyBZeo6evGW3tWUCuQYoCIMNUjBgHQmdBZReGvkuzGNnC56nyFrjuL2J9RS465lIfIs/NIk5onrOYnV7D1OQKPKcB0A5cI2BkgsSJURYakfRQ19IT9+y492M9DYO/Ktr2r23h4PjSTOCWIcBi5JaZKr7R7ULg3NhjwycPPfHN0tJUl6Mj5HyJUqmEXC5nyz+pJ43nuZBuiLvuHgDkCqRcuVSMmBqbQ5KKkQuWWlc4xMu/xV/hYbzbSxB4Ee+Xin2/JPfUokIu14a5uRJOjMwBOg/XyUInBlIrqgNG5GiUNKCytaZzcO8zvYP3vqex7YGDjJwJMIErI8Bi5Mo48V5M4BICo8/8+QdPjzzzn9zCfDYjIgiROq5a+xAymgD1rSmjpTXAzt3tiONzMKIMz+7owSQenCAHk4QXxcj6t3J7pYtWW+mFN7Sy3+gSeskxPElXTUBWujFD2GRVk9A8koeMoRlErEmINGFt1cPo8RmUCwE8N4dicQ3ZjA8RR3D9AKsJua36qOsYiobuuO/ftHT/0CNC8JLXVc8HH1C1BFiMVO3U88Cvh8CZM9/uOjv23COrZ468LdAlSCf1maBVESndtGtvEiKTU+joqkF7VwZJvALXMTD0jdpkqMYmrahZXxm5KjGSHms7AXNvm2ufytSVzlr8W/t+k3ZlpsRiDRIkAsZkMTsTYmamCBMFkNKHMTHNNlwrWARiJw+VqceOfQ/+fU1Xx9ubmx9aufab4iOZQPURYDFSfXPOI94EApTMOnH8K++YeP7J39eF890wCr4rrfcINUpzyBZcle1qSLYG2HNHFxwnhCDhYj/iHGht0hyTC6/CjT1qLjfjWr/pl8hx2IQxVeMpbAWU6wIKF/xiBIkREiIkTJw8FhdDnDp1HlHZgYMMtBbwfR9xWIak8m4tbCO83l13n23p3/cvm3tf97VqZMljZgLXQ4DFyPXQ42OrmoA59Vjm2JnDH12YPvGBcnFZZL3UR0QqYUM19E071iHcjEJndw3aO/PQyQp8D9BJOQ0LaGq2dzUYubfN1dB6uX2VSrsr0wITJatKCtsIWJMzyMBavk+eWcTszCIcmYHjeDZXhNxYIyrntlG3LJxsfbjzrod+p7mu5zcFO62+HHb+dybwAgJX9TbI/JgAE7iUwPTJv+6fPnbwyfmzZzqyQiEQAiLREMa3qx4JBWM8BScoY2BHC+pqqdVaESYpwPVdGCUu60+z0Rr+xV6e3OF3U59BndhVKiOlnS8KeSm7YuVBiDqcn4sxceY84ois/8nSn/oKUQhOwjgZlMkCPsijf/f+I/XNff+8ceD1nLS6qRPEJ6sWAixGqmWmeZw3jMDI9z/1vumTR/8vXVzO5oSCpJa+mkI1AWLKaCVzNL2K1vYMdg63IInmEbghDChbklZGNjTRe8nuvuu3z2JkMyfSkYCKKWE1zRVR1FtGSEjkkURZnBhbwPzcGjJ+xlr7GxXaEFwcScDLY408WNt74qHd97y/afCNnxLiQmnUZt4mn4sJ3PYEWIzc9lPMA7zRBM6deqxjdvzIx89PHn9HJilKXxjoRFsxEhnKbBWIRQmen2BoRwNqaxQyXhla0/fqNFnSVsvYKpkNVTP060v8L+wvKsN5qZySGz3a2+v8jpBI4hiOn4bVIuo35NcgiTI4d7aM6TOrULEL15PWwp8SV0m0kBtrSD1p6trRM7z/8f6mth8Wva8u3V50eDRM4OYRYDFy81jzlW5TApTMeubIl//p+KEnf08Uz7dlbcWMgoALLQMoCtdoCtgU0dQI7NndAYlVwBRg5IaXIIuRm/6EUI5PohTcbCpGiuUE2UwjCmsejh+ZQlT0kM3UI4qLleolY+Wg72exVJZoHbpnqW/X3e9t6HrgL276zfMFmcBtRIDFyG00mTyUrSNgDh3yxwoHfntm9OmfNeEy8r5r+9UAPozj20THRBXhOyE6u/Lo6sjDdSMkqgSXqnC0riRQujZ3IfUrof9fHpZJe9xc3DbmmGzd+G/VKwsqs/YcJKZkS62lm4dK8hg5OovCqgGUb5NWqWTb9hbyfIRRYkVkrqkn6r3jNR8X9T2/1tq6Z/VWZcD3zQS2AwEWI9thFvgebgsCs8cf3TE19v3vrC2cbnNNDJeSIZVjkyGNcKANNcwLUV/vWTHS0OQhSVZsLgKJERIeVGFDG5X9UjjgUjFyeYiG9mQxcj0PjyM8aBVDS/px4LkNmJpYw/y5GIVVDd/1LwpF14MCiZEYufpatPQOH2oauvfdjW0PPnM998DHMgEmALAY4aeACWwSAQrXjD/13//D9PhzvxqunZcZx0BoAaOpUoOqMwS0CiGdGK2tefT0NcBx1iBlZD0uaFsXI9R8z+Ym8HZDCZAYSXRsE1e9IIewnMGxo9NIygHiCAh86jlETQ5dCC+DcuQikQ7aujvQPbz/F5oGcr8vxMPp5PHGBJjANRNgMXLN6PhAJvBCAvNT3+ydHH3mD+anRt8i4jVJ9u8OrV4oB45wrcU45R/U1Hro7qtHazOFZUo2DEAGXCRGtEmgdfrnF4ZpmPpmEqAoGFXHhErD9WowObGKszNrSMouPM8H+cPTHAjXR2I8FJWPTG0TuncMfmPwFXvfLMT98WbeD5+LCVQrARYj1TrzPO4bQmA9mXX65DO/v3J+ojUnNXxqiKdAvqyAlIhUCOEY1NVJDA/Vw/fTL9baKAiq2AAJEzLgSvvdXLpdVm3DVvDXNY9KaXheDYzIYHEhwvj4ApLIQRwqZIMMVFyG41N4RmI1kjB+A9r6h2e7hna9r7X79V++rovzwUyACVwgwGKEHwYmsMkEpqcP5OZPHnxkdvzwu7KqJOijLDVCowRJzxqhRSaEFGUM76izOSRB4EHbipsEEPRtvCJGyKectgvN8UiMkO1nRZRwb5rrmj2yoCMhItCI48emsbKkbCNDsqJzJFVFhXCDDMpKoJi4qGntS3p33/2p7tbdvySahpav6+J8MBNgAixG+BlgAjeSwNSJR/vOjj79eOHcRI+rivCMSJ07BTl3SiRCIUqW0dxg0N3RgIbGGuthoakBmyQBUqmasWKDfjb6kLAY2bS5Iw+YOMDyYoDxU0vQSWBXo1yXREkEQW6srody4kDk6tExtO+59h373lXb/ODhTbsHPhETYAKcwMrPABO4EQSM+YJz5mD8iycPH/gNNy5mA2ngGI1E0YebQ4kKiJMijF7B4EAr2tobIJwI2lAHYANhtM0doYyTtDNvZTPuxZWRC79nV9aL5c4vF8ZKLd9tT14hoU2AJM5idGQBpTUHWrlwHQdSl0DGuGRIp4xEWfioa+9D795X/EJr3w//rhCCod+IFw6fs2oJcJimaqeeB36jCcxPfa93auT7n5ibOPYWJy6K2oyHsFxC4HqIQoUgCKCFRpSsYHh3i7WLL0eLttrGocUP+5kZ2NukdvUkSmh15WLIJv2wrO6tIi4E5d1owIo15wIjCnuRbkgbFwKGgAkNISNo7cMLunHsyDQW5gsQCOAYF64RECqxzrna8zBfDpHr6DbdO+880FI78Na6nlfOVzdzHj0T2HwCVf9WtvlI+YxM4CKBiee/9GNnTj73SLQ82yKSEuoyAcprBdQEOcTKIKbQDUpobBHo6a9BLp8gTtZsGbCULoSiD1cSI+m3+UuKfc26lXw1E//BYkRIMpNLrHEZUUxiEiIGjku+LlksLmYxObGMYoE8YBw4mnxzBYzS1nckoh8/g/q+gXPtQ3f9bGfnw3/JqyLV/Lzx2G8UARYjN4osn5cJAKBk1rXJ5x85dezg/xKYCBloiCRCxiH/igSJ9CBcCt8som+gCd19+VSMaAnHETaHxIoRTR+m9GWd/r6+AsArI7ISLHmpFSISdVQ27bqpqIuTtGSaxEk5dHBybA2rK+lJKMGYHFkpTKMVoKWHkjao6ehJ2ob2/FFtx85/19Bw1yI/2EyACWw+ARYjm8+Uz8gELiEwf/rr+44+++TfJmuL3SitIOcBTkxhAg3jZQFpUC4vobE5QN9AA3I1kn6VChERXipGKuGaNFQjoKs8dUFWrPH1emjG5tGkIa10RcmBUqmbLW1KG/h+DkksMD8f4fT4ClTspwJEa0gtrFBJNFnD+FB+Dh2Du0+29e/5qfrOV3+PH20mwARuDAEWIzeGK5+VCVwgYMxj7vjzyx84eeT7/9GJVvO+KiKgcl+joIWPiNxWqbkeymhpzqJ/sA2erxFGa2lVhw3RXP5S5fzJNGyVVhpRIqqtOBJRRYxUvMgMrShJ2xtIK7Lb9+C4OWh0btoAACAASURBVKwuakxNLGB52cAYB550bGiGslaN66IYA4kToKV7R9I1uPdDbcP/8Hf5kWYCTODGEWAxcuPY8pmZwAUCC1MH+kaPfO+R1emxN/u6IKwg8SWUdhHGCbK5DEqlAjxHY3hXN+qbKERTrCSuUnJmRXyYtHcNtbPnrSJGDDnbpom+sD4ttKJEPxTO8iCFC0UrTcrAc/NIYg9np0uYnV6GhgehJMgpl+zmSIxQ9sgaJNxcE4b23f/3zW0731nTfudZ5s0EmMCNI8Bi5Max5TMzgQ2rI0ZMj339HSeeffIPUTrXKspLyAXUt4bCA4BHduOJhlIxmlvz6Ojxka8FlIqsCZrAxm/662Kk4j9SxZztyoitMErFiKaqmg1ixFBSqqSGhLS25AMij4XzJcxMFlAqarjChSH+FTGipQRJQJNrQGPX4GzPjlf86+bOhzhptYqfMR76zSHAYuTmcOarMAFQuOb4k5O/c+b4gffXuSFMRE3yqIbDszkMvpdBHMcwYg19O+rQ3pmHNmX74WpLe2mjlZGNeRG2lLV6tzSBleqgUw5UKm1XjWy4xtggjhUjsYAjc0iSPCbPLGB2ugDfy6a5OSqBK6iqySCSQCgz8Nu6osG9933Cz+/4ldbWPavVS5hHzgRuDgEWIzeHM1+FCVgC86f/ft+pI09+dWFypL8+L4EktH1rhMmlOQ9IoFFCTV7Y6pq6Ro1CcRG5XI09Po5KcF0K78RpIz1dCdtUKV9JySAbtrSq5qJ7LTUmpMoY6dTCcxsxPbGMM+PzcETerkg5oFwdDYfEiBAoG4Gym8HgPQ+eqG3d8Y87Ol5zqErR8rCZwE0lwGLkpuLmi1U7AWMOeGNPHf3AzKkj/zEpzOWy1IdGazimFpRlKR0FZcrWlKulOUDPQA5+YGxFCFV7uA45s0bWspxWVayJ16XuI1WEOLXYt6XOlRya1Ill/W3NwFgzNBfSqcHqEjA9uWb7zxgqnZYeJHUKctJ8EuU4KGsXTX07wqbBvf9b78CP/BF7ilTR48RD3VICLEa2FD9fvBoJLE4/3j8x+uwjMyePvCnvhFKSKReyMCRGyKTLRNZrJAgU+gYb0N7TgriwikSFyGZdKFW22MhDo+rFiHbTsJUtgdbQSB1YzQWBRg0HfRhTg9On5nHuLDUozCJJEnieRyqEjOFtz6BQO/DqmrFj3z1fy3d2vKuh4XXsKVKNL1Ae85YQYDGyJdj5otVMwBgjzhz9q3efPv7sx7A2m3d0yX5gWnsMcl4VKjU+k5Ht6Ds41AXfi5GoEnxPQFPcgZJaWYxAbhQjgoQFWcG7MPAu2uYbD6trwJnx81hblfD9bOrxYhQkpQZrA+0FiOCje3j/bHPf8Adau9/wRSE2NgWq5ieWx84EbjwBFiM3njFfgQm8gACFa459b+RPz44e+DEZr8JxyQjD2BwQj5xXUQB9FhqdoLOzHn19dfbbfxKHNmckdWat9mqa9TANLRNVVkasO/y6GPEgnCzKRYHpyQUsLYZQyoUQrnW3jaLI5t3QuhQ1wss1d8WDe+7/hKhp/+WOjrsL/NgyASZw8wiwGLl5rPlKTOASAucnnnhw9PuPfjFanemm3AVa6aDOd/R/YSKQaagi6/iswK49raipkYjKBXi0OmI2eI9ULdfLc0Z0Wk1DJmdkdmayAGoxP1fCmdPnoBIJISnMpREEvhUjlF8i/DwKyKBvzytONHXteXtL131HqxYpD5wJbBEBFiNbBJ4vywTMxET29Ozf/cq58cO/WCysBJQvsm5vbhIXrqReNAlitYLOzlr09DTAdclGnoSKpEyHCsTqdWO9WE1DhmUkRlI/FkMmaDqHYiGHqYklLCwU4brkxmqskJNUiWQEbHPeTB0yLT3o2fOKX27te+NvcdIqvzaZwM0nwGLk5jPnKzKBCwQKZ77dNXbo8U/On5t4iyMi4UkFaTRM4lnBQdU1pfIyvEBj164eNDW6iKIV+B7lRigqXL2MZjXZxtPKyPrwDbSk1SIFY1eYKC+kDnOzypby0koJJaxqE9quvdQ8T7gBYvIn8evMjn33fb2hve/dNe0PsdMqvz6ZwBYQYDGyBdD5kkxgI4HZka//o5FnH/+sWpurDUQBgVSp9wjlMiiFbE0eKyvUSC+DXTs7EHglQK1BiBhGUn4JlbOmJa1pqevGjcSKoehPJcck/Tcj0v22vs/eupi6/L6v4K3JSDjU2ycsgfoNKh3aehqyePedNqyuSBw/chZJ5NmeNBT2SlTR9gGiXJGyEijKWkpane4Z2PPz9R2vJqdV9tnnlycT2AICV/CK34K74ksygSoiYA4d8scKz35qcuTgu7J6RbgmhGO0rfhQTtZWe1CRCGSInq5a9PXUA2rJJm2mll0vIkZIlNj8iXUxcukKyu0iRoSmhFQypi3bEI0yAp5bg8JqBudmyjh/rgyjgzQfxxbxxoDUVoQVjYugY1h19O/59I7WXf9WsNNqFb3qeKjbjQCLke02I3w/VUlgeeLJnccOfuMvywsTd/iiDKETCG3geBmUoxh+xkMYrSCXA4aHO1FXK6CTNRipYQR9uK6vLKQv6QtmYOk6SCWx0/5LZWUkxbx9V0au5DEQQCLh+A7ipAjhSCgj4Xn1tvfM1MQKTJyBqDTRI070Q8EtEmPKr0X37vtOtXQOvbGx81XjV3JF3ocJMIEbQ4DFyI3hymdlAldFwJhD/vjTh95/5vjB35RJoRYR9U6hJnoarusiSWIISbGbEE1NGQwOdMCgDOFUete8QIykImR9S6tMbjcxAjgUf5ICZRVBuh6MCRCGDqbPrGBhrgQPOUjpWsda7QgoAZQTBS+TR11rT9Q1fN+HWwf/wW9f1WTxzkyACWw6ARYjm46UT8gEro3A3Jlvd02PPffZ+ekTPySiosj6AjoKkfE9RHEIx6GgTAKDEL393WjvrINO5m34Zn1bX+mwiZ0bPLsuBmkqKyMVy3SxQbBc213fqKMuT8x98etQTxkSakZ6gJtFrDKYmljA8nwEVZZwtFMJ0aRiJIRAKRGoa+k2XUP7vtbSuftncs13T96oUfB5mQATuDICLEaujBPvxQRuCoGZ43/z1qPPPfnnorySE0kRATmtmgS+Qx+6UVoJAo0gl8W+/f0AzkOKUnpvwlTCLmkWycbtthQjghrcAeWQVjrqoUwGq6sCY2PTSIoSnvDhko8I5d5QPon0UCareK8WLb3DE90773pfU+dr/8dNmVi+CBNgAj+QAIsRfkCYwDYiQM6szz1+6HOLUyf+SVKYR55KfVVobeBVFMM4ElpIW0XT0duIjnYJIQoVfxKNdKWjIj3WV0YuhHAuNpFbD+Bs/crIxaZ26TRc2YpIKr5IdCkkyoH06rFW8jAzXcTcuTVI69PiwYOyYo7CVJFwELt55Jt7dMfA/k92N/Z+ULDT6jZ6+vlWqpkAi5Fqnn0e+7YkcHb8m68eOfjdzydr53qdaAW1VogUbO4IffxSua8X5BCZVdx3b29FjFT61VgjNGocd9mHOvlppJ/g9r+3ixgRWlnL9zDJY2lF4OSJeSgSIiKAQ0VIJgJMAiU1IuPAZFvQNnjH+a6h/a+ra7n/2LZ8APimmEAVEmAxUoWTzkPe3gSMGQ3GDz7/b08e/f6veuFyvsYHdHkNnucgSjSE9BAbCeHGqK2PsGdPLxJVhkEEh7xHKK9EJ/ADDyqpiJLLxUgluWTrq2leZmWkIqrIc4WSebVGagYnJZSisSr4mQaUihk8f3gScZSDQBZJFCPruUBSAlxjy6MTJ4v6zqHS4L4HP1zf/UP/9/Z+CvjumEB1EWAxUl3zzaO9RQjMT32z9+zYsT8+d+rY651kDXlPwCQhjHAgJIkSQHoarreGzu5GdHQ2IYoL8NzEdvd15LrHiKx0r7209NfcYmIENtREISl6yxK2OoZ+IBwYZDA9VcDZ2RBRnIEUgXVmFVLDkQnKUQjhZiByjRjY8+DfZhq73tPc8xAnrd4irwW+zeogwGKkOuaZR3kLEjh3/KtvPXnowJeW5yb81toM4tIaXIc+kCViWiHxyHV0DZm8xJ49A3DcBDBFCBlBUp8Wk1gX13S7mC9iwzS3ihgh6SFIfKRvVY7jQivYVRJIEmYZrKwkGBuZhVE5xHEAR/pwyHNEx1T7i1BpxPAxsOuuyZaevT/X0Pu6rwhqicwbE2AC24YAi5FtMxV8I0zghQTGnvh/PzNx4vA/93UoHGqQJxT1pLXhF+kIRCaE6xl0dtLqSD20XoYfGCRx2dqfv5gQudXECPmEkPighRBHejZUQ3933CyixMf01CKmJxcRuPXQiQdBq0cOEJkYWgok0kWQb8XuOx/6neahoQ8LsfNiLTQ/dEyACWwLAixGtsU08E0wgRcnsDL+jVeNHnn6j+amT+6sCQRkUrIVJC6FKciAFBLSpRWDEDuG21FXT2GLMlRcgEvN9MhK3m7kmb5uEb++MrLRuXWrZuDlqmkuhmZoRSQN1aTeIUJkce58iNOn54HYg9SeraBJNHmsxlDWV0TCBHUY2vvA2Yb2wVc1dLzy1FaNlK/LBJjASxNgMcJPBxPYxgSo1Pfks+MfOHnkqf/go1xrSisIpIZP1uaaVkY8uwqg9RraOmowNNyKMF6C51AfFvIo2SBE7B/TXjVp1OPWECO2AaAgF1UBpYytKhKQKJUExk4tYX6ujNpsA0yk4TkCiUkQkxhxXUQyQE1LbzS071X/vqn3Df+nEFufsruNHze+NSawZQRYjGwZer4wE7gyAssTTzSdOvncFxanT/0DXVpA3tVwqWRVC8QmZ+3QjSnA9UMMDrYgXwsEPqBUCGkTPkl/VGI2FTGS/pKEyeX2aFd2T5u31w9eGaFVEKU0PDewYiSOFXwvsP+fnV3BxFQMneQQOFTKqyEUZfZqJK5CKACvod10Dux/rK5153u4/8zmzRqfiQlsNgEWI5tNlM/HBG4AganRR3/06NPf/pIpnUe9byDCNVAShRI1VoxoVYQya6irD7B7TzeEU4S05ucvtm0wRttyMXL5/V2aV+o4HsIwhO8HtnImLCXwvDyKhRhjJ+awtuYjn2tCUijbXj5JVISknj6+g+U4Rs/ue+fa+vb9fGPXG78ghLCBHt6YABPYfgRYjGy/OeE7YgIvIDA6Ohpg7dlPnnzuuz+VRdEJklVIQd14fRty0aCS3siuIHR3N6KtS8BxSzCKvEek7QBMG+VaUEaFTQD1XJgt/XgmC7dLfVAuNvRLESgDuK6E1gl5qcITGSRJHqPHFlBYEzDataEb364OxTaEU9YaRS1R39WP/r33fbK1f/cHhBgs82PFBJjA9iXAYmT7zg3fGRO4hMCZY4/dvzRx+I/OTxzflxUluCRAKDQhXTiOg4R6sFATuAYPXT0+mpolkmgVDpluaMoPocUFaf05yAtNuhsTXLcC9ouJEbqPDR2GadVHJzC285+E59RjeqKA8+eA4pqw4oOSdJWmRoLCCrO1BMg1dKCha+hMS+++H27teeXIVoyOr8kEmMCVE2AxcuWseE8msKUEzOhoMFM+/KGR5574FRkt5wKZQJsIVPoqkU1zKshxVIRo66hFX18jpLMER8YwSsEYZUULfagnmqpRLs/XuPnDsxpjw6Yve0ci8aSUsiskvleDctnByNEZxGEWcSjhSseOKYxK8AIXoQLKWqJn+I6ouWfnb7TueMtvsafIzZ9XviITuFoCLEaulhjvzwS2kMDiqccapk4d+tL5yROvd00JvgxtqEUnWUjHBSS5kBaQy2XQ2VmL5nbA80owOoJJlLVRF6Dy1/SlT12AL3aqufkDk4bEEfXSSeNFF/sNp/enQS6qLqKEVkXqMDm5jLMzK4hDF76bsWOyq0JGkwkJykbAr2lS/bvv+XJj5+4P5Frumbr5o+IrMgEmcLUEWIxcLTHenwlsMYG5ka+9bezIgc8XF6dq8k7ZWp8nETmPunA8yh0JAeMgXysxMFSLXC6yCa0qiSANlcW6QKVXjZbJFooRAandtNxYxBXpQQ39qJcwVfmQi6yC52agTR7LCwrjpxaRxBIR9Z4JMhCKzNAMjOehGCcw2Vp09O+ebe3d/dPNvQ9/bYunii/PBJjAFRJgMXKFoHg3JrBdCJjpA7nDJw/97uz4ofcE8SIC+7mdTW9PRGmOhfYg3Rg9/TWobzJWkChdApQDh8RIpc8LJbNu3cpIRYzQfUsyRaV1kHUxcpG2AJX1NmL0+AyWlzRgfDtORwr45LWiFLTnoWAkalq70bvzrkc6d+77N+y0ul2eWL4PJvDyBFiMvDwj3oMJbDsCU6OPvmL6xOFPF2dH78yYSKSmYCbtR0PupHBsJ99cnYOOriyaWsmrlUI6EtJQvsh6Zc1lSRs3daQbVkZIFFE/ncr1U1M2Sd0A7arP8oLA6ZPz0Dpnfy+dCDAJPA0kRqIMF05dE1p37D3ePLD3h5ubH5y4qUPhizEBJnBdBFiMXBc+PpgJbA0BcmY99dzUL0wfevI3RHkpL2UMMhel/BGqMKG+NOWwBKU1egca0NElrSkaFK0spFUstI+yORtbt5EwurhRqTKFbMg9ljYXBlkkYRajx+ZQKlD4JmNzRAxKNpgjbMPAACtKoKV3eKVnz72/1Nj9hk+yp8jWzSlfmQlcCwEWI9dCjY9hAtuAwOrM063Tx5/9HxMjT92XzUZAUobnBPbO4qgE3/dh4NiE1uHdTWhrzyIKl211jSOouoZs4b0tdWEVRqVVPdJL78ckF8QIeYh4fguOH5nBwryCMDlbOUSboioiYSBoVURJ+I2tpm/PPX+b6eh5b3PzQ5PbYHr4FpgAE7gKAixGrgIW78oEthuBmecffdv0yaf/dHFhLJ/zFRAb60Qah2W4rg+tBJRRaGgK0NNXj1xNCJUs2+6/rpCVlZGtsoSnFZrEliRDpDkvSkd2hcd6oJgAy0sOJs+soLAmba4IlSeTeDGCVnZcJFoCXhZt/btmmvoG393S/+a/225zxPfDBJjAyxNgMfLyjHgPJrBtCczNHatdPfHMH46NfucnfVGESy6s9KrWtMpQeXkLB0mi0NvfjJ5+8u1YhKB+v/T5rlPfka3ZNKSjkSQajkhzQaKkZMNMtlw39nDyxApWlw20zoC69iqTwHHJeVVAOAHKykFdcycG9tz9SNPOnZy0ujUTyVdlAtdNgMXIdSPkEzCBrSNgjBFTx//nw1PjBz+xeO7EUF5GQsRl2zhORTGES8mqHopFjYbmDPp3eMjXJJCCjNAo2XUrc0ZSMUKmZlJkrTCibBGytFcKWJwv4+TJJajYh+vlrBjRIrZChZxmrRV+ph6dA3vH2/uH31bb+dCRrZsJvjITYALXQ4DFyPXQ42OZwDYgYMwXnFPPBz976viBj8rSXM7VZQTCgSSreGEQUaGKyEOhiKZWg4HBRgSBQRySVfxWvgVQsir5nKRGbEZLCOlDOnksL5UxOTGPlaUE0AEcj0I0BmSqQpVCcWyQOFk09u0stvft+0j7kPiYEA/TyXhjAkzgFiSwle9EtyAuvmUmsD0JLJw4UH964pkvnz/17A9lyQgtjhC4jv0AD2ONTLYWhfIKXD/C8K52NDQ6MLpkczaoKmVrttSwjMIutOoBkLV7rXVXnZ5ew8z0EqTIUPEPhOPa5n5Uk0zhJ/pxa1pM1x0PfLuutfdf1bfdN7Y1Y+CrMgEmsBkEWIxsBkU+BxPYBgRmjz/6pjNHvvun5aWpJh9lOFSZAh+xNnB9iVhFNiTS3JpDV3cWNbXUQC8C9fHdqs2KEUek/ijwIFCH+bkYkxNFFAsKnuelIkRSDoyBoXJfI5AJcmjpHVqoH37Fz9R3vvovuf/MVs0gX5cJbA4BFiObw5HPwgS2nICZeCJ7YnrsV8YPf+8XGzMmiArLcJ2sDdWEJoTreUgS+kCPbKimoyMPY5ZSK3bj4NI3gxdbLbnSxnpkXfZSSbF0jkvPbZNVkwhCUq5ILSbGlzE7VYbn1tpQEzUDJMGSCIOEzNyMi8amFgzuvfcTtTt/9P0sRLb80eMbYALXTYDFyHUj5BMwge1DYHr80b1njj796cLs+AM5kQhyHUmSGNpJy2Wp50sURchlPQwNtyBfv4YoWUbg10HH2oZLbGlwUoJPVSuUp0GbNUcjqzSynKf/pqsp5GNif1URGOkeG8SIWRcl643vZOX49Gja34ZoqILGr8fEmWVbyuuiHiJ2IakqSEdwfSB2gDWqqPHz2H3ngyN+Y/tPtPe+6bntQ5/vhAkwgWslwGLkWsnxcUxgGxIwxshjB//kJ5dOjz1Snp+pyZNwMAmkm64sQDhQivw9HLS0BOgaBLJ5g7hsoJSB73ig9QcSAB5ZfVwiRipdda0YIZFCtS8bxch6z911U3eqHd4oRjaKmYqUEYb68gJOFkvLCSanVrG6ZOCoLHwRwKXbRwwjYsSuwKqWaBnYtdbav/fXOwfaf0+I+6nDHm9MgAnc4gRYjNziE8i3zwQuJ2DMY+7o4yN/cWbk+XdkTARPKkgKcyQJhHQgpUQcJnC8EAM7a9HeWYNyqWhzM3IZH3EcQlrBYVM1Ltk0uaVW1kRSOZH+PV0Z2ShGKiLk8pURu/ulJ7XhGZPF+Pgc5s6WIVEDHTvIOIH1Q6EwjZKGOutA1LTqHfvu/4rfOvz+1tZ7p3n2mQATuD0IsBi5PeaRR8EELiEwd+yvHh458vQXkpW5Fh/U4VZDJTEcI62pWJgoGJRR3yLR09eIDLX+JQ8PEUMbZYttLxEjFXFSkShWflyQFdaWnf72cmKEes9cvE3yZKNVEWMCFFaB0+MLKKwYBF4ddGKd26wPSZSUAd9FJAN07bhzrbV/3483d7/hUZ5yJsAEbh8CLEZun7nkkTCBCwTMqccyY3MTH5kYO/JhU14KsiKBqzXIVkRK6uhrQG1ptCiisTmDwcFWuH6MsLQEx4Xt+UIhGiFohSNd9UhzReiv9DuK4UgYSQkfuiJGNqStXlgRSQ/ZKEJseKciRISTQ1iSmJpYwfJ8BBNnIeDDcyTKcRHC14i0QuJ5qG3q1f277//Dth2Ffy3EO7euBIifMybABDadAIuRTUfKJ2QC24PA3Ilv7Ro99p1PFs5PvtZLSiIrNajNHIVjrH+Y7yFOIrhBgt17OlFbLxCWF+B6VPKb2slfKkZSg7LrEyOpoEnFiAfjUClvCRMnF4AoAxd56ETBCxyUVBHK0dCug1BmsGPfA0eb2nf+ZFPHq5/fHoT5LpgAE9gsAixGNoskn4cJbDMCZBU/9twX/8n0yef+u1o652cRw0+lgPUbMQ6tbrhQCNHeEaC9Kw8vCAERrtfN2BWSytpGujJy4e/rNvJk73rx9/KyFZH11ZT1lFZjV1oqZzQB1ko+JieXsToXIRB5SGqGRzb1rkIsE5QdA+1nUdPSvzq098Ffb+ps/ZgQ+6NthppvhwkwgeskwGLkOgHy4UxgOxMgq/invnn2yytnTrzVjYsiK6j3i0BCoQ9tIEUOsSrD9UoY2NGMlnbflvp6TqVE90J85aV8Qyrhm4oIeTExsi5EaFVlPeGV/qyQxexZhdOn5uDqHDIyC2Gt68kXpQD4EqHjIPJrzO79r/urxp7B99TW3ju3nXnzvTEBJnBtBFiMXBs3PooJ3DIEzo7/zatHnnr8T/Tq/GBAXW8RIzEajnQRhRK5XAbF8jxq6gT27OuBEWtwvMgmtApN+SLSlgLbpFXKE4GCsNbsGma93MaKEfpZT3ytVMw4sL4mQZBFnFCaR9qHRnoelhYTjIwuQoUeXOPDo1WTJLZlyMY1KBqNshOgd/e9K23dd7y9ses1f3/LQOcbZQJM4KoIsBi5Kly8MxO49QhMTDyRDWdG/v3E8ef/nW/CQKoyJIkI0hMI0l4vCG0Ca2NzYFdIomQBrk8OY2nvOWG8SoiGBAclwpK9h04TUy8IEbun3V9SUorQUDYJlrJmqReOtJ15vaAGa6tlzMysYHFeQscuHMphoXUTk1iBkzgaRS1Q1zGEzh13fbprV/3/yo3wbr1nj++YCVwpARYjV0qK92MCtzCB+alv9p44+N3PFOanXu+aUDiI7DqGKzKIY2Xt1pUpw3Ej7LmjG5lcBCOKsHETEhfaS1c11kt4adVE0BqJ2SBGNr6dpBU4lJviBwGiSEFKH0r7CPwaTE/N48zpBQhTD6F9CBNbTxHhKLtqE0sX2q9F/677Dzb17f5nda2vHLmF8fOtMwEm8DIEWIzwI8IEqoTAqYNf/NHTx5/+MxkveyZaQ9ZzoBNACqqxARJVhufDhmuGdrVCowDp0AqIqeShSltlIyTZuKclvamzyMXwTIryYimwbYQnPUQxhYVy0CZjQ0OTk+cxd3YNvmyAK3xoU4ahPBWpUNYaTlCHutb+1e7Be3+taUfDx9hptUoeUh5m1RJgMVK1U88DrzYCxhzwnvvGga/MT42+WcSrIucaqDiB73rWCt4YBYf60qgVDA61obW9BsYUbGM9QQ1kaFnE5pCQy0jqP3LRP+SFqyKkYChEk8RkXpaBFFnEcQbTk0tYWCwhLgs4OmP30TKyYiSGRlkJ1Lb0mZ4ddz7W1LDnX+a675yotrni8TKBaiPAYqTaZpzHW9UEZkcffej4s49/VpTmB0W4ZpviWSt3Mv4AEKvE+oy4nsIddw5AOiVAlCBA1bRJmhFiJCTlkFgzs/U+NS8lRgziyCDI1iFJMlhbBk6OnUW5TCmxARxyYIWCdhIo1yDUgPZr0N57x8Lg8D0P17Q/xI3wqvqJ5cFXCwEWI9Uy0zxOJkA6YuKJ7LGJY7+2MjnywdLKuSDrkYlZamZGKxRU8eL5EklSRldPI9o785BOEVKspdU1hvZzIVXWJr5qkVzqP7IuTuj3aY9fm7TqejUoFCSmJ1cwd64M6DxcGcAxCWWWQLkJQimQuB7qWvqS7r57/1v37h/5ZZ40JsAEqoMAi5HqmGce8uCKJQAADIVJREFUJRO4QGBl8lu7jj39rc+VFmfvdZI1BJ60iaa0eX6AUqmEbM5HOVzGK+4bhpArcJwChIwgqTLGeJAqbytnlCin571QUUMlOhTSoZUUCv0AjpuzqyJLSxonRs5CJ1m4TjYVNrpsU06oI2+ZokDZBtM1uP/7vYN3/3Rt871HeNqYABOoDgIsRqpjnnmUTOASAieOfOlNpw8/8xWxejZT4xnbqddxqGld6s7q+6kYaWr2sHtvN7SeByQ5swpIcm0lb5BMgNgU4LoSJvGQxAauFBAyhhEF274mToAg04bCaoBDz0/AqCw8N4swLNnOwFJFCDIZrCqBsvDR3Ld3oad//4daB97wGSHWm+Hw5DEBJnC7E2AxcrvPMI+PCbwIAXPggHew+Mwfr4wf+kkvKdjSXhgF8jIjUUKbVmX4mRgdXTXo6M5BJWvwXEBTQqrJQBsD7UaQMhUj5CNCYoTs5Kks2EhhO/ImSQ7TkwnOnY2glWfPrzSFfhQco5FoCeXXArkmDOx74E9rO3e8v75+/wJPHBNgAtVDgMVI9cw1j5QJXEJg+vjXXjdx+DufKS1O9we+FEbFMEojQ11syBfEIdOyAjI12q6OeF4IoUM4tqqGBIUCuZVRvxmhScBI+2+GjMtAgoSERy3mF2KMHl+AI+qhEnrL0ZBuDGNiSHiIEoHYzaJv990rjd27X9vU+3puhMfPKhOoMgIsRqpswnm4TGCdgDGH/JPfffyDZ08d+9UoXMtTyzxyQvWFA63ThNYEIYQbor0zh46uOkCvIQgkVEQurhJGkFkaVf1Sh19hbeKp3Jf+bOAhSbKYmljG1GQR2aDBrrxoE1n/EgoJCRkgEVl4+aZo6K77f7t56B99hMMz/IwygeojwGKk+uacR8wELhCYH/1qz+T4oT+bmRh9KO8YBALQYQLPyaTVMmQb7ySAW8TgUCsa6gWkKMFQaMd1obS0AoOEybrjqpQeXIeSVn2cO1fE9OQqjAqglQvajcQI5Z+QdVqEWri5RvTt2v9krrH9vc39bzzM08MEmED1EWAxUn1zziNmApcQOPXsZ99y6sjBr8ho1c0JBRWG8J2MXR3R1FPGUSgnq2htz2DXzlaoeAGBG9uSYLv6QXkmbmqGlsRUkZOnshgUVg1OnVrA0mIJNflGlEsRHJcSXLUN0Sg4KJgatPTunB/ac/eHarvP/okQ70zLenhjAkygqgiwGKmq6ebBMoEXEiDvkcMnn/mL85Mjbw3iAlwTAxSmgYNE+tbcPUIJrhdjeKgRtTUGWS+E0SUI6drqG+HSWwn5k0i4Xj3Cko+zMwWcnVmBVgK+40PrBEpomyxLYZyydiHr+tC78+7P97b2vVd03F3g+WECTKA6CbAYqc5551EzgQsEjDFidvRvfmTk4Dc/IYrnu2sDB+XCGlwngJb0QxbxEbQpobHBYM/uLjhiBVKEEJIa+0aAQz13XSQqgOfUY2UROHXiHKLQIAiyKBdX4Wd9xHFsBYzjBigkLjp2PbDa2rf7Hzb3vPI7PCVMgAlULwEWI9U79zxyJnBRkMwdqx0ZfeI/T48+9T4PRc/VCQQlspKnCFxA0p/L8GQZbe05dHfWIPBjQJSRxCUY+nftww+aUS55ODU2j6X5IjwvQFwuIVfvoVBYg5/NI4zIf8RFW9/epGPnvR9rHuz+JSF2hjwdTIAJVC8BFiPVO/c8ciZwCYFzJ/525+yJZ/7y3OSxO3KegVBk9e5bO3dI6qwbQZgIdXUSXR01aGoKoLAE600mKJk1A6AOs1NrOH3qPAI3Dwltc0RCtYYg62O1GMPx6+F6jegeesWBxp59/6K2cz87rfKzyASqnACLkSp/AHj4TGAjgenDf/a+sUNP/oEqLyCQ1HaG3iIEBDxbimtoxURGaGnJobO7HrlMGWG0hkyu3lbPTE2u4vy5IqKQWuC5FTGSIDZFwJUINbm2ZtEzcFeptWf//948lP0tIe6PeRaYABOobgIsRqp7/nn0TOASAounHmuYOnP4MzOnD78t68RSKA1XSBhFHiK0zmGQqDLyNS5a22vQ05VHokowwsf8fAmnT88jiTxk3RqbH+IIBW1CiECgGMeQfiOM34ihPa/8dkP70E/UtO2f5SlgAkyACbAY4WeACTCBi7kjxoiZY3/95lMj3/uD4tL0QAYagZDQtjmvgCArdyQwQiGXd7BzuAO5uixmp8/h9OkZCORgtIukpJHJ+jAqghAGMbTtyBvJGvQM33O+uX33T7X0v+rrjJ4JMAEmQARYjPBzwASYwCUEpqcP5Fann/8vZ44d/JmsLrme0RAJWcALSNeDlgKRie2Kx2Bfuy3VnTl7DqsrRWQz9TDKQMUagetRX18ooxELIJZZ5Ft7k/49932sdXDnh4UYrLT85QlgAkyg2gmwGKn2J4DHzwRehMD81Dd7J45+7yurM6fudpMyXDI2I98RCBjHhZLalvvW5TIIy0VEcdrpVynr945skEFcDiGFgDYCifCBbJ3p33/fdzItve9t6XrVUQbPBJgAE1gnwGKEnwUmwARelMDM4T9/58gz3/mMjFaCDLnCC4k4VnZlRPpU8mugohCZgDrzJnBdF9RDL4rKCDzXJrxGKrHJredXyujZub/QOXTXRxr6zMeFeDhh7EyACTABFiP8DDABJvADCaxMH2iZOPHUp86eOPz2LGI4KobrSuu4quFCCWN7zSgdw4ULD5ToGlt3VekYRNTV1/exVI5R29aN/l2v+FZN18CP19Xdf57RMwEmwAQ2EuCVEX4emAATeEkCk8e++sa5U0f+n/nJkYE634GJy3AcJ22iR031bJ8ZA9+4NjxD3iTSoQZ7wiathmT9nqlBc/fQUt+OO/9xbecbv8m4mQATYAKXE2Axws8EE2ACL0mA+tZMz43/+ujzBz7omdAXKoJn+8s4NjSjnfQthDrZUBmw/bOUUIL62QAhJJq6+pOOgb2f6Wjc9wuidc8q42YCTIAJsBjhZ4AJMIGrIrBw4tG+M2OH/m5h+vRwRiZAXEQ2cG1uiBEuhCPTVRFtrEjRQoKKb8qQcLO1pnd43+Gmnl3vq2171XcE1fnyxgSYABO4jACvjPAjwQSYwMsSmHzu//uJsaMH/9gUzwcByvBsXQ1ZoKV9a4xKbNjGdTzE2qCkJLSXQUffzpXewf0/V9f3+j9hIfKymHkHJlC1BFiMVO3U88CZwJUTWJ19tm38+IE/njn5/Jtr3BgmXEbOd6ASMkJz06RWQS1qXBQTg0QEyNW3onfHXV/s7bnzp0XzzpUrvxrvyQSYQLURYDFSbTPO42UC10DAGCNnTnzjHeOHv/N7anW224lWkHE0tJI2RyTRyuaPKOmilAj4NS1o79s529a+612NA6997BouyYcwASZQRQRYjFTRZPNQmcD1ECBn1uXTRz86OfLUz9a5oYNywfqKkL8IVc4Y6SAWDsrGRWNrX3Fwz33/pcnd81HR21u6nuvysUyACdz+BFiM3P5zzCNkAptGYOn0t3acPHbgW/MTR7rqfcDVBkkSwbgS8AIUKL/VyZh77nvdt+qbe96baXtodNMuzidiAkzgtiXAYuS2nVoeGBO4MQTGD37uF6dPHPo/ktXzjqcjOGSEBiCSLiLjYWD3nSu1TX3vbh9+y18JIdJ6X96YABNgAj+AAIsRfjyYABO4KgLFqW/1jY8e+dz0+NFX1zgJhIkRCQfL5RitnQOrfbvu+njHzsFfE2I/WY3wxgSYABN4WQIsRl4WEe/ABJjARgLGHPCmjsz9q4kTz/7nZHm2KU7K0MJHUNeI7uE7/jpb2/pznYMPjzM1JsAEmMCVEmAxcqWkeD8mwAQuEKBS37NTJz499vy336JNKHI1zRjad89sprb1gy29r/2CEIIiN7wxASbABK6IAIuRK8LEOzEBJnA5gcXJAw+PHPrmF4uFpYa+HXeYmsauz+ug5uc7O++dY1pMgAkwgashwGLkamjxvkyACVwgYMxoMDM28sjq8tyPd/XvHlmNxc90dT30FCNiAkyACVwtARYjV0uM92cCTOACgbnxA53SL90NExxu6npgki3f+eFgAkzgWgiwGLkWanwME2ACTIAJMAEmsGkEWIxsGko+ERNgAkyACTABJnAtBFiMXAs1PoYJMAEmwASYABPYNAIsRjYNJZ+ICTABJsAEmAATuBYCLEauhRofwwSYABNgAkyACWwaARYjm4aST8QEmAATYAJMgAlcCwEWI9dCjY9hAkyACTABJsAENo0Ai5FNQ8knYgJMgAkwASbABK6FwP8P8g7hKqWzXpsAAAAASUVORK5CYII=;" vertex="1" parent="1">
          <mxGeometry x="360" y="1010.0000000000001" width="127" height="105.87" as="geometry" />
        </mxCell>
      </root>
    </mxGraphModel>
  </diagram>
  <diagram id="SqMTHyyA58n_STbbBRih" name="Página-3">
    <mxGraphModel dx="1434" dy="870" grid="1" gridSize="10" guides="1" tooltips="1" connect="1" arrows="1" fold="1" page="1" pageScale="1" pageWidth="6311" pageHeight="1730" math="0" shadow="0">
      <root>
        <mxCell id="0" />
        <mxCell id="1" parent="0" />
      </root>
    </mxGraphModel>
  </diagram>
</mxfile>
